<svg width="1363" height="301" viewBox="0 0 1363 301" fill="none" xmlns="http://www.w3.org/2000/svg">
<rect width="1363" height="301" rx="15" fill="#F0F0F0"/>
<path d="M0 15C0 6.71573 6.71573 0 15 0H37V301H15C6.71573 301 0 294.284 0 286V15Z" fill="#1A7C6B"/>
<path d="M110.584 130.733H100.862V123.456H110.584C111.909 123.456 112.983 123.232 113.807 122.784C114.63 122.337 115.23 121.719 115.606 120.931C116 120.125 116.197 119.221 116.197 118.219C116.197 117.145 116 116.151 115.606 115.238C115.23 114.325 114.63 113.591 113.807 113.036C112.983 112.463 111.909 112.176 110.584 112.176H104.407V144H94.981V104.898H110.584C113.717 104.898 116.412 105.471 118.667 106.617C120.941 107.763 122.687 109.339 123.904 111.344C125.122 113.331 125.73 115.605 125.73 118.165C125.73 120.689 125.122 122.892 123.904 124.771C122.687 126.651 120.941 128.119 118.667 129.176C116.412 130.214 113.717 130.733 110.584 130.733ZM139.239 102.75V144H130.188V102.75H139.239ZM138.165 128.478L136.043 128.531C136.043 126.49 136.294 124.61 136.795 122.892C137.296 121.173 138.012 119.678 138.943 118.407C139.874 117.136 140.993 116.151 142.3 115.453C143.607 114.754 145.057 114.405 146.651 114.405C148.083 114.405 149.39 114.611 150.572 115.023C151.771 115.435 152.801 116.097 153.66 117.01C154.537 117.923 155.209 119.114 155.674 120.582C156.158 122.05 156.399 123.84 156.399 125.953V144H147.295V125.899C147.295 124.718 147.125 123.805 146.785 123.16C146.463 122.498 145.997 122.041 145.389 121.791C144.78 121.522 144.037 121.388 143.16 121.388C142.103 121.388 141.244 121.567 140.582 121.925C139.919 122.283 139.409 122.784 139.051 123.429C138.711 124.055 138.478 124.798 138.353 125.658C138.227 126.517 138.165 127.457 138.165 128.478ZM170.337 140.589L177.857 114.942H187.579L175.896 148.324C175.646 149.058 175.315 149.846 174.903 150.687C174.491 151.546 173.927 152.361 173.211 153.131C172.495 153.901 171.573 154.527 170.445 155.011C169.335 155.494 167.956 155.736 166.309 155.736C165.432 155.736 164.787 155.691 164.375 155.602C163.982 155.53 163.373 155.396 162.549 155.199V148.727C162.782 148.727 162.979 148.727 163.14 148.727C163.319 148.727 163.516 148.727 163.731 148.727C164.698 148.727 165.468 148.628 166.041 148.431C166.631 148.234 167.079 147.948 167.383 147.572C167.706 147.196 167.956 146.739 168.135 146.202L170.337 140.589ZM168.431 114.942L174.151 135.272L175.145 144.859H169.075L158.736 114.942H168.431ZM205.169 135.836C205.169 135.335 204.999 134.905 204.659 134.547C204.336 134.171 203.764 133.831 202.94 133.526C202.116 133.204 200.962 132.882 199.476 132.56C198.061 132.255 196.727 131.852 195.474 131.351C194.239 130.85 193.156 130.241 192.225 129.525C191.294 128.809 190.56 127.958 190.022 126.974C189.503 125.989 189.244 124.861 189.244 123.59C189.244 122.354 189.503 121.191 190.022 120.099C190.56 118.989 191.338 118.013 192.359 117.171C193.397 116.312 194.66 115.641 196.146 115.157C197.632 114.656 199.323 114.405 201.221 114.405C203.835 114.405 206.091 114.808 207.989 115.614C209.887 116.402 211.346 117.512 212.366 118.944C213.405 120.358 213.924 121.996 213.924 123.858H204.874C204.874 123.124 204.748 122.498 204.498 121.979C204.265 121.459 203.88 121.065 203.343 120.797C202.806 120.51 202.09 120.367 201.194 120.367C200.568 120.367 199.995 120.484 199.476 120.716C198.974 120.949 198.571 121.271 198.267 121.683C197.963 122.095 197.811 122.578 197.811 123.133C197.811 123.527 197.9 123.885 198.079 124.208C198.276 124.512 198.571 124.798 198.965 125.067C199.359 125.318 199.861 125.55 200.469 125.765C201.078 125.962 201.812 126.141 202.671 126.302C204.623 126.66 206.449 127.171 208.15 127.833C209.851 128.495 211.229 129.435 212.286 130.653C213.36 131.87 213.897 133.508 213.897 135.567C213.897 136.856 213.602 138.047 213.011 139.139C212.42 140.213 211.569 141.162 210.459 141.986C209.349 142.792 208.016 143.418 206.458 143.866C204.9 144.313 203.146 144.537 201.194 144.537C198.419 144.537 196.074 144.045 194.158 143.06C192.243 142.057 190.792 140.804 189.808 139.3C188.841 137.778 188.357 136.239 188.357 134.681H196.79C196.826 135.576 197.041 136.31 197.435 136.883C197.846 137.456 198.392 137.877 199.073 138.146C199.753 138.414 200.541 138.548 201.436 138.548C202.26 138.548 202.94 138.432 203.477 138.199C204.032 137.966 204.453 137.653 204.739 137.259C205.026 136.847 205.169 136.373 205.169 135.836ZM227.701 114.942V144H218.624V114.942H227.701ZM218.086 107.45C218.086 106.161 218.552 105.104 219.483 104.281C220.414 103.457 221.622 103.045 223.108 103.045C224.594 103.045 225.803 103.457 226.734 104.281C227.665 105.104 228.13 106.161 228.13 107.45C228.13 108.739 227.665 109.795 226.734 110.619C225.803 111.442 224.594 111.854 223.108 111.854C221.622 111.854 220.414 111.442 219.483 110.619C218.552 109.795 218.086 108.739 218.086 107.45ZM232.159 129.767V129.203C232.159 127.072 232.463 125.112 233.072 123.321C233.681 121.513 234.576 119.946 235.757 118.622C236.939 117.297 238.398 116.267 240.135 115.533C241.871 114.781 243.877 114.405 246.15 114.405C248.442 114.405 250.456 114.781 252.193 115.533C253.947 116.267 255.416 117.297 256.597 118.622C257.779 119.946 258.674 121.513 259.283 123.321C259.891 125.112 260.196 127.072 260.196 129.203V129.767C260.196 131.879 259.891 133.84 259.283 135.648C258.674 137.438 257.779 139.005 256.597 140.348C255.416 141.673 253.956 142.702 252.22 143.436C250.483 144.17 248.478 144.537 246.204 144.537C243.93 144.537 241.916 144.17 240.162 143.436C238.407 142.702 236.939 141.673 235.757 140.348C234.576 139.005 233.681 137.438 233.072 135.648C232.463 133.84 232.159 131.879 232.159 129.767ZM241.209 129.203V129.767C241.209 130.859 241.29 131.879 241.451 132.828C241.612 133.777 241.88 134.61 242.256 135.326C242.632 136.024 243.143 136.57 243.787 136.964C244.432 137.358 245.237 137.555 246.204 137.555C247.153 137.555 247.941 137.358 248.567 136.964C249.212 136.57 249.722 136.024 250.098 135.326C250.474 134.61 250.743 133.777 250.904 132.828C251.065 131.879 251.146 130.859 251.146 129.767V129.203C251.146 128.146 251.065 127.153 250.904 126.222C250.743 125.273 250.474 124.44 250.098 123.724C249.722 122.99 249.212 122.417 248.567 122.005C247.923 121.594 247.117 121.388 246.15 121.388C245.201 121.388 244.405 121.594 243.76 122.005C243.134 122.417 242.632 122.99 242.256 123.724C241.88 124.44 241.612 125.273 241.451 126.222C241.29 127.153 241.209 128.146 241.209 129.203ZM286.89 130.76H296.29C296.164 133.482 295.43 135.881 294.087 137.958C292.745 140.034 290.883 141.655 288.501 142.818C286.138 143.964 283.345 144.537 280.123 144.537C277.509 144.537 275.172 144.098 273.113 143.221C271.072 142.344 269.336 141.082 267.903 139.435C266.489 137.787 265.406 135.791 264.654 133.446C263.92 131.1 263.553 128.46 263.553 125.523V123.402C263.553 120.466 263.938 117.825 264.708 115.479C265.495 113.116 266.605 111.111 268.038 109.464C269.488 107.799 271.224 106.528 273.248 105.65C275.271 104.773 277.518 104.334 279.988 104.334C283.39 104.334 286.264 104.943 288.609 106.161C290.954 107.378 292.771 109.052 294.061 111.183C295.35 113.295 296.111 115.703 296.343 118.407H286.944C286.908 116.939 286.657 115.712 286.192 114.728C285.726 113.725 284.992 112.973 283.99 112.472C282.987 111.97 281.653 111.72 279.988 111.72C278.825 111.72 277.813 111.935 276.954 112.364C276.094 112.794 275.378 113.474 274.805 114.405C274.232 115.336 273.803 116.545 273.516 118.031C273.248 119.499 273.113 121.271 273.113 123.348V125.523C273.113 127.6 273.239 129.373 273.489 130.841C273.74 132.309 274.143 133.508 274.698 134.439C275.253 135.37 275.969 136.06 276.846 136.507C277.741 136.937 278.833 137.152 280.123 137.152C281.555 137.152 282.763 136.928 283.748 136.48C284.733 136.015 285.494 135.317 286.031 134.386C286.568 133.437 286.854 132.228 286.89 130.76ZM315.411 136.695V124.718C315.411 123.894 315.294 123.187 315.062 122.596C314.829 122.005 314.462 121.549 313.96 121.227C313.459 120.886 312.788 120.716 311.946 120.716C311.266 120.716 310.684 120.833 310.201 121.065C309.717 121.298 309.35 121.647 309.1 122.113C308.849 122.578 308.724 123.169 308.724 123.885H299.673C299.673 122.542 299.969 121.298 300.56 120.152C301.168 118.989 302.028 117.977 303.138 117.118C304.266 116.258 305.608 115.596 307.166 115.13C308.742 114.647 310.496 114.405 312.43 114.405C314.739 114.405 316.798 114.79 318.606 115.56C320.433 116.33 321.874 117.485 322.93 119.024C323.986 120.546 324.515 122.462 324.515 124.771V136.668C324.515 138.566 324.622 140.007 324.837 140.992C325.052 141.959 325.356 142.809 325.75 143.543V144H316.673C316.243 143.105 315.921 142.013 315.706 140.724C315.509 139.417 315.411 138.074 315.411 136.695ZM316.512 126.249L316.565 131.083H312.564C311.722 131.083 311.006 131.199 310.416 131.432C309.843 131.664 309.377 131.987 309.019 132.398C308.679 132.792 308.428 133.24 308.267 133.741C308.124 134.243 308.052 134.771 308.052 135.326C308.052 135.863 308.178 136.346 308.428 136.776C308.697 137.188 309.055 137.51 309.502 137.743C309.95 137.975 310.451 138.092 311.006 138.092C312.009 138.092 312.859 137.904 313.558 137.528C314.274 137.134 314.82 136.66 315.196 136.104C315.572 135.549 315.76 135.03 315.76 134.547L317.747 138.253C317.389 138.969 316.977 139.694 316.512 140.428C316.064 141.162 315.5 141.843 314.82 142.469C314.157 143.078 313.343 143.579 312.376 143.973C311.409 144.349 310.236 144.537 308.858 144.537C307.068 144.537 305.42 144.17 303.917 143.436C302.431 142.702 301.24 141.681 300.345 140.375C299.45 139.05 299.002 137.528 299.002 135.809C299.002 134.305 299.271 132.962 299.808 131.781C300.363 130.599 301.195 129.597 302.305 128.773C303.415 127.949 304.83 127.323 306.548 126.893C308.267 126.463 310.29 126.249 312.618 126.249H316.512ZM338.667 122.14V144H329.617V114.942H338.077L338.667 122.14ZM347.261 114.728L347.1 123.133C346.742 123.097 346.259 123.053 345.65 122.999C345.041 122.945 344.531 122.918 344.119 122.918C343.063 122.918 342.15 123.044 341.38 123.294C340.628 123.527 340.001 123.885 339.5 124.369C339.017 124.834 338.659 125.425 338.426 126.141C338.211 126.857 338.112 127.69 338.13 128.639L336.492 127.564C336.492 125.613 336.68 123.84 337.056 122.247C337.45 120.636 338.005 119.248 338.721 118.084C339.437 116.903 340.306 115.999 341.326 115.372C342.347 114.728 343.493 114.405 344.764 114.405C345.211 114.405 345.65 114.432 346.08 114.486C346.527 114.54 346.921 114.62 347.261 114.728ZM363.912 144.537C361.548 144.537 359.436 144.17 357.574 143.436C355.712 142.684 354.136 141.655 352.847 140.348C351.576 139.041 350.6 137.537 349.92 135.836C349.257 134.135 348.926 132.336 348.926 130.438V129.417C348.926 127.287 349.222 125.318 349.812 123.509C350.403 121.683 351.281 120.09 352.444 118.729C353.608 117.368 355.067 116.312 356.822 115.56C358.576 114.79 360.617 114.405 362.945 114.405C365.004 114.405 366.848 114.736 368.477 115.399C370.106 116.061 371.485 117.01 372.613 118.246C373.759 119.481 374.627 120.976 375.218 122.73C375.826 124.485 376.131 126.454 376.131 128.639V132.318H352.391V126.651H367.295V125.953C367.313 124.986 367.143 124.163 366.785 123.482C366.445 122.802 365.944 122.283 365.281 121.925C364.619 121.567 363.813 121.388 362.864 121.388C361.88 121.388 361.065 121.603 360.42 122.032C359.794 122.462 359.301 123.053 358.943 123.805C358.603 124.539 358.361 125.389 358.218 126.356C358.075 127.323 358.003 128.343 358.003 129.417V130.438C358.003 131.512 358.147 132.488 358.433 133.365C358.737 134.243 359.167 134.994 359.722 135.621C360.295 136.23 360.975 136.704 361.763 137.044C362.569 137.385 363.482 137.555 364.502 137.555C365.738 137.555 366.955 137.322 368.155 136.856C369.354 136.391 370.384 135.621 371.243 134.547L375.352 139.435C374.761 140.276 373.92 141.091 372.828 141.878C371.753 142.666 370.464 143.311 368.96 143.812C367.457 144.295 365.774 144.537 363.912 144.537Z" fill="black"/>
<path d="M96.563 55.1172H100.904L107.295 73.3862L113.687 55.1172H118.028L109.039 80H105.552L96.563 55.1172ZM94.2217 55.1172H98.5454L99.3315 72.9248V80H94.2217V55.1172ZM116.045 55.1172H120.386V80H115.259V72.9248L116.045 55.1172ZM123.787 70.9424V70.5835C123.787 69.2277 123.981 67.9801 124.368 66.8408C124.756 65.6901 125.319 64.6932 126.06 63.8501C126.801 63.007 127.712 62.3519 128.794 61.8848C129.877 61.4062 131.119 61.167 132.52 61.167C133.921 61.167 135.169 61.4062 136.263 61.8848C137.356 62.3519 138.274 63.007 139.014 63.8501C139.766 64.6932 140.336 65.6901 140.723 66.8408C141.111 67.9801 141.304 69.2277 141.304 70.5835V70.9424C141.304 72.2868 141.111 73.5343 140.723 74.6851C140.336 75.8244 139.766 76.8213 139.014 77.6758C138.274 78.5189 137.362 79.174 136.28 79.6411C135.197 80.1082 133.956 80.3418 132.554 80.3418C131.153 80.3418 129.905 80.1082 128.812 79.6411C127.729 79.174 126.812 78.5189 126.06 77.6758C125.319 76.8213 124.756 75.8244 124.368 74.6851C123.981 73.5343 123.787 72.2868 123.787 70.9424ZM128.709 70.5835V70.9424C128.709 71.7171 128.777 72.4406 128.914 73.1128C129.051 73.785 129.267 74.3774 129.563 74.8901C129.871 75.3914 130.27 75.7845 130.76 76.0693C131.25 76.3542 131.848 76.4966 132.554 76.4966C133.238 76.4966 133.825 76.3542 134.314 76.0693C134.804 75.7845 135.197 75.3914 135.494 74.8901C135.79 74.3774 136.006 73.785 136.143 73.1128C136.291 72.4406 136.365 71.7171 136.365 70.9424V70.5835C136.365 69.8315 136.291 69.1252 136.143 68.4644C136.006 67.7922 135.784 67.1997 135.477 66.687C135.18 66.1629 134.787 65.7528 134.297 65.4565C133.807 65.1603 133.215 65.0122 132.52 65.0122C131.825 65.0122 131.233 65.1603 130.743 65.4565C130.264 65.7528 129.871 66.1629 129.563 66.687C129.267 67.1997 129.051 67.7922 128.914 68.4644C128.777 69.1252 128.709 69.8315 128.709 70.5835ZM149.131 53.75V80H144.209V53.75H149.131ZM148.431 70.105H147.081C147.092 68.8175 147.263 67.6326 147.593 66.5503C147.924 65.4565 148.396 64.5109 149.012 63.7134C149.627 62.9045 150.362 62.2778 151.216 61.8335C152.082 61.3892 153.039 61.167 154.087 61.167C154.999 61.167 155.825 61.298 156.565 61.5601C157.317 61.8107 157.961 62.2209 158.497 62.7905C159.043 63.3488 159.465 64.0837 159.761 64.9951C160.057 65.9066 160.206 67.0117 160.206 68.3105V80H155.25V68.2764C155.25 67.4561 155.13 66.8123 154.891 66.3452C154.663 65.8667 154.327 65.5306 153.882 65.3369C153.449 65.1318 152.914 65.0293 152.276 65.0293C151.569 65.0293 150.966 65.1603 150.464 65.4224C149.974 65.6844 149.581 66.049 149.285 66.5161C148.989 66.9718 148.772 67.5073 148.636 68.1226C148.499 68.7378 148.431 69.3986 148.431 70.105ZM173.929 75.8301V67.5928C173.929 67.0003 173.832 66.4933 173.638 66.0718C173.444 65.6388 173.143 65.3027 172.732 65.0635C172.334 64.8242 171.815 64.7046 171.177 64.7046C170.63 64.7046 170.158 64.8014 169.759 64.9951C169.36 65.1774 169.052 65.4451 168.836 65.7983C168.619 66.1401 168.511 66.5446 168.511 67.0117H163.589C163.589 66.2256 163.772 65.4793 164.136 64.7729C164.501 64.0666 165.031 63.4456 165.726 62.9102C166.421 62.3633 167.247 61.936 168.204 61.6284C169.172 61.3208 170.254 61.167 171.451 61.167C172.886 61.167 174.162 61.4062 175.279 61.8848C176.395 62.3633 177.273 63.0811 177.911 64.0381C178.56 64.9951 178.885 66.1914 178.885 67.627V75.5396C178.885 76.5535 178.947 77.3853 179.073 78.0347C179.198 78.6727 179.38 79.231 179.62 79.7095V80H174.646C174.407 79.4987 174.225 78.8721 174.1 78.1201C173.986 77.3568 173.929 76.5934 173.929 75.8301ZM174.578 68.7378L174.612 71.5234H171.861C171.211 71.5234 170.647 71.5975 170.169 71.7456C169.69 71.8937 169.297 72.1045 168.99 72.3779C168.682 72.64 168.454 72.9476 168.306 73.3008C168.169 73.654 168.101 74.0413 168.101 74.4629C168.101 74.8844 168.198 75.2661 168.392 75.6079C168.585 75.9383 168.864 76.2004 169.229 76.394C169.594 76.5763 170.021 76.6675 170.511 76.6675C171.251 76.6675 171.895 76.5194 172.442 76.2231C172.989 75.9269 173.41 75.5623 173.707 75.1294C174.014 74.6965 174.174 74.2863 174.185 73.8989L175.484 75.9839C175.302 76.451 175.051 76.9352 174.732 77.4365C174.424 77.9378 174.031 78.4106 173.553 78.855C173.074 79.2879 172.499 79.6468 171.827 79.9316C171.154 80.2051 170.357 80.3418 169.434 80.3418C168.261 80.3418 167.195 80.1082 166.238 79.6411C165.293 79.1626 164.541 78.5075 163.982 77.6758C163.436 76.8327 163.162 75.8757 163.162 74.8047C163.162 73.8363 163.344 72.9761 163.709 72.2241C164.074 71.4722 164.609 70.8398 165.315 70.3271C166.033 69.8031 166.928 69.41 167.999 69.1479C169.069 68.8745 170.311 68.7378 171.724 68.7378H174.578ZM187.601 65.3369V80H182.662V61.5088H187.293L187.601 65.3369ZM186.917 70.105H185.55C185.55 68.8175 185.704 67.6326 186.011 66.5503C186.33 65.4565 186.792 64.5109 187.396 63.7134C188.011 62.9045 188.768 62.2778 189.668 61.8335C190.569 61.3892 191.611 61.167 192.796 61.167C193.616 61.167 194.368 61.2923 195.052 61.543C195.735 61.7822 196.322 62.1639 196.812 62.688C197.313 63.2007 197.701 63.8729 197.974 64.7046C198.248 65.5249 198.384 66.5104 198.384 67.6611V80H193.462V68.208C193.462 67.3649 193.348 66.7155 193.121 66.2598C192.893 65.804 192.568 65.485 192.146 65.3027C191.736 65.1204 191.241 65.0293 190.66 65.0293C190.022 65.0293 189.463 65.1603 188.985 65.4224C188.518 65.6844 188.13 66.049 187.823 66.5161C187.515 66.9718 187.287 67.5073 187.139 68.1226C186.991 68.7378 186.917 69.3986 186.917 70.105ZM197.923 69.541L196.163 69.7632C196.163 68.5555 196.311 67.4333 196.607 66.3965C196.915 65.3597 197.365 64.4482 197.957 63.6621C198.561 62.876 199.307 62.2664 200.196 61.8335C201.084 61.3892 202.11 61.167 203.272 61.167C204.161 61.167 204.97 61.298 205.699 61.5601C206.428 61.8107 207.049 62.2152 207.562 62.7734C208.086 63.3203 208.484 64.0381 208.758 64.9268C209.043 65.8154 209.185 66.9035 209.185 68.1909V80H204.246V68.1909C204.246 67.3364 204.132 66.687 203.904 66.2427C203.688 65.7869 203.369 65.4736 202.947 65.3027C202.537 65.1204 202.047 65.0293 201.478 65.0293C200.885 65.0293 200.367 65.1489 199.922 65.3882C199.478 65.616 199.108 65.9351 198.812 66.3452C198.515 66.7554 198.293 67.2339 198.145 67.7808C197.997 68.3162 197.923 68.903 197.923 69.541ZM217.918 65.3369V80H212.979V61.5088H217.61L217.918 65.3369ZM217.234 70.105H215.867C215.867 68.8175 216.021 67.6326 216.329 66.5503C216.648 65.4565 217.109 64.5109 217.713 63.7134C218.328 62.9045 219.086 62.2778 219.986 61.8335C220.886 61.3892 221.928 61.167 223.113 61.167C223.934 61.167 224.686 61.2923 225.369 61.543C226.053 61.7822 226.639 62.1639 227.129 62.688C227.631 63.2007 228.018 63.8729 228.292 64.7046C228.565 65.5249 228.702 66.5104 228.702 67.6611V80H223.78V68.208C223.78 67.3649 223.666 66.7155 223.438 66.2598C223.21 65.804 222.885 65.485 222.464 65.3027C222.054 65.1204 221.558 65.0293 220.977 65.0293C220.339 65.0293 219.781 65.1603 219.302 65.4224C218.835 65.6844 218.448 66.049 218.14 66.5161C217.833 66.9718 217.605 67.5073 217.457 68.1226C217.308 68.7378 217.234 69.3986 217.234 70.105ZM228.24 69.541L226.48 69.7632C226.48 68.5555 226.628 67.4333 226.924 66.3965C227.232 65.3597 227.682 64.4482 228.274 63.6621C228.878 62.876 229.625 62.2664 230.513 61.8335C231.402 61.3892 232.427 61.167 233.589 61.167C234.478 61.167 235.287 61.298 236.016 61.5601C236.745 61.8107 237.366 62.2152 237.879 62.7734C238.403 63.3203 238.802 64.0381 239.075 64.9268C239.36 65.8154 239.502 66.9035 239.502 68.1909V80H234.563V68.1909C234.563 67.3364 234.45 66.687 234.222 66.2427C234.005 65.7869 233.686 65.4736 233.265 65.3027C232.854 65.1204 232.365 65.0293 231.795 65.0293C231.202 65.0293 230.684 65.1489 230.24 65.3882C229.795 65.616 229.425 65.9351 229.129 66.3452C228.833 66.7554 228.611 67.2339 228.462 67.7808C228.314 68.3162 228.24 68.903 228.24 69.541ZM253.294 75.8301V67.5928C253.294 67.0003 253.197 66.4933 253.003 66.0718C252.81 65.6388 252.508 65.3027 252.098 65.0635C251.699 64.8242 251.181 64.7046 250.542 64.7046C249.996 64.7046 249.523 64.8014 249.124 64.9951C248.725 65.1774 248.418 65.4451 248.201 65.7983C247.985 66.1401 247.876 66.5446 247.876 67.0117H242.955C242.955 66.2256 243.137 65.4793 243.501 64.7729C243.866 64.0666 244.396 63.4456 245.091 62.9102C245.786 62.3633 246.612 61.936 247.569 61.6284C248.537 61.3208 249.62 61.167 250.816 61.167C252.251 61.167 253.528 61.4062 254.644 61.8848C255.761 62.3633 256.638 63.0811 257.276 64.0381C257.925 64.9951 258.25 66.1914 258.25 67.627V75.5396C258.25 76.5535 258.313 77.3853 258.438 78.0347C258.563 78.6727 258.746 79.231 258.985 79.7095V80H254.012C253.772 79.4987 253.59 78.8721 253.465 78.1201C253.351 77.3568 253.294 76.5934 253.294 75.8301ZM253.943 68.7378L253.978 71.5234H251.226C250.577 71.5234 250.013 71.5975 249.534 71.7456C249.056 71.8937 248.663 72.1045 248.355 72.3779C248.047 72.64 247.819 72.9476 247.671 73.3008C247.535 73.654 247.466 74.0413 247.466 74.4629C247.466 74.8844 247.563 75.2661 247.757 75.6079C247.951 75.9383 248.23 76.2004 248.594 76.394C248.959 76.5763 249.386 76.6675 249.876 76.6675C250.617 76.6675 251.26 76.5194 251.807 76.2231C252.354 75.9269 252.776 75.5623 253.072 75.1294C253.379 74.6965 253.539 74.2863 253.55 73.8989L254.849 75.9839C254.667 76.451 254.416 76.9352 254.097 77.4365C253.79 77.9378 253.396 78.4106 252.918 78.855C252.439 79.2879 251.864 79.6468 251.192 79.9316C250.52 80.2051 249.722 80.3418 248.799 80.3418C247.626 80.3418 246.561 80.1082 245.604 79.6411C244.658 79.1626 243.906 78.5075 243.348 77.6758C242.801 76.8327 242.527 75.8757 242.527 74.8047C242.527 73.8363 242.71 72.9761 243.074 72.2241C243.439 71.4722 243.974 70.8398 244.681 70.3271C245.398 69.8031 246.293 69.41 247.364 69.1479C248.435 68.8745 249.677 68.7378 251.089 68.7378H253.943ZM272.964 75.9668V53.75H277.92V80H273.46L272.964 75.9668ZM261.275 70.9766V70.6177C261.275 69.2049 261.434 67.9232 261.753 66.7725C262.072 65.6104 262.54 64.6134 263.155 63.7817C263.77 62.95 264.528 62.3063 265.428 61.8506C266.328 61.3949 267.353 61.167 268.504 61.167C269.586 61.167 270.532 61.3949 271.341 61.8506C272.161 62.3063 272.856 62.9557 273.426 63.7988C274.007 64.6305 274.474 65.616 274.827 66.7554C275.18 67.8833 275.437 69.1195 275.596 70.4639V71.25C275.437 72.5374 275.18 73.7337 274.827 74.8389C274.474 75.944 274.007 76.9124 273.426 77.7441C272.856 78.5645 272.161 79.2025 271.341 79.6582C270.521 80.1139 269.563 80.3418 268.47 80.3418C267.319 80.3418 266.294 80.1082 265.394 79.6411C264.505 79.174 263.753 78.5189 263.138 77.6758C262.534 76.8327 262.072 75.8415 261.753 74.7021C261.434 73.5628 261.275 72.321 261.275 70.9766ZM266.197 70.6177V70.9766C266.197 71.7399 266.254 72.452 266.368 73.1128C266.493 73.7736 266.692 74.3604 266.966 74.873C267.251 75.3743 267.615 75.7674 268.06 76.0522C268.515 76.3257 269.068 76.4624 269.717 76.4624C270.56 76.4624 271.255 76.2744 271.802 75.8984C272.349 75.5111 272.765 74.9813 273.05 74.3091C273.346 73.6369 273.517 72.8621 273.562 71.9849V69.7461C273.528 69.0283 273.426 68.3846 273.255 67.8149C273.095 67.2339 272.856 66.7383 272.537 66.3281C272.229 65.918 271.842 65.599 271.375 65.3711C270.919 65.1432 270.378 65.0293 269.751 65.0293C269.113 65.0293 268.567 65.1774 268.111 65.4736C267.655 65.7585 267.285 66.1515 267 66.6528C266.727 67.1541 266.521 67.7466 266.385 68.4302C266.259 69.1024 266.197 69.8315 266.197 70.6177ZM300.906 59.3726L294.139 80H288.687L297.933 55.1172H301.402L300.906 59.3726ZM306.529 80L299.744 59.3726L299.197 55.1172H302.701L311.998 80H306.529ZM306.221 70.7373V74.7534H293.079V70.7373H306.221ZM319.192 53.75V80H314.253V53.75H319.192ZM337.41 55.1172V80H332.283V55.1172H337.41ZM352.312 55.1172L342.452 67.4048L336.761 73.5229L335.838 68.6694L339.683 63.4058L346.023 55.1172H352.312ZM346.485 80L339.153 68.4985L342.947 65.3198L352.552 80H346.485ZM364.207 75.8301V67.5928C364.207 67.0003 364.11 66.4933 363.917 66.0718C363.723 65.6388 363.421 65.3027 363.011 65.0635C362.612 64.8242 362.094 64.7046 361.456 64.7046C360.909 64.7046 360.436 64.8014 360.037 64.9951C359.638 65.1774 359.331 65.4451 359.114 65.7983C358.898 66.1401 358.79 66.5446 358.79 67.0117H353.868C353.868 66.2256 354.05 65.4793 354.415 64.7729C354.779 64.0666 355.309 63.4456 356.004 62.9102C356.699 62.3633 357.525 61.936 358.482 61.6284C359.45 61.3208 360.533 61.167 361.729 61.167C363.165 61.167 364.441 61.4062 365.557 61.8848C366.674 62.3633 367.551 63.0811 368.189 64.0381C368.838 64.9951 369.163 66.1914 369.163 67.627V75.5396C369.163 76.5535 369.226 77.3853 369.351 78.0347C369.476 78.6727 369.659 79.231 369.898 79.7095V80H364.925C364.686 79.4987 364.503 78.8721 364.378 78.1201C364.264 77.3568 364.207 76.5934 364.207 75.8301ZM364.856 68.7378L364.891 71.5234H362.139C361.49 71.5234 360.926 71.5975 360.447 71.7456C359.969 71.8937 359.576 72.1045 359.268 72.3779C358.96 72.64 358.733 72.9476 358.584 73.3008C358.448 73.654 358.379 74.0413 358.379 74.4629C358.379 74.8844 358.476 75.2661 358.67 75.6079C358.864 75.9383 359.143 76.2004 359.507 76.394C359.872 76.5763 360.299 76.6675 360.789 76.6675C361.53 76.6675 362.173 76.5194 362.72 76.2231C363.267 75.9269 363.689 75.5623 363.985 75.1294C364.292 74.6965 364.452 74.2863 364.463 73.8989L365.762 75.9839C365.58 76.451 365.329 76.9352 365.01 77.4365C364.703 77.9378 364.31 78.4106 363.831 78.855C363.353 79.2879 362.777 79.6468 362.105 79.9316C361.433 80.2051 360.635 80.3418 359.712 80.3418C358.539 80.3418 357.474 80.1082 356.517 79.6411C355.571 79.1626 354.819 78.5075 354.261 77.6758C353.714 76.8327 353.44 75.8757 353.44 74.8047C353.44 73.8363 353.623 72.9761 353.987 72.2241C354.352 71.4722 354.887 70.8398 355.594 70.3271C356.312 69.8031 357.206 69.41 358.277 69.1479C359.348 68.8745 360.59 68.7378 362.002 68.7378H364.856ZM378.169 77.915L383.074 61.5088H388.355L380.921 82.7856C380.761 83.2528 380.545 83.7541 380.271 84.2896C380.009 84.825 379.651 85.332 379.195 85.8105C378.75 86.3005 378.187 86.6992 377.503 87.0068C376.831 87.3145 376.005 87.4683 375.025 87.4683C374.558 87.4683 374.176 87.4398 373.88 87.3828C373.584 87.3258 373.23 87.2461 372.82 87.1436V83.5376C372.946 83.5376 373.077 83.5376 373.213 83.5376C373.35 83.549 373.481 83.5547 373.606 83.5547C374.256 83.5547 374.786 83.4806 375.196 83.3325C375.606 83.1844 375.936 82.9565 376.187 82.6489C376.438 82.3527 376.637 81.9653 376.785 81.4868L378.169 77.915ZM376.119 61.5088L380.135 74.9072L380.835 80.1196L377.486 80.4785L370.838 61.5088H376.119ZM395.806 77.915L400.711 61.5088H405.992L398.558 82.7856C398.398 83.2528 398.182 83.7541 397.908 84.2896C397.646 84.825 397.287 85.332 396.832 85.8105C396.387 86.3005 395.823 86.6992 395.14 87.0068C394.467 87.3145 393.641 87.4683 392.662 87.4683C392.194 87.4683 391.813 87.4398 391.517 87.3828C391.22 87.3258 390.867 87.2461 390.457 87.1436V83.5376C390.582 83.5376 390.713 83.5376 390.85 83.5376C390.987 83.549 391.118 83.5547 391.243 83.5547C391.893 83.5547 392.422 83.4806 392.833 83.3325C393.243 83.1844 393.573 82.9565 393.824 82.6489C394.074 82.3527 394.274 81.9653 394.422 81.4868L395.806 77.915ZM393.755 61.5088L397.771 74.9072L398.472 80.1196L395.123 80.4785L388.475 61.5088H393.755ZM417.664 75.8301V67.5928C417.664 67.0003 417.567 66.4933 417.374 66.0718C417.18 65.6388 416.878 65.3027 416.468 65.0635C416.069 64.8242 415.551 64.7046 414.913 64.7046C414.366 64.7046 413.893 64.8014 413.494 64.9951C413.095 65.1774 412.788 65.4451 412.571 65.7983C412.355 66.1401 412.247 66.5446 412.247 67.0117H407.325C407.325 66.2256 407.507 65.4793 407.872 64.7729C408.236 64.0666 408.766 63.4456 409.461 62.9102C410.156 62.3633 410.982 61.936 411.939 61.6284C412.907 61.3208 413.99 61.167 415.186 61.167C416.622 61.167 417.898 61.4062 419.014 61.8848C420.131 62.3633 421.008 63.0811 421.646 64.0381C422.295 64.9951 422.62 66.1914 422.62 67.627V75.5396C422.62 76.5535 422.683 77.3853 422.808 78.0347C422.933 78.6727 423.116 79.231 423.355 79.7095V80H418.382C418.143 79.4987 417.96 78.8721 417.835 78.1201C417.721 77.3568 417.664 76.5934 417.664 75.8301ZM418.313 68.7378L418.348 71.5234H415.596C414.947 71.5234 414.383 71.5975 413.904 71.7456C413.426 71.8937 413.033 72.1045 412.725 72.3779C412.417 72.64 412.19 72.9476 412.042 73.3008C411.905 73.654 411.836 74.0413 411.836 74.4629C411.836 74.8844 411.933 75.2661 412.127 75.6079C412.321 75.9383 412.6 76.2004 412.964 76.394C413.329 76.5763 413.756 76.6675 414.246 76.6675C414.987 76.6675 415.63 76.5194 416.177 76.2231C416.724 75.9269 417.146 75.5623 417.442 75.1294C417.75 74.6965 417.909 74.2863 417.92 73.8989L419.219 75.9839C419.037 76.451 418.786 76.9352 418.467 77.4365C418.16 77.9378 417.767 78.4106 417.288 78.855C416.81 79.2879 416.234 79.6468 415.562 79.9316C414.89 80.2051 414.092 80.3418 413.169 80.3418C411.996 80.3418 410.931 80.1082 409.974 79.6411C409.028 79.1626 408.276 78.5075 407.718 77.6758C407.171 76.8327 406.897 75.8757 406.897 74.8047C406.897 73.8363 407.08 72.9761 407.444 72.2241C407.809 71.4722 408.344 70.8398 409.051 70.3271C409.769 69.8031 410.663 69.41 411.734 69.1479C412.805 68.8745 414.047 68.7378 415.459 68.7378H418.313ZM431.609 53.75V80H426.67V53.75H431.609ZM440.872 61.5088V80H435.933V61.5088H440.872ZM435.625 56.6895C435.625 55.9717 435.876 55.3792 436.377 54.9121C436.879 54.445 437.551 54.2114 438.394 54.2114C439.226 54.2114 439.892 54.445 440.394 54.9121C440.906 55.3792 441.163 55.9717 441.163 56.6895C441.163 57.4072 440.906 57.9997 440.394 58.4668C439.892 58.9339 439.226 59.1675 438.394 59.1675C437.551 59.1675 436.879 58.9339 436.377 58.4668C435.876 57.9997 435.625 57.4072 435.625 56.6895Z" fill="#888888"/>
<rect x="92" y="181" width="1179" height="80" rx="13.3333" fill="#CCCCCC"/>
<rect x="107" y="196.333" width="208" height="49.3333" rx="4.66667" fill="#888888" stroke="#888888" stroke-width="4"/>
<path d="M150.833 213.167H156.802C157.969 213.167 158.983 213.34 159.844 213.687C160.705 214.035 161.368 214.549 161.833 215.229C162.306 215.91 162.542 216.75 162.542 217.75C162.542 218.618 162.406 219.344 162.135 219.927C161.865 220.51 161.486 220.993 161 221.375C160.521 221.75 159.962 222.059 159.323 222.302L158.125 222.979H153.115L153.094 220.156H156.802C157.267 220.156 157.653 220.073 157.958 219.906C158.264 219.74 158.493 219.503 158.646 219.198C158.806 218.885 158.885 218.514 158.885 218.083C158.885 217.646 158.806 217.271 158.646 216.958C158.486 216.646 158.25 216.406 157.937 216.24C157.632 216.073 157.253 215.99 156.802 215.99H154.49V228.333H150.833V213.167ZM159.135 228.333L155.781 221.625L159.656 221.604L163.052 228.177V228.333H159.135ZM170.042 228.542C169.125 228.542 168.306 228.399 167.583 228.115C166.861 227.823 166.25 227.424 165.75 226.917C165.257 226.41 164.878 225.826 164.615 225.167C164.358 224.507 164.229 223.809 164.229 223.073V222.677C164.229 221.851 164.344 221.087 164.573 220.385C164.802 219.677 165.142 219.059 165.594 218.531C166.045 218.003 166.611 217.594 167.292 217.302C167.972 217.003 168.764 216.854 169.667 216.854C170.465 216.854 171.181 216.983 171.813 217.24C172.444 217.497 172.979 217.865 173.417 218.344C173.861 218.823 174.198 219.403 174.427 220.083C174.663 220.764 174.781 221.528 174.781 222.375V223.802H165.573V221.604H171.354V221.333C171.361 220.958 171.295 220.639 171.156 220.375C171.024 220.111 170.83 219.91 170.573 219.771C170.316 219.632 170.003 219.562 169.635 219.562C169.253 219.562 168.938 219.646 168.688 219.812C168.444 219.979 168.253 220.208 168.115 220.5C167.983 220.785 167.889 221.115 167.833 221.49C167.778 221.865 167.75 222.26 167.75 222.677V223.073C167.75 223.49 167.806 223.868 167.917 224.208C168.035 224.549 168.201 224.84 168.417 225.083C168.639 225.319 168.903 225.503 169.208 225.635C169.521 225.767 169.875 225.833 170.271 225.833C170.75 225.833 171.222 225.743 171.688 225.562C172.153 225.382 172.552 225.083 172.885 224.667L174.479 226.562C174.25 226.889 173.924 227.205 173.5 227.51C173.083 227.816 172.583 228.066 172 228.26C171.417 228.448 170.764 228.542 170.042 228.542ZM182.063 225.5V220.854C182.063 220.535 182.017 220.26 181.927 220.031C181.837 219.802 181.694 219.625 181.5 219.5C181.306 219.368 181.045 219.302 180.719 219.302C180.455 219.302 180.229 219.347 180.042 219.437C179.854 219.528 179.712 219.663 179.615 219.844C179.517 220.024 179.469 220.253 179.469 220.531H175.958C175.958 220.01 176.073 219.528 176.302 219.083C176.538 218.632 176.872 218.24 177.302 217.906C177.74 217.573 178.26 217.316 178.865 217.135C179.476 216.948 180.156 216.854 180.906 216.854C181.802 216.854 182.601 217.003 183.302 217.302C184.01 217.601 184.569 218.049 184.979 218.646C185.389 219.236 185.594 219.979 185.594 220.875V225.49C185.594 226.226 185.635 226.785 185.719 227.167C185.802 227.542 185.92 227.872 186.073 228.156V228.333H182.552C182.385 227.986 182.26 227.562 182.177 227.062C182.101 226.556 182.063 226.035 182.063 225.5ZM182.49 221.448L182.51 223.323H180.958C180.632 223.323 180.354 223.368 180.125 223.458C179.903 223.549 179.722 223.674 179.583 223.833C179.451 223.986 179.354 224.16 179.292 224.354C179.236 224.549 179.208 224.753 179.208 224.969C179.208 225.177 179.257 225.365 179.354 225.531C179.458 225.691 179.597 225.816 179.771 225.906C179.944 225.997 180.139 226.042 180.354 226.042C180.743 226.042 181.073 225.969 181.344 225.823C181.622 225.67 181.833 225.486 181.979 225.271C182.125 225.056 182.198 224.854 182.198 224.667L182.969 226.104C182.83 226.382 182.67 226.663 182.49 226.948C182.316 227.233 182.097 227.497 181.833 227.74C181.576 227.976 181.26 228.17 180.885 228.323C180.51 228.469 180.056 228.542 179.521 228.542C178.826 228.542 178.188 228.399 177.604 228.115C177.028 227.83 176.566 227.434 176.219 226.927C175.872 226.413 175.698 225.823 175.698 225.156C175.698 224.573 175.802 224.052 176.01 223.594C176.226 223.135 176.549 222.747 176.979 222.427C177.41 222.108 177.958 221.865 178.625 221.698C179.292 221.531 180.076 221.448 180.979 221.448H182.49ZM192.302 225.833C192.628 225.833 192.906 225.774 193.135 225.656C193.372 225.531 193.549 225.358 193.667 225.135C193.792 224.906 193.851 224.632 193.844 224.312H197.146C197.153 225.16 196.944 225.903 196.521 226.542C196.104 227.174 195.535 227.667 194.812 228.021C194.097 228.368 193.288 228.542 192.385 228.542C191.503 228.542 190.733 228.399 190.073 228.115C189.413 227.823 188.861 227.42 188.417 226.906C187.979 226.385 187.649 225.778 187.427 225.083C187.212 224.389 187.104 223.635 187.104 222.823V222.583C187.104 221.771 187.212 221.017 187.427 220.323C187.649 219.622 187.979 219.014 188.417 218.5C188.861 217.979 189.41 217.576 190.062 217.292C190.722 217 191.49 216.854 192.365 216.854C193.302 216.854 194.128 217.031 194.844 217.385C195.566 217.74 196.132 218.253 196.542 218.927C196.951 219.601 197.153 220.417 197.146 221.375H193.844C193.851 221.035 193.799 220.729 193.687 220.458C193.576 220.187 193.403 219.972 193.167 219.812C192.937 219.646 192.642 219.562 192.281 219.562C191.92 219.562 191.628 219.642 191.406 219.802C191.184 219.962 191.014 220.184 190.896 220.469C190.785 220.747 190.708 221.066 190.667 221.427C190.632 221.788 190.615 222.174 190.615 222.583V222.823C190.615 223.24 190.632 223.632 190.667 224C190.708 224.361 190.788 224.681 190.906 224.958C191.024 225.229 191.194 225.444 191.417 225.604C191.639 225.757 191.934 225.833 192.302 225.833ZM204.583 217.062V219.5H197.792V217.062H204.583ZM199.219 214.26H202.729V224.656C202.729 224.955 202.764 225.187 202.833 225.354C202.903 225.514 203.021 225.628 203.188 225.698C203.361 225.76 203.59 225.792 203.875 225.792C204.076 225.792 204.243 225.788 204.375 225.781C204.507 225.767 204.632 225.75 204.75 225.729V228.24C204.451 228.337 204.139 228.41 203.813 228.458C203.486 228.514 203.139 228.542 202.771 228.542C202.021 228.542 201.378 228.424 200.844 228.187C200.316 227.951 199.913 227.58 199.635 227.073C199.358 226.566 199.219 225.906 199.219 225.094V214.26ZM224.125 213.167V228.333H220.479L215.115 218.896V228.333H211.458V213.167H215.115L220.479 222.604V213.167H224.125ZM232.125 225.5V220.854C232.125 220.535 232.08 220.26 231.99 220.031C231.899 219.802 231.757 219.625 231.563 219.5C231.368 219.368 231.108 219.302 230.781 219.302C230.517 219.302 230.292 219.347 230.104 219.437C229.917 219.528 229.774 219.663 229.677 219.844C229.58 220.024 229.531 220.253 229.531 220.531H226.021C226.021 220.01 226.135 219.528 226.365 219.083C226.601 218.632 226.934 218.24 227.365 217.906C227.802 217.573 228.323 217.316 228.927 217.135C229.538 216.948 230.219 216.854 230.969 216.854C231.865 216.854 232.663 217.003 233.365 217.302C234.073 217.601 234.632 218.049 235.042 218.646C235.451 219.236 235.656 219.979 235.656 220.875V225.49C235.656 226.226 235.698 226.785 235.781 227.167C235.865 227.542 235.983 227.872 236.135 228.156V228.333H232.615C232.448 227.986 232.323 227.562 232.24 227.062C232.163 226.556 232.125 226.035 232.125 225.5ZM232.552 221.448L232.573 223.323H231.021C230.694 223.323 230.417 223.368 230.188 223.458C229.965 223.549 229.785 223.674 229.646 223.833C229.514 223.986 229.417 224.16 229.354 224.354C229.299 224.549 229.271 224.753 229.271 224.969C229.271 225.177 229.319 225.365 229.417 225.531C229.521 225.691 229.66 225.816 229.833 225.906C230.007 225.997 230.201 226.042 230.417 226.042C230.806 226.042 231.135 225.969 231.406 225.823C231.684 225.67 231.896 225.486 232.042 225.271C232.188 225.056 232.26 224.854 232.26 224.667L233.031 226.104C232.892 226.382 232.733 226.663 232.552 226.948C232.378 227.233 232.16 227.497 231.896 227.74C231.639 227.976 231.323 228.17 230.948 228.323C230.573 228.469 230.118 228.542 229.583 228.542C228.889 228.542 228.25 228.399 227.667 228.115C227.09 227.83 226.628 227.434 226.281 226.927C225.934 226.413 225.76 225.823 225.76 225.156C225.76 224.573 225.865 224.052 226.073 223.594C226.288 223.135 226.611 222.747 227.042 222.427C227.472 222.108 228.021 221.865 228.688 221.698C229.354 221.531 230.139 221.448 231.042 221.448H232.552ZM243.542 217.062V219.5H236.75V217.062H243.542ZM238.177 214.26H241.687V224.656C241.687 224.955 241.722 225.187 241.792 225.354C241.861 225.514 241.979 225.628 242.146 225.698C242.319 225.76 242.549 225.792 242.833 225.792C243.035 225.792 243.201 225.788 243.333 225.781C243.465 225.767 243.59 225.75 243.708 225.729V228.24C243.41 228.337 243.097 228.41 242.771 228.458C242.444 228.514 242.097 228.542 241.729 228.542C240.979 228.542 240.337 228.424 239.802 228.187C239.274 227.951 238.872 227.58 238.594 227.073C238.316 226.566 238.177 225.906 238.177 225.094V214.26ZM248.646 217.062V228.333H245.125V217.062H248.646ZM244.917 214.156C244.917 213.656 245.097 213.247 245.458 212.927C245.819 212.608 246.288 212.448 246.865 212.448C247.441 212.448 247.91 212.608 248.271 212.927C248.632 213.247 248.813 213.656 248.813 214.156C248.813 214.656 248.632 215.066 248.271 215.385C247.91 215.705 247.441 215.865 246.865 215.865C246.288 215.865 245.819 215.705 245.458 215.385C245.097 215.066 244.917 214.656 244.917 214.156ZM254.875 225.927L257.094 217.062H260.792L257.104 228.333H254.917L254.875 225.927ZM253.563 217.062L255.75 225.927L255.729 228.333H253.531L249.854 217.062H253.563ZM267.146 228.542C266.229 228.542 265.41 228.399 264.688 228.115C263.965 227.823 263.354 227.424 262.854 226.917C262.361 226.41 261.983 225.826 261.719 225.167C261.462 224.507 261.333 223.809 261.333 223.073V222.677C261.333 221.851 261.448 221.087 261.677 220.385C261.906 219.677 262.247 219.059 262.698 218.531C263.149 218.003 263.715 217.594 264.396 217.302C265.076 217.003 265.868 216.854 266.771 216.854C267.569 216.854 268.285 216.983 268.917 217.24C269.549 217.497 270.083 217.865 270.521 218.344C270.965 218.823 271.302 219.403 271.531 220.083C271.767 220.764 271.885 221.528 271.885 222.375V223.802H262.677V221.604H268.458V221.333C268.465 220.958 268.399 220.639 268.26 220.375C268.128 220.111 267.934 219.91 267.677 219.771C267.42 219.632 267.108 219.562 266.74 219.562C266.358 219.562 266.042 219.646 265.792 219.812C265.549 219.979 265.358 220.208 265.219 220.5C265.087 220.785 264.993 221.115 264.938 221.49C264.882 221.865 264.854 222.26 264.854 222.677V223.073C264.854 223.49 264.91 223.868 265.021 224.208C265.139 224.549 265.306 224.84 265.521 225.083C265.743 225.319 266.007 225.503 266.313 225.635C266.625 225.767 266.979 225.833 267.375 225.833C267.854 225.833 268.326 225.743 268.792 225.562C269.257 225.382 269.656 225.083 269.99 224.667L271.583 226.562C271.354 226.889 271.028 227.205 270.604 227.51C270.188 227.816 269.688 228.066 269.104 228.26C268.521 228.448 267.868 228.542 267.146 228.542Z" fill="white"/>
<rect x="339" y="196.333" width="208" height="49.3333" rx="4.66667" fill="#888888" stroke="#888888" stroke-width="4"/>
<path d="M418.844 213.167V228.333H415.198L409.833 218.896V228.333H406.177V213.167H409.833L415.198 222.604V213.167H418.844ZM420.552 222.812V222.594C420.552 221.767 420.67 221.007 420.906 220.312C421.142 219.611 421.49 219.003 421.948 218.49C422.406 217.976 422.972 217.576 423.646 217.292C424.319 217 425.097 216.854 425.979 216.854C426.868 216.854 427.649 217 428.323 217.292C429.003 217.576 429.573 217.976 430.031 218.49C430.49 219.003 430.837 219.611 431.073 220.312C431.309 221.007 431.427 221.767 431.427 222.594V222.812C431.427 223.632 431.309 224.392 431.073 225.094C430.837 225.788 430.49 226.396 430.031 226.917C429.573 227.431 429.007 227.83 428.333 228.115C427.66 228.399 426.882 228.542 426 228.542C425.118 228.542 424.337 228.399 423.656 228.115C422.976 227.83 422.406 227.431 421.948 226.917C421.49 226.396 421.142 225.788 420.906 225.094C420.67 224.392 420.552 223.632 420.552 222.812ZM424.062 222.594V222.812C424.062 223.236 424.094 223.632 424.156 224C424.219 224.368 424.323 224.691 424.469 224.969C424.615 225.24 424.812 225.451 425.062 225.604C425.312 225.757 425.625 225.833 426 225.833C426.368 225.833 426.674 225.757 426.917 225.604C427.167 225.451 427.365 225.24 427.51 224.969C427.656 224.691 427.76 224.368 427.823 224C427.885 223.632 427.917 223.236 427.917 222.812V222.594C427.917 222.184 427.885 221.799 427.823 221.437C427.76 221.069 427.656 220.747 427.51 220.469C427.365 220.184 427.167 219.962 426.917 219.802C426.667 219.642 426.354 219.562 425.979 219.562C425.611 219.562 425.302 219.642 425.052 219.802C424.809 219.962 424.615 220.184 424.469 220.469C424.323 220.747 424.219 221.069 424.156 221.437C424.094 221.799 424.062 222.184 424.062 222.594ZM439.469 225.75V212.333H443V228.333H439.833L439.469 225.75ZM432.552 222.833V222.615C432.552 221.76 432.646 220.983 432.833 220.281C433.021 219.573 433.299 218.965 433.667 218.458C434.035 217.944 434.493 217.549 435.042 217.271C435.59 216.993 436.222 216.854 436.938 216.854C437.576 216.854 438.135 217.003 438.615 217.302C439.094 217.594 439.503 218.003 439.844 218.531C440.184 219.059 440.462 219.677 440.677 220.385C440.892 221.087 441.056 221.844 441.167 222.656V222.917C441.056 223.681 440.892 224.403 440.677 225.083C440.462 225.757 440.184 226.354 439.844 226.875C439.503 227.396 439.09 227.806 438.604 228.104C438.125 228.396 437.563 228.542 436.917 228.542C436.201 228.542 435.569 228.399 435.021 228.115C434.479 227.83 434.024 227.431 433.656 226.917C433.295 226.403 433.021 225.799 432.833 225.104C432.646 224.41 432.552 223.653 432.552 222.833ZM436.063 222.615V222.833C436.063 223.257 436.09 223.649 436.146 224.01C436.201 224.372 436.295 224.691 436.427 224.969C436.566 225.24 436.747 225.451 436.969 225.604C437.198 225.757 437.479 225.833 437.813 225.833C438.264 225.833 438.635 225.726 438.927 225.51C439.226 225.295 439.444 224.99 439.583 224.594C439.729 224.198 439.792 223.733 439.771 223.198V222.375C439.785 221.917 439.753 221.514 439.677 221.167C439.601 220.812 439.479 220.517 439.313 220.281C439.153 220.045 438.948 219.868 438.698 219.75C438.455 219.625 438.167 219.562 437.833 219.562C437.507 219.562 437.229 219.639 437 219.792C436.778 219.944 436.597 220.16 436.458 220.437C436.319 220.708 436.219 221.031 436.156 221.406C436.094 221.774 436.063 222.177 436.063 222.615ZM450.448 228.542C449.531 228.542 448.712 228.399 447.99 228.115C447.267 227.823 446.656 227.424 446.156 226.917C445.663 226.41 445.285 225.826 445.021 225.167C444.764 224.507 444.635 223.809 444.635 223.073V222.677C444.635 221.851 444.75 221.087 444.979 220.385C445.208 219.677 445.549 219.059 446 218.531C446.451 218.003 447.017 217.594 447.698 217.302C448.378 217.003 449.17 216.854 450.073 216.854C450.872 216.854 451.587 216.983 452.219 217.24C452.851 217.497 453.385 217.865 453.823 218.344C454.267 218.823 454.604 219.403 454.833 220.083C455.069 220.764 455.188 221.528 455.188 222.375V223.802H445.979V221.604H451.76V221.333C451.767 220.958 451.701 220.639 451.563 220.375C451.431 220.111 451.236 219.91 450.979 219.771C450.722 219.632 450.41 219.562 450.042 219.562C449.66 219.562 449.344 219.646 449.094 219.812C448.851 219.979 448.66 220.208 448.521 220.5C448.389 220.785 448.295 221.115 448.24 221.49C448.184 221.865 448.156 222.26 448.156 222.677V223.073C448.156 223.49 448.212 223.868 448.323 224.208C448.441 224.549 448.608 224.84 448.823 225.083C449.045 225.319 449.309 225.503 449.615 225.635C449.927 225.767 450.281 225.833 450.677 225.833C451.156 225.833 451.628 225.743 452.094 225.562C452.559 225.382 452.958 225.083 453.292 224.667L454.885 226.562C454.656 226.889 454.33 227.205 453.906 227.51C453.49 227.816 452.99 228.066 452.406 228.26C451.823 228.448 451.17 228.542 450.448 228.542ZM462.813 223.573V213.167H466.458V223.573C466.458 224.587 466.226 225.465 465.76 226.208C465.302 226.951 464.677 227.528 463.885 227.937C463.101 228.34 462.219 228.542 461.24 228.542C460.226 228.542 459.323 228.372 458.531 228.031C457.747 227.691 457.128 227.167 456.677 226.458C456.233 225.75 456.01 224.847 456.01 223.75H459.677C459.677 224.264 459.736 224.667 459.854 224.958C459.972 225.243 460.146 225.444 460.375 225.562C460.611 225.674 460.899 225.729 461.24 225.729C461.573 225.729 461.854 225.646 462.083 225.479C462.319 225.306 462.5 225.059 462.625 224.74C462.75 224.413 462.813 224.024 462.813 223.573ZM476.594 224.302C476.594 224.066 476.559 223.854 476.49 223.667C476.42 223.472 476.292 223.292 476.104 223.125C475.917 222.958 475.646 222.792 475.292 222.625C474.944 222.451 474.486 222.271 473.917 222.083C473.25 221.861 472.608 221.611 471.99 221.333C471.372 221.049 470.819 220.719 470.333 220.344C469.847 219.962 469.462 219.517 469.177 219.01C468.892 218.497 468.75 217.899 468.75 217.219C468.75 216.566 468.896 215.979 469.188 215.458C469.479 214.931 469.885 214.483 470.406 214.115C470.934 213.74 471.552 213.455 472.26 213.26C472.969 213.059 473.743 212.958 474.583 212.958C475.694 212.958 476.674 213.153 477.521 213.542C478.375 213.924 479.042 214.469 479.521 215.177C480.007 215.878 480.25 216.708 480.25 217.667H476.615C476.615 217.285 476.535 216.948 476.375 216.656C476.222 216.365 475.99 216.135 475.677 215.969C475.365 215.802 474.972 215.719 474.5 215.719C474.042 215.719 473.656 215.788 473.344 215.927C473.031 216.066 472.795 216.253 472.635 216.49C472.476 216.719 472.396 216.972 472.396 217.25C472.396 217.479 472.458 217.687 472.583 217.875C472.715 218.056 472.899 218.226 473.135 218.385C473.378 218.545 473.67 218.698 474.01 218.844C474.358 218.99 474.747 219.132 475.177 219.271C475.983 219.528 476.698 219.816 477.323 220.135C477.955 220.448 478.486 220.806 478.917 221.208C479.354 221.604 479.684 222.056 479.906 222.562C480.135 223.069 480.25 223.642 480.25 224.281C480.25 224.962 480.118 225.566 479.854 226.094C479.59 226.622 479.212 227.069 478.719 227.437C478.226 227.799 477.635 228.073 476.948 228.26C476.26 228.448 475.493 228.542 474.646 228.542C473.868 228.542 473.101 228.444 472.344 228.25C471.594 228.049 470.913 227.743 470.302 227.333C469.691 226.917 469.201 226.385 468.833 225.74C468.472 225.087 468.292 224.312 468.292 223.417H471.958C471.958 223.861 472.017 224.236 472.135 224.542C472.253 224.847 472.427 225.094 472.656 225.281C472.885 225.462 473.167 225.594 473.5 225.677C473.833 225.753 474.215 225.792 474.646 225.792C475.111 225.792 475.486 225.726 475.771 225.594C476.056 225.455 476.264 225.274 476.396 225.052C476.528 224.823 476.594 224.573 476.594 224.302Z" fill="white"/>
<rect x="571" y="196.333" width="208" height="49.3333" rx="4.66667" fill="#888888" stroke="#888888" stroke-width="4"/>
<path d="M635.75 225.521V228.333H627.667V225.521H635.75ZM628.969 213.167V228.333H625.313V213.167H628.969ZM634.708 219.187V221.906H627.667V219.187H634.708ZM635.781 213.167V215.99H627.667V213.167H635.781ZM640.063 217.062L641.646 220.167L643.281 217.062H646.927L643.969 222.552L647.083 228.333H643.406L641.646 225L639.896 228.333H636.219L639.333 222.552L636.385 217.062H640.063ZM651.625 219.229V232.667H648.115V217.062H651.385L651.625 219.229ZM658.542 222.562V222.781C658.542 223.601 658.448 224.361 658.26 225.062C658.073 225.764 657.795 226.375 657.427 226.896C657.059 227.417 656.601 227.823 656.052 228.115C655.51 228.399 654.882 228.542 654.167 228.542C653.493 228.542 652.913 228.392 652.427 228.094C651.941 227.795 651.535 227.382 651.208 226.854C650.882 226.326 650.618 225.722 650.417 225.042C650.215 224.361 650.056 223.642 649.938 222.885V222.604C650.056 221.792 650.215 221.038 650.417 220.344C650.618 219.642 650.882 219.031 651.208 218.51C651.535 217.99 651.938 217.583 652.417 217.292C652.903 217 653.483 216.854 654.156 216.854C654.872 216.854 655.5 216.99 656.042 217.26C656.59 217.531 657.049 217.92 657.417 218.427C657.792 218.927 658.073 219.528 658.26 220.229C658.448 220.931 658.542 221.708 658.542 222.562ZM655.031 222.781V222.562C655.031 222.125 655 221.726 654.938 221.365C654.875 220.997 654.774 220.677 654.635 220.406C654.503 220.135 654.326 219.927 654.104 219.781C653.882 219.635 653.608 219.562 653.281 219.562C652.906 219.562 652.59 219.622 652.333 219.74C652.083 219.851 651.882 220.024 651.729 220.26C651.583 220.49 651.479 220.778 651.417 221.125C651.361 221.465 651.337 221.865 651.344 222.323V223.177C651.33 223.705 651.382 224.17 651.5 224.573C651.618 224.969 651.823 225.278 652.115 225.5C652.406 225.722 652.802 225.833 653.302 225.833C653.635 225.833 653.913 225.757 654.135 225.604C654.358 225.444 654.535 225.226 654.667 224.948C654.799 224.663 654.892 224.337 654.948 223.969C655.003 223.601 655.031 223.205 655.031 222.781ZM663.646 219.854V228.333H660.135V217.062H663.417L663.646 219.854ZM666.979 216.979L666.917 220.24C666.778 220.226 666.59 220.208 666.354 220.187C666.118 220.167 665.92 220.156 665.76 220.156C665.351 220.156 664.997 220.205 664.698 220.302C664.406 220.392 664.163 220.531 663.969 220.719C663.781 220.899 663.642 221.128 663.552 221.406C663.469 221.684 663.431 222.007 663.438 222.375L662.802 221.958C662.802 221.201 662.875 220.514 663.021 219.896C663.174 219.271 663.389 218.733 663.667 218.281C663.944 217.823 664.281 217.472 664.677 217.229C665.073 216.979 665.517 216.854 666.01 216.854C666.184 216.854 666.354 216.865 666.521 216.885C666.694 216.906 666.847 216.937 666.979 216.979ZM673.438 228.542C672.521 228.542 671.701 228.399 670.979 228.115C670.257 227.823 669.646 227.424 669.146 226.917C668.653 226.41 668.274 225.826 668.01 225.167C667.753 224.507 667.625 223.809 667.625 223.073V222.677C667.625 221.851 667.74 221.087 667.969 220.385C668.198 219.677 668.538 219.059 668.99 218.531C669.441 218.003 670.007 217.594 670.688 217.302C671.368 217.003 672.16 216.854 673.063 216.854C673.861 216.854 674.576 216.983 675.208 217.24C675.84 217.497 676.375 217.865 676.813 218.344C677.257 218.823 677.594 219.403 677.823 220.083C678.059 220.764 678.177 221.528 678.177 222.375V223.802H668.969V221.604H674.75V221.333C674.757 220.958 674.691 220.639 674.552 220.375C674.42 220.111 674.226 219.91 673.969 219.771C673.712 219.632 673.399 219.562 673.031 219.562C672.649 219.562 672.333 219.646 672.083 219.812C671.84 219.979 671.649 220.208 671.51 220.5C671.378 220.785 671.285 221.115 671.229 221.49C671.174 221.865 671.146 222.26 671.146 222.677V223.073C671.146 223.49 671.201 223.868 671.313 224.208C671.431 224.549 671.597 224.84 671.813 225.083C672.035 225.319 672.299 225.503 672.604 225.635C672.917 225.767 673.271 225.833 673.667 225.833C674.146 225.833 674.618 225.743 675.083 225.562C675.549 225.382 675.948 225.083 676.281 224.667L677.875 226.562C677.646 226.889 677.319 227.205 676.896 227.51C676.479 227.816 675.979 228.066 675.396 228.26C674.813 228.448 674.16 228.542 673.438 228.542ZM685.51 225.167C685.51 224.972 685.444 224.806 685.313 224.667C685.188 224.521 684.965 224.389 684.646 224.271C684.326 224.146 683.878 224.021 683.302 223.896C682.753 223.778 682.236 223.622 681.75 223.427C681.271 223.233 680.851 222.997 680.49 222.719C680.128 222.441 679.844 222.111 679.635 221.729C679.434 221.347 679.333 220.91 679.333 220.417C679.333 219.937 679.434 219.486 679.635 219.062C679.844 218.632 680.146 218.253 680.542 217.927C680.944 217.594 681.434 217.333 682.01 217.146C682.587 216.951 683.243 216.854 683.979 216.854C684.993 216.854 685.868 217.01 686.604 217.323C687.34 217.628 687.906 218.059 688.302 218.615C688.705 219.163 688.906 219.799 688.906 220.521H685.396C685.396 220.236 685.347 219.993 685.25 219.792C685.16 219.59 685.01 219.437 684.802 219.333C684.594 219.222 684.316 219.167 683.969 219.167C683.726 219.167 683.503 219.212 683.302 219.302C683.108 219.392 682.951 219.517 682.833 219.677C682.715 219.837 682.656 220.024 682.656 220.24C682.656 220.392 682.691 220.531 682.76 220.656C682.837 220.774 682.951 220.885 683.104 220.99C683.257 221.087 683.451 221.177 683.688 221.26C683.924 221.337 684.208 221.406 684.542 221.469C685.299 221.608 686.007 221.806 686.667 222.062C687.326 222.319 687.861 222.684 688.271 223.156C688.688 223.628 688.896 224.264 688.896 225.062C688.896 225.562 688.781 226.024 688.552 226.448C688.323 226.865 687.993 227.233 687.563 227.552C687.132 227.865 686.615 228.108 686.01 228.281C685.406 228.455 684.726 228.542 683.969 228.542C682.892 228.542 681.983 228.351 681.24 227.969C680.497 227.58 679.934 227.094 679.552 226.51C679.177 225.92 678.99 225.323 678.99 224.719H682.26C682.274 225.066 682.358 225.351 682.51 225.573C682.67 225.795 682.882 225.958 683.146 226.062C683.41 226.167 683.715 226.219 684.063 226.219C684.382 226.219 684.646 226.174 684.854 226.083C685.069 225.993 685.233 225.872 685.344 225.719C685.455 225.559 685.51 225.375 685.51 225.167ZM696.448 225.167C696.448 224.972 696.382 224.806 696.25 224.667C696.125 224.521 695.903 224.389 695.583 224.271C695.264 224.146 694.816 224.021 694.24 223.896C693.691 223.778 693.174 223.622 692.688 223.427C692.208 223.233 691.788 222.997 691.427 222.719C691.066 222.441 690.781 222.111 690.573 221.729C690.372 221.347 690.271 220.91 690.271 220.417C690.271 219.937 690.372 219.486 690.573 219.062C690.781 218.632 691.083 218.253 691.479 217.927C691.882 217.594 692.372 217.333 692.948 217.146C693.524 216.951 694.181 216.854 694.917 216.854C695.931 216.854 696.806 217.01 697.542 217.323C698.278 217.628 698.844 218.059 699.24 218.615C699.642 219.163 699.844 219.799 699.844 220.521H696.333C696.333 220.236 696.285 219.993 696.188 219.792C696.097 219.59 695.948 219.437 695.74 219.333C695.531 219.222 695.253 219.167 694.906 219.167C694.663 219.167 694.441 219.212 694.24 219.302C694.045 219.392 693.889 219.517 693.771 219.677C693.653 219.837 693.594 220.024 693.594 220.24C693.594 220.392 693.628 220.531 693.698 220.656C693.774 220.774 693.889 220.885 694.042 220.99C694.194 221.087 694.389 221.177 694.625 221.26C694.861 221.337 695.146 221.406 695.479 221.469C696.236 221.608 696.944 221.806 697.604 222.062C698.264 222.319 698.799 222.684 699.208 223.156C699.625 223.628 699.833 224.264 699.833 225.062C699.833 225.562 699.719 226.024 699.49 226.448C699.26 226.865 698.931 227.233 698.5 227.552C698.069 227.865 697.552 228.108 696.948 228.281C696.344 228.455 695.663 228.542 694.906 228.542C693.83 228.542 692.92 228.351 692.177 227.969C691.434 227.58 690.872 227.094 690.49 226.51C690.115 225.92 689.927 225.323 689.927 224.719H693.198C693.212 225.066 693.295 225.351 693.448 225.573C693.608 225.795 693.819 225.958 694.083 226.062C694.347 226.167 694.653 226.219 695 226.219C695.319 226.219 695.583 226.174 695.792 226.083C696.007 225.993 696.17 225.872 696.281 225.719C696.392 225.559 696.448 225.375 696.448 225.167ZM707.677 223.573V213.167H711.323V223.573C711.323 224.587 711.09 225.465 710.625 226.208C710.167 226.951 709.542 227.528 708.75 227.937C707.965 228.34 707.083 228.542 706.104 228.542C705.09 228.542 704.188 228.372 703.396 228.031C702.611 227.691 701.993 227.167 701.542 226.458C701.097 225.75 700.875 224.847 700.875 223.75H704.542C704.542 224.264 704.601 224.667 704.719 224.958C704.837 225.243 705.01 225.444 705.24 225.562C705.476 225.674 705.764 225.729 706.104 225.729C706.438 225.729 706.719 225.646 706.948 225.479C707.184 225.306 707.365 225.059 707.49 224.74C707.615 224.413 707.677 224.024 707.677 223.573ZM721.458 224.302C721.458 224.066 721.424 223.854 721.354 223.667C721.285 223.472 721.156 223.292 720.969 223.125C720.781 222.958 720.51 222.792 720.156 222.625C719.809 222.451 719.351 222.271 718.781 222.083C718.115 221.861 717.472 221.611 716.854 221.333C716.236 221.049 715.684 220.719 715.198 220.344C714.712 219.962 714.326 219.517 714.042 219.01C713.757 218.497 713.615 217.899 713.615 217.219C713.615 216.566 713.76 215.979 714.052 215.458C714.344 214.931 714.75 214.483 715.271 214.115C715.799 213.74 716.417 213.455 717.125 213.26C717.833 213.059 718.608 212.958 719.448 212.958C720.559 212.958 721.538 213.153 722.385 213.542C723.24 213.924 723.906 214.469 724.385 215.177C724.872 215.878 725.115 216.708 725.115 217.667H721.479C721.479 217.285 721.399 216.948 721.24 216.656C721.087 216.365 720.854 216.135 720.542 215.969C720.229 215.802 719.837 215.719 719.365 215.719C718.906 215.719 718.521 215.788 718.208 215.927C717.896 216.066 717.66 216.253 717.5 216.49C717.34 216.719 717.26 216.972 717.26 217.25C717.26 217.479 717.323 217.687 717.448 217.875C717.58 218.056 717.764 218.226 718 218.385C718.243 218.545 718.535 218.698 718.875 218.844C719.222 218.99 719.611 219.132 720.042 219.271C720.847 219.528 721.563 219.816 722.188 220.135C722.819 220.448 723.351 220.806 723.781 221.208C724.219 221.604 724.549 222.056 724.771 222.562C725 223.069 725.115 223.642 725.115 224.281C725.115 224.962 724.983 225.566 724.719 226.094C724.455 226.622 724.076 227.069 723.583 227.437C723.09 227.799 722.5 228.073 721.813 228.26C721.125 228.448 720.358 228.542 719.51 228.542C718.733 228.542 717.965 228.444 717.208 228.25C716.458 228.049 715.778 227.743 715.167 227.333C714.556 226.917 714.066 226.385 713.698 225.74C713.337 225.087 713.156 224.312 713.156 223.417H716.823C716.823 223.861 716.882 224.236 717 224.542C717.118 224.847 717.292 225.094 717.521 225.281C717.75 225.462 718.031 225.594 718.365 225.677C718.698 225.753 719.08 225.792 719.51 225.792C719.976 225.792 720.351 225.726 720.635 225.594C720.92 225.455 721.128 225.274 721.26 225.052C721.392 224.823 721.458 224.573 721.458 224.302Z" fill="white"/>
<rect x="803" y="196.333" width="208" height="49.3333" rx="4.66667" fill="#888888" stroke="#888888" stroke-width="4"/>
<path d="M875.26 213.167H878.24L881.625 223.719L885.01 213.167H887.99L882.833 228.333H880.417L875.26 213.167ZM873.448 213.167H876.531L877.104 224.792V228.333H873.448V213.167ZM886.719 213.167H889.812V228.333H886.146V224.792L886.719 213.167ZM895.448 227.01L898.365 217.062H902.135L897.604 230.01C897.507 230.295 897.378 230.601 897.219 230.927C897.059 231.26 896.84 231.576 896.563 231.875C896.285 232.174 895.927 232.417 895.49 232.604C895.059 232.792 894.524 232.885 893.885 232.885C893.545 232.885 893.295 232.868 893.135 232.833C892.983 232.806 892.747 232.753 892.427 232.677V230.167C892.517 230.167 892.594 230.167 892.656 230.167C892.726 230.167 892.802 230.167 892.885 230.167C893.26 230.167 893.559 230.128 893.781 230.052C894.01 229.976 894.184 229.865 894.302 229.719C894.427 229.573 894.524 229.396 894.594 229.187L895.448 227.01ZM894.708 217.062L896.927 224.948L897.313 228.667H894.958L890.948 217.062H894.708ZM911.031 224.302C911.031 224.066 910.997 223.854 910.927 223.667C910.858 223.472 910.729 223.292 910.542 223.125C910.354 222.958 910.083 222.792 909.729 222.625C909.382 222.451 908.924 222.271 908.354 222.083C907.688 221.861 907.045 221.611 906.427 221.333C905.809 221.049 905.257 220.719 904.771 220.344C904.285 219.962 903.899 219.517 903.615 219.01C903.33 218.497 903.188 217.899 903.188 217.219C903.188 216.566 903.333 215.979 903.625 215.458C903.917 214.931 904.323 214.483 904.844 214.115C905.372 213.74 905.99 213.455 906.698 213.26C907.406 213.059 908.181 212.958 909.021 212.958C910.132 212.958 911.111 213.153 911.958 213.542C912.813 213.924 913.479 214.469 913.958 215.177C914.444 215.878 914.688 216.708 914.688 217.667H911.052C911.052 217.285 910.972 216.948 910.813 216.656C910.66 216.365 910.427 216.135 910.115 215.969C909.802 215.802 909.41 215.719 908.938 215.719C908.479 215.719 908.094 215.788 907.781 215.927C907.469 216.066 907.233 216.253 907.073 216.49C906.913 216.719 906.833 216.972 906.833 217.25C906.833 217.479 906.896 217.687 907.021 217.875C907.153 218.056 907.337 218.226 907.573 218.385C907.816 218.545 908.108 218.698 908.448 218.844C908.795 218.99 909.184 219.132 909.615 219.271C910.42 219.528 911.135 219.816 911.76 220.135C912.392 220.448 912.924 220.806 913.354 221.208C913.792 221.604 914.122 222.056 914.344 222.562C914.573 223.069 914.688 223.642 914.688 224.281C914.688 224.962 914.556 225.566 914.292 226.094C914.028 226.622 913.649 227.069 913.156 227.437C912.663 227.799 912.073 228.073 911.385 228.26C910.698 228.448 909.931 228.542 909.083 228.542C908.306 228.542 907.538 228.444 906.781 228.25C906.031 228.049 905.351 227.743 904.74 227.333C904.128 226.917 903.639 226.385 903.271 225.74C902.91 225.087 902.729 224.312 902.729 223.417H906.396C906.396 223.861 906.455 224.236 906.573 224.542C906.691 224.847 906.865 225.094 907.094 225.281C907.323 225.462 907.604 225.594 907.938 225.677C908.271 225.753 908.653 225.792 909.083 225.792C909.549 225.792 909.924 225.726 910.208 225.594C910.493 225.455 910.701 225.274 910.833 225.052C910.965 224.823 911.031 224.573 911.031 224.302ZM925.031 225.833L929.26 229.187L926.99 231.104L922.833 227.75L925.031 225.833ZM929.437 220.448V221.062C929.437 222.222 929.274 223.264 928.948 224.187C928.628 225.104 928.17 225.889 927.573 226.542C926.983 227.187 926.285 227.684 925.479 228.031C924.674 228.372 923.785 228.542 922.812 228.542C921.833 228.542 920.937 228.372 920.125 228.031C919.319 227.684 918.618 227.187 918.021 226.542C917.431 225.889 916.972 225.104 916.646 224.187C916.326 223.264 916.167 222.222 916.167 221.062V220.448C916.167 219.288 916.326 218.247 916.646 217.323C916.972 216.399 917.427 215.615 918.01 214.969C918.601 214.316 919.299 213.819 920.104 213.479C920.917 213.132 921.812 212.958 922.792 212.958C923.764 212.958 924.653 213.132 925.458 213.479C926.271 213.819 926.972 214.316 927.562 214.969C928.16 215.615 928.622 216.399 928.948 217.323C929.274 218.247 929.437 219.288 929.437 220.448ZM925.719 221.062V220.427C925.719 219.677 925.653 219.017 925.521 218.448C925.396 217.872 925.208 217.389 924.958 217C924.708 216.611 924.399 216.319 924.031 216.125C923.67 215.924 923.257 215.823 922.792 215.823C922.306 215.823 921.882 215.924 921.521 216.125C921.16 216.319 920.858 216.611 920.615 217C920.372 217.389 920.187 217.872 920.062 218.448C919.944 219.017 919.885 219.677 919.885 220.427V221.062C919.885 221.806 919.944 222.465 920.062 223.042C920.187 223.611 920.372 224.094 920.615 224.49C920.865 224.885 921.17 225.184 921.531 225.385C921.899 225.587 922.326 225.687 922.812 225.687C923.278 225.687 923.691 225.587 924.052 225.385C924.413 225.184 924.715 224.885 924.958 224.49C925.208 224.094 925.396 223.611 925.521 223.042C925.653 222.465 925.719 221.806 925.719 221.062ZM941.323 225.521V228.333H933.656V225.521H941.323ZM934.958 213.167V228.333H931.302V213.167H934.958Z" fill="white"/>
</svg>
