<svg width="1363" height="167" viewBox="0 0 1363 167" fill="none" xmlns="http://www.w3.org/2000/svg">
<rect width="1363" height="167" rx="15" fill="#F0F0F0"/>
<path d="M0 15C0 6.71573 6.71573 0 15 0H37V167H15C6.71573 167 0 160.284 0 152V15Z" fill="#424241"/>
<path d="M100.906 54.9219L93.3945 52.2383V49.0859L103.602 53.375V55.6367L100.906 54.9219ZM93.3945 57.1719L100.918 54.4297L103.602 53.7852V56.0352L93.3945 60.3242V57.1719ZM118.543 55.918H114.195V53.1758H118.543C119.215 53.1758 119.762 53.0664 120.184 52.8477C120.605 52.6211 120.914 52.3086 121.109 51.9102C121.305 51.5117 121.402 51.0625 121.402 50.5625C121.402 50.0547 121.305 49.582 121.109 49.1445C120.914 48.707 120.605 48.3555 120.184 48.0898C119.762 47.8242 119.215 47.6914 118.543 47.6914H115.414V62H111.898V44.9375H118.543C119.879 44.9375 121.023 45.1797 121.977 45.6641C122.938 46.1406 123.672 46.8008 124.18 47.6445C124.688 48.4883 124.941 49.4531 124.941 50.5391C124.941 51.6406 124.688 52.5938 124.18 53.3984C123.672 54.2031 122.938 54.8242 121.977 55.2617C121.023 55.6992 119.879 55.918 118.543 55.918ZM130.449 44V62H127.074V44H130.449ZM129.969 55.2148H129.043C129.051 54.332 129.168 53.5195 129.395 52.7773C129.621 52.0273 129.945 51.3789 130.367 50.832C130.789 50.2773 131.293 49.8477 131.879 49.543C132.473 49.2383 133.129 49.0859 133.848 49.0859C134.473 49.0859 135.039 49.1758 135.547 49.3555C136.062 49.5273 136.504 49.8086 136.871 50.1992C137.246 50.582 137.535 51.0859 137.738 51.7109C137.941 52.3359 138.043 53.0938 138.043 53.9844V62H134.645V53.9609C134.645 53.3984 134.562 52.957 134.398 52.6367C134.242 52.3086 134.012 52.0781 133.707 51.9453C133.41 51.8047 133.043 51.7344 132.605 51.7344C132.121 51.7344 131.707 51.8242 131.363 52.0039C131.027 52.1836 130.758 52.4336 130.555 52.7539C130.352 53.0664 130.203 53.4336 130.109 53.8555C130.016 54.2773 129.969 54.7305 129.969 55.2148ZM144.371 60.5703L147.734 49.3203H151.355L146.258 63.9102C146.148 64.2305 146 64.5742 145.812 64.9414C145.633 65.3086 145.387 65.6562 145.074 65.9844C144.77 66.3203 144.383 66.5938 143.914 66.8047C143.453 67.0156 142.887 67.1211 142.215 67.1211C141.895 67.1211 141.633 67.1016 141.43 67.0625C141.227 67.0234 140.984 66.9688 140.703 66.8984V64.4258C140.789 64.4258 140.879 64.4258 140.973 64.4258C141.066 64.4336 141.156 64.4375 141.242 64.4375C141.688 64.4375 142.051 64.3867 142.332 64.2852C142.613 64.1836 142.84 64.0273 143.012 63.8164C143.184 63.6133 143.32 63.3477 143.422 63.0195L144.371 60.5703ZM142.965 49.3203L145.719 58.5078L146.199 62.082L143.902 62.3281L139.344 49.3203H142.965ZM159.559 58.4961C159.559 58.2539 159.488 58.0352 159.348 57.8398C159.207 57.6445 158.945 57.4648 158.562 57.3008C158.188 57.1289 157.645 56.9727 156.934 56.832C156.293 56.6914 155.695 56.5156 155.141 56.3047C154.594 56.0859 154.117 55.8242 153.711 55.5195C153.312 55.2148 153 54.8555 152.773 54.4414C152.547 54.0195 152.434 53.5391 152.434 53C152.434 52.4688 152.547 51.9688 152.773 51.5C153.008 51.0312 153.34 50.6172 153.77 50.2578C154.207 49.8906 154.738 49.6055 155.363 49.4023C155.996 49.1914 156.707 49.0859 157.496 49.0859C158.598 49.0859 159.543 49.2617 160.332 49.6133C161.129 49.9648 161.738 50.4492 162.16 51.0664C162.59 51.6758 162.805 52.3711 162.805 53.1523H159.43C159.43 52.8242 159.359 52.5312 159.219 52.2734C159.086 52.0078 158.875 51.8008 158.586 51.6523C158.305 51.4961 157.938 51.418 157.484 51.418C157.109 51.418 156.785 51.4844 156.512 51.6172C156.238 51.7422 156.027 51.9141 155.879 52.1328C155.738 52.3438 155.668 52.5781 155.668 52.8359C155.668 53.0312 155.707 53.207 155.785 53.3633C155.871 53.5117 156.008 53.6484 156.195 53.7734C156.383 53.8984 156.625 54.0156 156.922 54.125C157.227 54.2266 157.602 54.3203 158.047 54.4062C158.961 54.5938 159.777 54.8398 160.496 55.1445C161.215 55.4414 161.785 55.8477 162.207 56.3633C162.629 56.8711 162.84 57.5391 162.84 58.3672C162.84 58.9297 162.715 59.4453 162.465 59.9141C162.215 60.3828 161.855 60.793 161.387 61.1445C160.918 61.4883 160.355 61.7578 159.699 61.9531C159.051 62.1406 158.32 62.2344 157.508 62.2344C156.328 62.2344 155.328 62.0234 154.508 61.6016C153.695 61.1797 153.078 60.6445 152.656 59.9961C152.242 59.3398 152.035 58.668 152.035 57.9805H155.234C155.25 58.4414 155.367 58.8125 155.586 59.0938C155.812 59.375 156.098 59.5781 156.441 59.7031C156.793 59.8281 157.172 59.8906 157.578 59.8906C158.016 59.8906 158.379 59.832 158.668 59.7148C158.957 59.5898 159.176 59.4258 159.324 59.2227C159.48 59.0117 159.559 58.7695 159.559 58.4961ZM168.594 49.3203V62H165.207V49.3203H168.594ZM164.996 46.0156C164.996 45.5234 165.168 45.1172 165.512 44.7969C165.855 44.4766 166.316 44.3164 166.895 44.3164C167.465 44.3164 167.922 44.4766 168.266 44.7969C168.617 45.1172 168.793 45.5234 168.793 46.0156C168.793 46.5078 168.617 46.9141 168.266 47.2344C167.922 47.5547 167.465 47.7148 166.895 47.7148C166.316 47.7148 165.855 47.5547 165.512 47.2344C165.168 46.9141 164.996 46.5078 164.996 46.0156ZM170.844 55.7891V55.543C170.844 54.6133 170.977 53.7578 171.242 52.9766C171.508 52.1875 171.895 51.5039 172.402 50.9258C172.91 50.3477 173.535 49.8984 174.277 49.5781C175.02 49.25 175.871 49.0859 176.832 49.0859C177.793 49.0859 178.648 49.25 179.398 49.5781C180.148 49.8984 180.777 50.3477 181.285 50.9258C181.801 51.5039 182.191 52.1875 182.457 52.9766C182.723 53.7578 182.855 54.6133 182.855 55.543V55.7891C182.855 56.7109 182.723 57.5664 182.457 58.3555C182.191 59.1367 181.801 59.8203 181.285 60.4062C180.777 60.9844 180.152 61.4336 179.41 61.7539C178.668 62.0742 177.816 62.2344 176.855 62.2344C175.895 62.2344 175.039 62.0742 174.289 61.7539C173.547 61.4336 172.918 60.9844 172.402 60.4062C171.895 59.8203 171.508 59.1367 171.242 58.3555C170.977 57.5664 170.844 56.7109 170.844 55.7891ZM174.219 55.543V55.7891C174.219 56.3203 174.266 56.8164 174.359 57.2773C174.453 57.7383 174.602 58.1445 174.805 58.4961C175.016 58.8398 175.289 59.1094 175.625 59.3047C175.961 59.5 176.371 59.5977 176.855 59.5977C177.324 59.5977 177.727 59.5 178.062 59.3047C178.398 59.1094 178.668 58.8398 178.871 58.4961C179.074 58.1445 179.223 57.7383 179.316 57.2773C179.418 56.8164 179.469 56.3203 179.469 55.7891V55.543C179.469 55.0273 179.418 54.543 179.316 54.0898C179.223 53.6289 179.07 53.2227 178.859 52.8711C178.656 52.5117 178.387 52.2305 178.051 52.0273C177.715 51.8242 177.309 51.7227 176.832 51.7227C176.355 51.7227 175.949 51.8242 175.613 52.0273C175.285 52.2305 175.016 52.5117 174.805 52.8711C174.602 53.2227 174.453 53.6289 174.359 54.0898C174.266 54.543 174.219 55.0273 174.219 55.543ZM195.031 56.3398H198.535C198.465 57.4883 198.148 58.5078 197.586 59.3984C197.031 60.2891 196.254 60.9844 195.254 61.4844C194.262 61.9844 193.066 62.2344 191.668 62.2344C190.574 62.2344 189.594 62.0469 188.727 61.6719C187.859 61.2891 187.117 60.7422 186.5 60.0312C185.891 59.3203 185.426 58.4609 185.105 57.4531C184.785 56.4453 184.625 55.3164 184.625 54.0664V52.8828C184.625 51.6328 184.789 50.5039 185.117 49.4961C185.453 48.4805 185.93 47.6172 186.547 46.9062C187.172 46.1953 187.918 45.6484 188.785 45.2656C189.652 44.8828 190.621 44.6914 191.691 44.6914C193.113 44.6914 194.312 44.9492 195.289 45.4648C196.273 45.9805 197.035 46.6914 197.574 47.5977C198.121 48.5039 198.449 49.5352 198.559 50.6914H195.043C195.004 50.0039 194.867 49.4219 194.633 48.9453C194.398 48.4609 194.043 48.0977 193.566 47.8555C193.098 47.6055 192.473 47.4805 191.691 47.4805C191.105 47.4805 190.594 47.5898 190.156 47.8086C189.719 48.0273 189.352 48.3594 189.055 48.8047C188.758 49.25 188.535 49.8125 188.387 50.4922C188.246 51.1641 188.176 51.9531 188.176 52.8594V54.0664C188.176 54.9492 188.242 55.7266 188.375 56.3984C188.508 57.0625 188.711 57.625 188.984 58.0859C189.266 58.5391 189.625 58.8828 190.062 59.1172C190.508 59.3438 191.043 59.457 191.668 59.457C192.402 59.457 193.008 59.3398 193.484 59.1055C193.961 58.8711 194.324 58.5234 194.574 58.0625C194.832 57.6016 194.984 57.0273 195.031 56.3398ZM207.477 59.1406V53.4922C207.477 53.0859 207.41 52.7383 207.277 52.4492C207.145 52.1523 206.938 51.9219 206.656 51.7578C206.383 51.5938 206.027 51.5117 205.59 51.5117C205.215 51.5117 204.891 51.5781 204.617 51.7109C204.344 51.8359 204.133 52.0195 203.984 52.2617C203.836 52.4961 203.762 52.7734 203.762 53.0938H200.387C200.387 52.5547 200.512 52.043 200.762 51.5586C201.012 51.0742 201.375 50.6484 201.852 50.2812C202.328 49.9062 202.895 49.6133 203.551 49.4023C204.215 49.1914 204.957 49.0859 205.777 49.0859C206.762 49.0859 207.637 49.25 208.402 49.5781C209.168 49.9062 209.77 50.3984 210.207 51.0547C210.652 51.7109 210.875 52.5312 210.875 53.5156V58.9414C210.875 59.6367 210.918 60.207 211.004 60.6523C211.09 61.0898 211.215 61.4727 211.379 61.8008V62H207.969C207.805 61.6562 207.68 61.2266 207.594 60.7109C207.516 60.1875 207.477 59.6641 207.477 59.1406ZM207.922 54.2773L207.945 56.1875H206.059C205.613 56.1875 205.227 56.2383 204.898 56.3398C204.57 56.4414 204.301 56.5859 204.09 56.7734C203.879 56.9531 203.723 57.1641 203.621 57.4062C203.527 57.6484 203.48 57.9141 203.48 58.2031C203.48 58.4922 203.547 58.7539 203.68 58.9883C203.812 59.2148 204.004 59.3945 204.254 59.5273C204.504 59.6523 204.797 59.7148 205.133 59.7148C205.641 59.7148 206.082 59.6133 206.457 59.4102C206.832 59.207 207.121 58.957 207.324 58.6602C207.535 58.3633 207.645 58.082 207.652 57.8164L208.543 59.2461C208.418 59.5664 208.246 59.8984 208.027 60.2422C207.816 60.5859 207.547 60.9102 207.219 61.2148C206.891 61.5117 206.496 61.7578 206.035 61.9531C205.574 62.1406 205.027 62.2344 204.395 62.2344C203.59 62.2344 202.859 62.0742 202.203 61.7539C201.555 61.4258 201.039 60.9766 200.656 60.4062C200.281 59.8281 200.094 59.1719 200.094 58.4375C200.094 57.7734 200.219 57.1836 200.469 56.668C200.719 56.1523 201.086 55.7188 201.57 55.3672C202.062 55.0078 202.676 54.7383 203.41 54.5586C204.145 54.3711 204.996 54.2773 205.965 54.2773H207.922ZM216.852 52.0859V62H213.477V49.3203H216.652L216.852 52.0859ZM220.672 49.2383L220.613 52.3672C220.449 52.3438 220.25 52.3242 220.016 52.3086C219.789 52.2852 219.582 52.2734 219.395 52.2734C218.918 52.2734 218.504 52.3359 218.152 52.4609C217.809 52.5781 217.52 52.7539 217.285 52.9883C217.059 53.2227 216.887 53.5078 216.77 53.8438C216.66 54.1797 216.598 54.5625 216.582 54.9922L215.902 54.7812C215.902 53.9609 215.984 53.207 216.148 52.5195C216.312 51.8242 216.551 51.2188 216.863 50.7031C217.184 50.1875 217.574 49.7891 218.035 49.5078C218.496 49.2266 219.023 49.0859 219.617 49.0859C219.805 49.0859 219.996 49.1016 220.191 49.1328C220.387 49.1562 220.547 49.1914 220.672 49.2383ZM227.867 62.2344C226.883 62.2344 226 62.0781 225.219 61.7656C224.438 61.4453 223.773 61.0039 223.227 60.4414C222.688 59.8789 222.273 59.2266 221.984 58.4844C221.695 57.7344 221.551 56.9375 221.551 56.0938V55.625C221.551 54.6641 221.688 53.7852 221.961 52.9883C222.234 52.1914 222.625 51.5 223.133 50.9141C223.648 50.3281 224.273 49.8789 225.008 49.5664C225.742 49.2461 226.57 49.0859 227.492 49.0859C228.391 49.0859 229.188 49.2344 229.883 49.5312C230.578 49.8281 231.16 50.25 231.629 50.7969C232.105 51.3438 232.465 52 232.707 52.7656C232.949 53.5234 233.07 54.3672 233.07 55.2969V56.7031H222.992V54.4531H229.754V54.1953C229.754 53.7266 229.668 53.3086 229.496 52.9414C229.332 52.5664 229.082 52.2695 228.746 52.0508C228.41 51.832 227.98 51.7227 227.457 51.7227C227.012 51.7227 226.629 51.8203 226.309 52.0156C225.988 52.2109 225.727 52.4844 225.523 52.8359C225.328 53.1875 225.18 53.6016 225.078 54.0781C224.984 54.5469 224.938 55.0625 224.938 55.625V56.0938C224.938 56.6016 225.008 57.0703 225.148 57.5C225.297 57.9297 225.504 58.3008 225.77 58.6133C226.043 58.9258 226.371 59.168 226.754 59.3398C227.145 59.5117 227.586 59.5977 228.078 59.5977C228.688 59.5977 229.254 59.4805 229.777 59.2461C230.309 59.0039 230.766 58.6406 231.148 58.1562L232.789 59.9375C232.523 60.3203 232.16 60.6875 231.699 61.0391C231.246 61.3906 230.699 61.6797 230.059 61.9062C229.418 62.125 228.688 62.2344 227.867 62.2344Z" fill="#888888"/>
<path d="M115.994 98.708V104.641H99.5806V98.708H115.994ZM102.151 86.0078V118H94.439V86.0078H102.151ZM121.18 86.0078V118H113.489V86.0078H121.18ZM124.805 106.354V105.893C124.805 104.15 125.054 102.546 125.552 101.081C126.05 99.6016 126.783 98.3198 127.75 97.2358C128.716 96.1519 129.91 95.3096 131.331 94.709C132.752 94.0938 134.393 93.7861 136.253 93.7861C138.128 93.7861 139.776 94.0938 141.197 94.709C142.632 95.3096 143.833 96.1519 144.8 97.2358C145.767 98.3198 146.5 99.6016 146.998 101.081C147.496 102.546 147.745 104.15 147.745 105.893V106.354C147.745 108.083 147.496 109.687 146.998 111.167C146.5 112.631 145.767 113.913 144.8 115.012C143.833 116.096 142.64 116.938 141.219 117.539C139.798 118.139 138.157 118.439 136.297 118.439C134.437 118.439 132.789 118.139 131.353 117.539C129.917 116.938 128.716 116.096 127.75 115.012C126.783 113.913 126.05 112.631 125.552 111.167C125.054 109.687 124.805 108.083 124.805 106.354ZM132.21 105.893V106.354C132.21 107.248 132.276 108.083 132.408 108.859C132.54 109.636 132.759 110.317 133.067 110.903C133.375 111.474 133.792 111.921 134.319 112.243C134.847 112.565 135.506 112.727 136.297 112.727C137.073 112.727 137.718 112.565 138.23 112.243C138.758 111.921 139.175 111.474 139.483 110.903C139.791 110.317 140.01 109.636 140.142 108.859C140.274 108.083 140.34 107.248 140.34 106.354V105.893C140.34 105.029 140.274 104.216 140.142 103.454C140.01 102.678 139.791 101.997 139.483 101.411C139.175 100.81 138.758 100.341 138.23 100.004C137.703 99.6675 137.044 99.499 136.253 99.499C135.477 99.499 134.825 99.6675 134.297 100.004C133.785 100.341 133.375 100.81 133.067 101.411C132.759 101.997 132.54 102.678 132.408 103.454C132.276 104.216 132.21 105.029 132.21 105.893ZM158.27 110.925L162.664 94.2256H167.3L165.652 102.597L161.302 118H157.588L158.27 110.925ZM156.534 94.2256L159.258 110.793L159.566 118H155.062L149.437 94.2256H156.534ZM171.211 110.441L173.958 94.2256H181.055L175.474 118H170.97L171.211 110.441ZM167.828 94.2256L172.266 110.881L172.947 118H169.19L164.927 102.641L163.345 94.2256H167.828ZM209.466 86.0078V118H201.753V86.0078H209.466ZM219.09 86.0078V91.9624H192.349V86.0078H219.09ZM216.475 106.354V105.893C216.475 104.15 216.724 102.546 217.222 101.081C217.72 99.6016 218.453 98.3198 219.419 97.2358C220.386 96.1519 221.58 95.3096 223.001 94.709C224.422 94.0938 226.062 93.7861 227.923 93.7861C229.798 93.7861 231.446 94.0938 232.867 94.709C234.302 95.3096 235.503 96.1519 236.47 97.2358C237.437 98.3198 238.169 99.6016 238.667 101.081C239.166 102.546 239.415 104.15 239.415 105.893V106.354C239.415 108.083 239.166 109.687 238.667 111.167C238.169 112.631 237.437 113.913 236.47 115.012C235.503 116.096 234.31 116.938 232.889 117.539C231.468 118.139 229.827 118.439 227.967 118.439C226.106 118.439 224.458 118.139 223.023 117.539C221.587 116.938 220.386 116.096 219.419 115.012C218.453 113.913 217.72 112.631 217.222 111.167C216.724 109.687 216.475 108.083 216.475 106.354ZM223.88 105.893V106.354C223.88 107.248 223.946 108.083 224.078 108.859C224.209 109.636 224.429 110.317 224.737 110.903C225.044 111.474 225.462 111.921 225.989 112.243C226.517 112.565 227.176 112.727 227.967 112.727C228.743 112.727 229.388 112.565 229.9 112.243C230.428 111.921 230.845 111.474 231.153 110.903C231.46 110.317 231.68 109.636 231.812 108.859C231.944 108.083 232.01 107.248 232.01 106.354V105.893C232.01 105.029 231.944 104.216 231.812 103.454C231.68 102.678 231.46 101.997 231.153 101.411C230.845 100.81 230.428 100.341 229.9 100.004C229.373 99.6675 228.714 99.499 227.923 99.499C227.146 99.499 226.495 99.6675 225.967 100.004C225.455 100.341 225.044 100.81 224.737 101.411C224.429 101.997 224.209 102.678 224.078 103.454C223.946 104.216 223.88 105.029 223.88 105.893ZM254.268 86.0078H266.858C269.319 86.0078 271.458 86.374 273.274 87.1064C275.091 87.8389 276.49 88.9229 277.471 90.3584C278.467 91.7939 278.965 93.5664 278.965 95.6758C278.965 97.5068 278.68 99.0376 278.108 100.268C277.537 101.499 276.739 102.517 275.713 103.322C274.703 104.113 273.523 104.765 272.176 105.278L269.649 106.706H259.08L259.036 100.751H266.858C267.84 100.751 268.653 100.576 269.297 100.224C269.942 99.8726 270.425 99.3745 270.748 98.73C271.084 98.0708 271.253 97.2871 271.253 96.3789C271.253 95.4561 271.084 94.665 270.748 94.0059C270.411 93.3467 269.913 92.8413 269.253 92.4897C268.609 92.1382 267.811 91.9624 266.858 91.9624H261.98V118H254.268V86.0078ZM271.78 118L264.705 103.85L272.879 103.806L280.042 117.67V118H271.78ZM297.159 112.221V94.2256H304.585V118H297.642L297.159 112.221ZM297.862 107.387L299.795 107.343C299.795 108.94 299.605 110.419 299.224 111.782C298.843 113.129 298.279 114.301 297.532 115.297C296.8 116.293 295.892 117.07 294.808 117.626C293.738 118.168 292.5 118.439 291.094 118.439C289.922 118.439 288.846 118.278 287.864 117.956C286.897 117.619 286.062 117.099 285.359 116.396C284.656 115.678 284.107 114.763 283.711 113.649C283.331 112.521 283.14 111.174 283.14 109.606V94.2256H290.545V109.65C290.545 110.178 290.611 110.632 290.743 111.013C290.875 111.394 291.065 111.716 291.314 111.979C291.563 112.229 291.871 112.419 292.237 112.551C292.618 112.668 293.05 112.727 293.533 112.727C294.646 112.727 295.518 112.492 296.148 112.023C296.778 111.555 297.217 110.917 297.466 110.112C297.73 109.306 297.862 108.398 297.862 107.387ZM315.945 99.3013V118H308.541V94.2256H315.484L315.945 99.3013ZM315.066 105.3L313.331 105.344C313.331 103.527 313.55 101.909 313.99 100.488C314.429 99.0522 315.052 97.8364 315.857 96.8403C316.663 95.8442 317.623 95.0898 318.736 94.5771C319.864 94.0498 321.116 93.7861 322.493 93.7861C323.592 93.7861 324.595 93.9473 325.503 94.2695C326.426 94.5918 327.217 95.1118 327.876 95.8296C328.55 96.5474 329.063 97.4995 329.415 98.686C329.781 99.8579 329.964 101.308 329.964 103.037V118H322.515V103.015C322.515 102.062 322.383 101.337 322.12 100.839C321.856 100.327 321.475 99.9751 320.977 99.7847C320.479 99.5942 319.871 99.499 319.153 99.499C318.392 99.499 317.747 99.6455 317.22 99.9385C316.692 100.231 316.268 100.642 315.945 101.169C315.638 101.682 315.411 102.29 315.264 102.993C315.132 103.696 315.066 104.465 315.066 105.3ZM345.85 107.871H339.544C339.544 106.582 339.632 105.446 339.808 104.465C339.998 103.469 340.32 102.575 340.774 101.784C341.229 100.993 341.844 100.261 342.62 99.5869C343.309 99.0156 343.902 98.4663 344.4 97.939C344.898 97.4116 345.279 96.877 345.542 96.335C345.806 95.793 345.938 95.2144 345.938 94.5991C345.938 93.8374 345.828 93.2148 345.608 92.7314C345.403 92.248 345.088 91.8892 344.664 91.6548C344.253 91.4058 343.733 91.2812 343.104 91.2812C342.591 91.2812 342.107 91.4058 341.653 91.6548C341.214 91.9038 340.855 92.292 340.577 92.8193C340.298 93.332 340.145 94.0132 340.115 94.8628H332.667C332.71 92.6802 333.194 90.9077 334.117 89.5454C335.054 88.1685 336.299 87.165 337.852 86.5352C339.419 85.8906 341.17 85.5684 343.104 85.5684C345.242 85.5684 347.081 85.8979 348.619 86.5571C350.157 87.2163 351.336 88.1978 352.156 89.5015C352.977 90.7905 353.387 92.3799 353.387 94.2695C353.387 95.5293 353.145 96.6279 352.662 97.5654C352.193 98.4883 351.556 99.3525 350.75 100.158C349.959 100.949 349.073 101.799 348.091 102.707C347.242 103.454 346.663 104.216 346.355 104.992C346.048 105.754 345.879 106.713 345.85 107.871ZM338.643 114.55C338.643 113.496 339.024 112.617 339.786 111.914C340.547 111.196 341.536 110.837 342.752 110.837C343.968 110.837 344.957 111.196 345.718 111.914C346.48 112.617 346.861 113.496 346.861 114.55C346.861 115.605 346.48 116.491 345.718 117.209C344.957 117.912 343.968 118.264 342.752 118.264C341.536 118.264 340.547 117.912 339.786 117.209C339.024 116.491 338.643 115.605 338.643 114.55Z" fill="#424241"/>
<path d="M1363 15C1363 6.71573 1356.28 0 1348 0H1134V167H1348C1356.28 167 1363 160.284 1363 152V15Z" fill="#1A7C6B"/>
<path d="M1260.77 81.3079C1263.96 81.3079 1267.09 82.2553 1269.74 84.0303C1272.4 85.8053 1274.47 88.3282 1275.69 91.2799C1276.92 94.2316 1277.24 97.4796 1276.61 100.613C1275.99 103.747 1274.45 106.625 1272.19 108.884C1269.93 111.143 1267.05 112.682 1263.92 113.305C1260.79 113.928 1257.54 113.608 1254.59 112.386C1251.64 111.163 1249.11 109.093 1247.34 106.436C1245.56 103.78 1244.62 100.657 1244.62 97.4617C1244.62 93.1774 1246.32 89.0686 1249.35 86.0392C1252.38 83.0098 1256.48 81.3079 1260.77 81.3079ZM1260.77 75.9233C1256.51 75.9233 1252.35 77.1865 1248.8 79.5532C1245.26 81.9198 1242.5 85.2837 1240.87 89.2193C1239.24 93.1549 1238.81 97.4856 1239.64 101.664C1240.48 105.842 1242.53 109.679 1245.54 112.692C1248.55 115.704 1252.39 117.755 1256.57 118.586C1260.75 119.417 1265.08 118.991 1269.01 117.361C1272.95 115.73 1276.31 112.97 1278.68 109.428C1281.04 105.886 1282.31 101.722 1282.31 97.4617C1282.31 91.7493 1280.04 86.271 1276 82.2317C1271.96 78.1925 1266.48 75.9233 1260.77 75.9233Z" fill="white"/>
<path d="M1274.23 49H1220.38C1218.96 49 1217.59 49.5673 1216.58 50.5771C1215.57 51.5869 1215 52.9565 1215 54.3846V108.231C1215 109.659 1215.57 111.028 1216.58 112.038C1217.59 113.048 1218.96 113.615 1220.38 113.615H1231.15V108.231H1220.38V70.5384H1279.62V54.3846C1279.62 52.9565 1279.05 51.5869 1278.04 50.5771C1277.03 49.5673 1275.66 49 1274.23 49ZM1220.38 65.1538V54.3846H1274.23V65.1538H1220.38Z" fill="white"/>
<path d="M1255.38 89.3849V105.539L1268.85 97.4618L1255.38 89.3849Z" fill="white"/>
</svg>
