<svg width="1363" height="167" viewBox="0 0 1363 167" fill="none" xmlns="http://www.w3.org/2000/svg">
<rect width="1363" height="167" rx="15" fill="#F0F0F0"/>
<path d="M0 15C0 6.71573 6.71573 0 15 0H37V167H15C6.71573 167 0 160.284 0 152V15Z" fill="#424241"/>
<path d="M100.906 54.9219L93.3945 52.2383V49.0859L103.602 53.375V55.6367L100.906 54.9219ZM93.3945 57.1719L100.918 54.4297L103.602 53.7852V56.0352L93.3945 60.3242V57.1719ZM118.543 55.918H114.195V53.1758H118.543C119.215 53.1758 119.762 53.0664 120.184 52.8477C120.605 52.6211 120.914 52.3086 121.109 51.9102C121.305 51.5117 121.402 51.0625 121.402 50.5625C121.402 50.0547 121.305 49.582 121.109 49.1445C120.914 48.707 120.605 48.3555 120.184 48.0898C119.762 47.8242 119.215 47.6914 118.543 47.6914H115.414V62H111.898V44.9375H118.543C119.879 44.9375 121.023 45.1797 121.977 45.6641C122.938 46.1406 123.672 46.8008 124.18 47.6445C124.688 48.4883 124.941 49.4531 124.941 50.5391C124.941 51.6406 124.688 52.5938 124.18 53.3984C123.672 54.2031 122.938 54.8242 121.977 55.2617C121.023 55.6992 119.879 55.918 118.543 55.918ZM130.449 44V62H127.074V44H130.449ZM129.969 55.2148H129.043C129.051 54.332 129.168 53.5195 129.395 52.7773C129.621 52.0273 129.945 51.3789 130.367 50.832C130.789 50.2773 131.293 49.8477 131.879 49.543C132.473 49.2383 133.129 49.0859 133.848 49.0859C134.473 49.0859 135.039 49.1758 135.547 49.3555C136.062 49.5273 136.504 49.8086 136.871 50.1992C137.246 50.582 137.535 51.0859 137.738 51.7109C137.941 52.3359 138.043 53.0938 138.043 53.9844V62H134.645V53.9609C134.645 53.3984 134.562 52.957 134.398 52.6367C134.242 52.3086 134.012 52.0781 133.707 51.9453C133.41 51.8047 133.043 51.7344 132.605 51.7344C132.121 51.7344 131.707 51.8242 131.363 52.0039C131.027 52.1836 130.758 52.4336 130.555 52.7539C130.352 53.0664 130.203 53.4336 130.109 53.8555C130.016 54.2773 129.969 54.7305 129.969 55.2148ZM144.371 60.5703L147.734 49.3203H151.355L146.258 63.9102C146.148 64.2305 146 64.5742 145.812 64.9414C145.633 65.3086 145.387 65.6562 145.074 65.9844C144.77 66.3203 144.383 66.5938 143.914 66.8047C143.453 67.0156 142.887 67.1211 142.215 67.1211C141.895 67.1211 141.633 67.1016 141.43 67.0625C141.227 67.0234 140.984 66.9688 140.703 66.8984V64.4258C140.789 64.4258 140.879 64.4258 140.973 64.4258C141.066 64.4336 141.156 64.4375 141.242 64.4375C141.688 64.4375 142.051 64.3867 142.332 64.2852C142.613 64.1836 142.84 64.0273 143.012 63.8164C143.184 63.6133 143.32 63.3477 143.422 63.0195L144.371 60.5703ZM142.965 49.3203L145.719 58.5078L146.199 62.082L143.902 62.3281L139.344 49.3203H142.965ZM159.559 58.4961C159.559 58.2539 159.488 58.0352 159.348 57.8398C159.207 57.6445 158.945 57.4648 158.562 57.3008C158.188 57.1289 157.645 56.9727 156.934 56.832C156.293 56.6914 155.695 56.5156 155.141 56.3047C154.594 56.0859 154.117 55.8242 153.711 55.5195C153.312 55.2148 153 54.8555 152.773 54.4414C152.547 54.0195 152.434 53.5391 152.434 53C152.434 52.4688 152.547 51.9688 152.773 51.5C153.008 51.0312 153.34 50.6172 153.77 50.2578C154.207 49.8906 154.738 49.6055 155.363 49.4023C155.996 49.1914 156.707 49.0859 157.496 49.0859C158.598 49.0859 159.543 49.2617 160.332 49.6133C161.129 49.9648 161.738 50.4492 162.16 51.0664C162.59 51.6758 162.805 52.3711 162.805 53.1523H159.43C159.43 52.8242 159.359 52.5312 159.219 52.2734C159.086 52.0078 158.875 51.8008 158.586 51.6523C158.305 51.4961 157.938 51.418 157.484 51.418C157.109 51.418 156.785 51.4844 156.512 51.6172C156.238 51.7422 156.027 51.9141 155.879 52.1328C155.738 52.3438 155.668 52.5781 155.668 52.8359C155.668 53.0312 155.707 53.207 155.785 53.3633C155.871 53.5117 156.008 53.6484 156.195 53.7734C156.383 53.8984 156.625 54.0156 156.922 54.125C157.227 54.2266 157.602 54.3203 158.047 54.4062C158.961 54.5938 159.777 54.8398 160.496 55.1445C161.215 55.4414 161.785 55.8477 162.207 56.3633C162.629 56.8711 162.84 57.5391 162.84 58.3672C162.84 58.9297 162.715 59.4453 162.465 59.9141C162.215 60.3828 161.855 60.793 161.387 61.1445C160.918 61.4883 160.355 61.7578 159.699 61.9531C159.051 62.1406 158.32 62.2344 157.508 62.2344C156.328 62.2344 155.328 62.0234 154.508 61.6016C153.695 61.1797 153.078 60.6445 152.656 59.9961C152.242 59.3398 152.035 58.668 152.035 57.9805H155.234C155.25 58.4414 155.367 58.8125 155.586 59.0938C155.812 59.375 156.098 59.5781 156.441 59.7031C156.793 59.8281 157.172 59.8906 157.578 59.8906C158.016 59.8906 158.379 59.832 158.668 59.7148C158.957 59.5898 159.176 59.4258 159.324 59.2227C159.48 59.0117 159.559 58.7695 159.559 58.4961ZM168.594 49.3203V62H165.207V49.3203H168.594ZM164.996 46.0156C164.996 45.5234 165.168 45.1172 165.512 44.7969C165.855 44.4766 166.316 44.3164 166.895 44.3164C167.465 44.3164 167.922 44.4766 168.266 44.7969C168.617 45.1172 168.793 45.5234 168.793 46.0156C168.793 46.5078 168.617 46.9141 168.266 47.2344C167.922 47.5547 167.465 47.7148 166.895 47.7148C166.316 47.7148 165.855 47.5547 165.512 47.2344C165.168 46.9141 164.996 46.5078 164.996 46.0156ZM170.844 55.7891V55.543C170.844 54.6133 170.977 53.7578 171.242 52.9766C171.508 52.1875 171.895 51.5039 172.402 50.9258C172.91 50.3477 173.535 49.8984 174.277 49.5781C175.02 49.25 175.871 49.0859 176.832 49.0859C177.793 49.0859 178.648 49.25 179.398 49.5781C180.148 49.8984 180.777 50.3477 181.285 50.9258C181.801 51.5039 182.191 52.1875 182.457 52.9766C182.723 53.7578 182.855 54.6133 182.855 55.543V55.7891C182.855 56.7109 182.723 57.5664 182.457 58.3555C182.191 59.1367 181.801 59.8203 181.285 60.4062C180.777 60.9844 180.152 61.4336 179.41 61.7539C178.668 62.0742 177.816 62.2344 176.855 62.2344C175.895 62.2344 175.039 62.0742 174.289 61.7539C173.547 61.4336 172.918 60.9844 172.402 60.4062C171.895 59.8203 171.508 59.1367 171.242 58.3555C170.977 57.5664 170.844 56.7109 170.844 55.7891ZM174.219 55.543V55.7891C174.219 56.3203 174.266 56.8164 174.359 57.2773C174.453 57.7383 174.602 58.1445 174.805 58.4961C175.016 58.8398 175.289 59.1094 175.625 59.3047C175.961 59.5 176.371 59.5977 176.855 59.5977C177.324 59.5977 177.727 59.5 178.062 59.3047C178.398 59.1094 178.668 58.8398 178.871 58.4961C179.074 58.1445 179.223 57.7383 179.316 57.2773C179.418 56.8164 179.469 56.3203 179.469 55.7891V55.543C179.469 55.0273 179.418 54.543 179.316 54.0898C179.223 53.6289 179.07 53.2227 178.859 52.8711C178.656 52.5117 178.387 52.2305 178.051 52.0273C177.715 51.8242 177.309 51.7227 176.832 51.7227C176.355 51.7227 175.949 51.8242 175.613 52.0273C175.285 52.2305 175.016 52.5117 174.805 52.8711C174.602 53.2227 174.453 53.6289 174.359 54.0898C174.266 54.543 174.219 55.0273 174.219 55.543ZM195.031 56.3398H198.535C198.465 57.4883 198.148 58.5078 197.586 59.3984C197.031 60.2891 196.254 60.9844 195.254 61.4844C194.262 61.9844 193.066 62.2344 191.668 62.2344C190.574 62.2344 189.594 62.0469 188.727 61.6719C187.859 61.2891 187.117 60.7422 186.5 60.0312C185.891 59.3203 185.426 58.4609 185.105 57.4531C184.785 56.4453 184.625 55.3164 184.625 54.0664V52.8828C184.625 51.6328 184.789 50.5039 185.117 49.4961C185.453 48.4805 185.93 47.6172 186.547 46.9062C187.172 46.1953 187.918 45.6484 188.785 45.2656C189.652 44.8828 190.621 44.6914 191.691 44.6914C193.113 44.6914 194.312 44.9492 195.289 45.4648C196.273 45.9805 197.035 46.6914 197.574 47.5977C198.121 48.5039 198.449 49.5352 198.559 50.6914H195.043C195.004 50.0039 194.867 49.4219 194.633 48.9453C194.398 48.4609 194.043 48.0977 193.566 47.8555C193.098 47.6055 192.473 47.4805 191.691 47.4805C191.105 47.4805 190.594 47.5898 190.156 47.8086C189.719 48.0273 189.352 48.3594 189.055 48.8047C188.758 49.25 188.535 49.8125 188.387 50.4922C188.246 51.1641 188.176 51.9531 188.176 52.8594V54.0664C188.176 54.9492 188.242 55.7266 188.375 56.3984C188.508 57.0625 188.711 57.625 188.984 58.0859C189.266 58.5391 189.625 58.8828 190.062 59.1172C190.508 59.3438 191.043 59.457 191.668 59.457C192.402 59.457 193.008 59.3398 193.484 59.1055C193.961 58.8711 194.324 58.5234 194.574 58.0625C194.832 57.6016 194.984 57.0273 195.031 56.3398ZM207.477 59.1406V53.4922C207.477 53.0859 207.41 52.7383 207.277 52.4492C207.145 52.1523 206.938 51.9219 206.656 51.7578C206.383 51.5938 206.027 51.5117 205.59 51.5117C205.215 51.5117 204.891 51.5781 204.617 51.7109C204.344 51.8359 204.133 52.0195 203.984 52.2617C203.836 52.4961 203.762 52.7734 203.762 53.0938H200.387C200.387 52.5547 200.512 52.043 200.762 51.5586C201.012 51.0742 201.375 50.6484 201.852 50.2812C202.328 49.9062 202.895 49.6133 203.551 49.4023C204.215 49.1914 204.957 49.0859 205.777 49.0859C206.762 49.0859 207.637 49.25 208.402 49.5781C209.168 49.9062 209.77 50.3984 210.207 51.0547C210.652 51.7109 210.875 52.5312 210.875 53.5156V58.9414C210.875 59.6367 210.918 60.207 211.004 60.6523C211.09 61.0898 211.215 61.4727 211.379 61.8008V62H207.969C207.805 61.6562 207.68 61.2266 207.594 60.7109C207.516 60.1875 207.477 59.6641 207.477 59.1406ZM207.922 54.2773L207.945 56.1875H206.059C205.613 56.1875 205.227 56.2383 204.898 56.3398C204.57 56.4414 204.301 56.5859 204.09 56.7734C203.879 56.9531 203.723 57.1641 203.621 57.4062C203.527 57.6484 203.48 57.9141 203.48 58.2031C203.48 58.4922 203.547 58.7539 203.68 58.9883C203.812 59.2148 204.004 59.3945 204.254 59.5273C204.504 59.6523 204.797 59.7148 205.133 59.7148C205.641 59.7148 206.082 59.6133 206.457 59.4102C206.832 59.207 207.121 58.957 207.324 58.6602C207.535 58.3633 207.645 58.082 207.652 57.8164L208.543 59.2461C208.418 59.5664 208.246 59.8984 208.027 60.2422C207.816 60.5859 207.547 60.9102 207.219 61.2148C206.891 61.5117 206.496 61.7578 206.035 61.9531C205.574 62.1406 205.027 62.2344 204.395 62.2344C203.59 62.2344 202.859 62.0742 202.203 61.7539C201.555 61.4258 201.039 60.9766 200.656 60.4062C200.281 59.8281 200.094 59.1719 200.094 58.4375C200.094 57.7734 200.219 57.1836 200.469 56.668C200.719 56.1523 201.086 55.7188 201.57 55.3672C202.062 55.0078 202.676 54.7383 203.41 54.5586C204.145 54.3711 204.996 54.2773 205.965 54.2773H207.922ZM216.852 52.0859V62H213.477V49.3203H216.652L216.852 52.0859ZM220.672 49.2383L220.613 52.3672C220.449 52.3438 220.25 52.3242 220.016 52.3086C219.789 52.2852 219.582 52.2734 219.395 52.2734C218.918 52.2734 218.504 52.3359 218.152 52.4609C217.809 52.5781 217.52 52.7539 217.285 52.9883C217.059 53.2227 216.887 53.5078 216.77 53.8438C216.66 54.1797 216.598 54.5625 216.582 54.9922L215.902 54.7812C215.902 53.9609 215.984 53.207 216.148 52.5195C216.312 51.8242 216.551 51.2188 216.863 50.7031C217.184 50.1875 217.574 49.7891 218.035 49.5078C218.496 49.2266 219.023 49.0859 219.617 49.0859C219.805 49.0859 219.996 49.1016 220.191 49.1328C220.387 49.1562 220.547 49.1914 220.672 49.2383ZM227.867 62.2344C226.883 62.2344 226 62.0781 225.219 61.7656C224.438 61.4453 223.773 61.0039 223.227 60.4414C222.688 59.8789 222.273 59.2266 221.984 58.4844C221.695 57.7344 221.551 56.9375 221.551 56.0938V55.625C221.551 54.6641 221.688 53.7852 221.961 52.9883C222.234 52.1914 222.625 51.5 223.133 50.9141C223.648 50.3281 224.273 49.8789 225.008 49.5664C225.742 49.2461 226.57 49.0859 227.492 49.0859C228.391 49.0859 229.188 49.2344 229.883 49.5312C230.578 49.8281 231.16 50.25 231.629 50.7969C232.105 51.3438 232.465 52 232.707 52.7656C232.949 53.5234 233.07 54.3672 233.07 55.2969V56.7031H222.992V54.4531H229.754V54.1953C229.754 53.7266 229.668 53.3086 229.496 52.9414C229.332 52.5664 229.082 52.2695 228.746 52.0508C228.41 51.832 227.98 51.7227 227.457 51.7227C227.012 51.7227 226.629 51.8203 226.309 52.0156C225.988 52.2109 225.727 52.4844 225.523 52.8359C225.328 53.1875 225.18 53.6016 225.078 54.0781C224.984 54.5469 224.938 55.0625 224.938 55.625V56.0938C224.938 56.6016 225.008 57.0703 225.148 57.5C225.297 57.9297 225.504 58.3008 225.77 58.6133C226.043 58.9258 226.371 59.168 226.754 59.3398C227.145 59.5117 227.586 59.5977 228.078 59.5977C228.688 59.5977 229.254 59.4805 229.777 59.2461C230.309 59.0039 230.766 58.6406 231.148 58.1562L232.789 59.9375C232.523 60.3203 232.16 60.6875 231.699 61.0391C231.246 61.3906 230.699 61.6797 230.059 61.9062C229.418 62.125 228.688 62.2344 227.867 62.2344Z" fill="#888888"/>
<path d="M109.93 86.0078V118H102.217V86.0078H109.93ZM119.554 86.0078V91.9624H92.813V86.0078H119.554ZM132.012 118.439C130.079 118.439 128.35 118.139 126.827 117.539C125.303 116.923 124.014 116.081 122.959 115.012C121.919 113.942 121.121 112.712 120.564 111.32C120.022 109.929 119.751 108.457 119.751 106.904V106.069C119.751 104.326 119.993 102.714 120.477 101.235C120.96 99.7407 121.678 98.437 122.63 97.3237C123.582 96.2104 124.776 95.3462 126.211 94.731C127.647 94.1011 129.317 93.7861 131.221 93.7861C132.906 93.7861 134.415 94.0571 135.748 94.5991C137.081 95.1411 138.208 95.9175 139.131 96.9282C140.069 97.939 140.779 99.1621 141.263 100.598C141.761 102.033 142.01 103.645 142.01 105.432V108.442H122.586V103.806H134.781V103.234C134.795 102.443 134.656 101.77 134.363 101.213C134.085 100.656 133.675 100.231 133.133 99.9385C132.591 99.6455 131.932 99.499 131.155 99.499C130.35 99.499 129.683 99.6748 129.156 100.026C128.643 100.378 128.24 100.861 127.947 101.477C127.669 102.077 127.471 102.773 127.354 103.564C127.237 104.355 127.178 105.19 127.178 106.069V106.904C127.178 107.783 127.295 108.581 127.53 109.299C127.779 110.017 128.13 110.632 128.584 111.145C129.053 111.643 129.61 112.031 130.254 112.309C130.914 112.587 131.661 112.727 132.496 112.727C133.506 112.727 134.502 112.536 135.484 112.155C136.465 111.774 137.308 111.145 138.011 110.266L141.373 114.265C140.889 114.953 140.201 115.62 139.307 116.264C138.428 116.909 137.374 117.436 136.143 117.846C134.913 118.242 133.536 118.439 132.012 118.439ZM155.062 112.727C155.75 112.727 156.336 112.602 156.819 112.353C157.317 112.089 157.691 111.723 157.94 111.254C158.204 110.771 158.328 110.192 158.313 109.519H165.279C165.293 111.306 164.854 112.873 163.96 114.221C163.082 115.554 161.88 116.594 160.357 117.341C158.848 118.073 157.142 118.439 155.237 118.439C153.377 118.439 151.751 118.139 150.359 117.539C148.968 116.923 147.803 116.074 146.866 114.99C145.943 113.891 145.247 112.609 144.778 111.145C144.324 109.68 144.097 108.09 144.097 106.376V105.871C144.097 104.157 144.324 102.568 144.778 101.103C145.247 99.6235 145.943 98.3418 146.866 97.2578C147.803 96.1592 148.96 95.3096 150.337 94.709C151.729 94.0938 153.348 93.7861 155.193 93.7861C157.171 93.7861 158.914 94.1597 160.423 94.9067C161.946 95.6538 163.14 96.7378 164.004 98.1587C164.869 99.5796 165.293 101.301 165.279 103.322H158.313C158.328 102.604 158.218 101.96 157.984 101.389C157.75 100.817 157.383 100.363 156.885 100.026C156.402 99.6748 155.779 99.499 155.018 99.499C154.256 99.499 153.641 99.6675 153.172 100.004C152.703 100.341 152.344 100.81 152.095 101.411C151.861 101.997 151.7 102.67 151.612 103.432C151.539 104.194 151.502 105.007 151.502 105.871V106.376C151.502 107.255 151.539 108.083 151.612 108.859C151.7 109.621 151.868 110.295 152.117 110.881C152.366 111.452 152.725 111.906 153.194 112.243C153.663 112.565 154.285 112.727 155.062 112.727ZM175.694 84.25V118H168.289V84.25H175.694ZM174.815 105.3L173.079 105.344C173.079 103.674 173.284 102.136 173.694 100.729C174.104 99.3232 174.69 98.1001 175.452 97.0601C176.214 96.02 177.129 95.2144 178.199 94.6431C179.268 94.0718 180.455 93.7861 181.758 93.7861C182.93 93.7861 184 93.9546 184.966 94.2915C185.948 94.6284 186.79 95.1704 187.493 95.9175C188.211 96.6646 188.76 97.6387 189.141 98.8398C189.537 100.041 189.734 101.506 189.734 103.234V118H182.286V103.19C182.286 102.224 182.146 101.477 181.868 100.949C181.604 100.407 181.224 100.034 180.726 99.8286C180.228 99.6089 179.62 99.499 178.902 99.499C178.038 99.499 177.334 99.6455 176.792 99.9385C176.25 100.231 175.833 100.642 175.54 101.169C175.262 101.682 175.071 102.29 174.969 102.993C174.866 103.696 174.815 104.465 174.815 105.3ZM221.88 109.497C221.88 108.999 221.807 108.552 221.661 108.156C221.514 107.746 221.243 107.365 220.848 107.014C220.452 106.662 219.881 106.311 219.134 105.959C218.401 105.593 217.435 105.212 216.233 104.816C214.827 104.348 213.472 103.82 212.168 103.234C210.865 102.634 209.7 101.938 208.675 101.147C207.649 100.341 206.836 99.4038 206.236 98.3345C205.635 97.2505 205.335 95.9907 205.335 94.5552C205.335 93.1782 205.643 91.9404 206.258 90.8418C206.873 89.7285 207.73 88.7837 208.829 88.0073C209.942 87.2163 211.246 86.6157 212.74 86.2056C214.234 85.7808 215.867 85.5684 217.64 85.5684C219.983 85.5684 222.049 85.9785 223.836 86.7988C225.638 87.6045 227.044 88.7544 228.055 90.2485C229.08 91.728 229.593 93.4785 229.593 95.5H221.924C221.924 94.6943 221.756 93.9839 221.419 93.3687C221.097 92.7534 220.606 92.27 219.947 91.9185C219.288 91.5669 218.46 91.3911 217.464 91.3911C216.497 91.3911 215.684 91.5376 215.025 91.8306C214.366 92.1235 213.868 92.519 213.531 93.0171C213.194 93.5005 213.025 94.0352 213.025 94.6211C213.025 95.1045 213.157 95.5439 213.421 95.9395C213.699 96.3203 214.087 96.6792 214.585 97.0161C215.098 97.353 215.713 97.6753 216.431 97.9829C217.164 98.2905 217.984 98.5908 218.892 98.8838C220.591 99.4258 222.1 100.034 223.418 100.708C224.751 101.367 225.872 102.121 226.78 102.971C227.703 103.806 228.399 104.758 228.868 105.827C229.351 106.896 229.593 108.105 229.593 109.453C229.593 110.888 229.314 112.163 228.758 113.276C228.201 114.389 227.403 115.334 226.363 116.11C225.323 116.872 224.078 117.451 222.627 117.846C221.177 118.242 219.559 118.439 217.771 118.439C216.131 118.439 214.512 118.234 212.916 117.824C211.333 117.399 209.898 116.755 208.609 115.891C207.32 115.012 206.287 113.891 205.511 112.529C204.749 111.152 204.368 109.519 204.368 107.629H212.103C212.103 108.566 212.227 109.357 212.476 110.002C212.725 110.646 213.091 111.167 213.575 111.562C214.058 111.943 214.651 112.221 215.354 112.397C216.058 112.558 216.863 112.639 217.771 112.639C218.753 112.639 219.544 112.5 220.145 112.221C220.745 111.928 221.185 111.547 221.463 111.079C221.741 110.595 221.88 110.068 221.88 109.497ZM245.743 94.2256V99.3672H231.417V94.2256H245.743ZM234.427 88.3149H241.832V110.244C241.832 110.874 241.905 111.364 242.051 111.716C242.198 112.053 242.447 112.294 242.798 112.441C243.165 112.573 243.648 112.639 244.249 112.639C244.673 112.639 245.025 112.631 245.303 112.617C245.582 112.587 245.845 112.551 246.094 112.507V117.802C245.464 118.007 244.805 118.161 244.117 118.264C243.428 118.381 242.696 118.439 241.919 118.439C240.337 118.439 238.982 118.19 237.854 117.692C236.741 117.194 235.892 116.411 235.306 115.341C234.72 114.272 234.427 112.88 234.427 111.167V88.3149ZM261.036 112.023V102.224C261.036 101.55 260.94 100.971 260.75 100.488C260.56 100.004 260.259 99.6309 259.849 99.3672C259.439 99.0889 258.89 98.9497 258.201 98.9497C257.645 98.9497 257.168 99.0449 256.773 99.2354C256.377 99.4258 256.077 99.7114 255.872 100.092C255.667 100.473 255.564 100.957 255.564 101.542H248.16C248.16 100.444 248.401 99.4258 248.885 98.4883C249.383 97.5361 250.086 96.7085 250.994 96.0054C251.917 95.3022 253.016 94.7603 254.29 94.3794C255.579 93.9839 257.015 93.7861 258.597 93.7861C260.486 93.7861 262.171 94.1011 263.65 94.731C265.145 95.3608 266.324 96.3057 267.188 97.5654C268.052 98.8105 268.484 100.378 268.484 102.268V112.001C268.484 113.554 268.572 114.733 268.748 115.539C268.924 116.33 269.173 117.026 269.495 117.626V118H262.068C261.717 117.268 261.453 116.374 261.277 115.319C261.116 114.25 261.036 113.151 261.036 112.023ZM261.937 103.476L261.98 107.431H258.707C258.018 107.431 257.432 107.526 256.949 107.717C256.48 107.907 256.099 108.171 255.806 108.508C255.528 108.83 255.323 109.196 255.191 109.606C255.074 110.017 255.015 110.449 255.015 110.903C255.015 111.342 255.118 111.738 255.323 112.089C255.542 112.426 255.835 112.69 256.202 112.88C256.568 113.071 256.978 113.166 257.432 113.166C258.252 113.166 258.948 113.012 259.52 112.705C260.105 112.382 260.552 111.994 260.86 111.54C261.167 111.086 261.321 110.661 261.321 110.266L262.947 113.298C262.654 113.884 262.317 114.477 261.937 115.078C261.57 115.678 261.109 116.235 260.552 116.748C260.01 117.246 259.344 117.656 258.553 117.978C257.762 118.286 256.802 118.439 255.674 118.439C254.209 118.439 252.862 118.139 251.631 117.539C250.416 116.938 249.441 116.103 248.709 115.034C247.977 113.95 247.61 112.705 247.61 111.298C247.61 110.068 247.83 108.969 248.27 108.002C248.724 107.036 249.405 106.215 250.313 105.542C251.221 104.868 252.378 104.355 253.785 104.003C255.191 103.652 256.846 103.476 258.75 103.476H261.937ZM282.635 112.727C283.323 112.727 283.909 112.602 284.393 112.353C284.891 112.089 285.264 111.723 285.513 111.254C285.777 110.771 285.901 110.192 285.887 109.519H292.852C292.867 111.306 292.427 112.873 291.534 114.221C290.655 115.554 289.454 116.594 287.93 117.341C286.421 118.073 284.715 118.439 282.811 118.439C280.95 118.439 279.324 118.139 277.933 117.539C276.541 116.923 275.376 116.074 274.439 114.99C273.516 113.891 272.82 112.609 272.352 111.145C271.897 109.68 271.67 108.09 271.67 106.376V105.871C271.67 104.157 271.897 102.568 272.352 101.103C272.82 99.6235 273.516 98.3418 274.439 97.2578C275.376 96.1592 276.534 95.3096 277.911 94.709C279.302 94.0938 280.921 93.7861 282.767 93.7861C284.744 93.7861 286.487 94.1597 287.996 94.9067C289.52 95.6538 290.713 96.7378 291.578 98.1587C292.442 99.5796 292.867 101.301 292.852 103.322H285.887C285.901 102.604 285.792 101.96 285.557 101.389C285.323 100.817 284.957 100.363 284.458 100.026C283.975 99.6748 283.353 99.499 282.591 99.499C281.829 99.499 281.214 99.6675 280.745 100.004C280.276 100.341 279.917 100.81 279.668 101.411C279.434 101.997 279.273 102.67 279.185 103.432C279.112 104.194 279.075 105.007 279.075 105.871V106.376C279.075 107.255 279.112 108.083 279.185 108.859C279.273 109.621 279.441 110.295 279.69 110.881C279.939 111.452 280.298 111.906 280.767 112.243C281.236 112.565 281.858 112.727 282.635 112.727ZM303.487 84.228V118H296.082V84.228H303.487ZM318.692 94.2256L308.365 106.333L302.959 111.738L299.729 107.036L304.234 101.169L309.815 94.2256H318.692ZM310.76 118L304.41 107.167L309.881 103.278L319.241 118H310.76Z" fill="#424241"/>
<path d="M1363 15C1363 6.71573 1356.28 0 1348 0H1134V167H1348C1356.28 167 1363 160.284 1363 152V15Z" fill="#1A7C6B"/>
<path fill-rule="evenodd" clip-rule="evenodd" d="M1218.5 55C1218.37 55 1218.24 55.0527 1218.15 55.1464C1218.05 55.2402 1218 55.3674 1218 55.5V111.5C1218 111.633 1218.05 111.76 1218.15 111.854C1218.24 111.947 1218.37 112 1218.5 112H1278C1278.13 112 1278.26 111.947 1278.35 111.854C1278.45 111.76 1278.5 111.633 1278.5 111.5V66C1278.5 65.8674 1278.45 65.7402 1278.35 65.6464C1278.26 65.5527 1278.13 65.5 1278 65.5H1248.25C1247.36 65.5 1246.52 65.1045 1245.95 64.4206L1238.09 55H1218.5ZM1213.9 50.9038C1215.12 49.6848 1216.78 49 1218.5 49H1239.5C1240.39 49 1241.23 49.3955 1241.8 50.0794L1249.66 59.5H1278C1279.72 59.5 1281.38 60.1848 1282.6 61.4038C1283.82 62.6228 1284.5 64.2761 1284.5 66V111.5C1284.5 113.224 1283.82 114.877 1282.6 116.096C1281.38 117.315 1279.72 118 1278 118H1218.5C1216.78 118 1215.12 117.315 1213.9 116.096C1212.68 114.877 1212 113.224 1212 111.5V55.5C1212 53.7761 1212.68 52.1228 1213.9 50.9038Z" fill="white"/>
<path fill-rule="evenodd" clip-rule="evenodd" d="M1243.72 77.5251C1245.09 78.892 1245.09 81.108 1243.72 82.4749L1237.45 88.75L1243.72 95.0251C1245.09 96.392 1245.09 98.608 1243.72 99.9749C1242.36 101.342 1240.14 101.342 1238.78 99.9749L1230.03 91.2249C1228.66 89.858 1228.66 87.642 1230.03 86.2751L1238.78 77.5251C1240.14 76.1583 1242.36 76.1583 1243.72 77.5251Z" fill="white"/>
<path fill-rule="evenodd" clip-rule="evenodd" d="M1252.03 99.9749C1250.66 98.608 1250.66 96.392 1252.03 95.0251L1258.3 88.75L1252.03 82.4749C1250.66 81.108 1250.66 78.892 1252.03 77.5251C1253.39 76.1583 1255.61 76.1583 1256.97 77.5251L1265.72 86.2751C1267.09 87.642 1267.09 89.858 1265.72 91.2249L1256.97 99.9749C1255.61 101.342 1253.39 101.342 1252.03 99.9749Z" fill="white"/>
</svg>
