<svg width="1363" height="167" viewBox="0 0 1363 167" fill="none" xmlns="http://www.w3.org/2000/svg">
<rect width="1363" height="167" rx="15" fill="#F0F0F0"/>
<path d="M0 15C0 6.71573 6.71573 0 15 0H37V167H15C6.71573 167 0 160.284 0 152V15Z" fill="#424241"/>
<path d="M100.906 54.9219L93.3945 52.2383V49.0859L103.602 53.375V55.6367L100.906 54.9219ZM93.3945 57.1719L100.918 54.4297L103.602 53.7852V56.0352L93.3945 60.3242V57.1719ZM118.543 55.918H114.195V53.1758H118.543C119.215 53.1758 119.762 53.0664 120.184 52.8477C120.605 52.6211 120.914 52.3086 121.109 51.9102C121.305 51.5117 121.402 51.0625 121.402 50.5625C121.402 50.0547 121.305 49.582 121.109 49.1445C120.914 48.707 120.605 48.3555 120.184 48.0898C119.762 47.8242 119.215 47.6914 118.543 47.6914H115.414V62H111.898V44.9375H118.543C119.879 44.9375 121.023 45.1797 121.977 45.6641C122.938 46.1406 123.672 46.8008 124.18 47.6445C124.688 48.4883 124.941 49.4531 124.941 50.5391C124.941 51.6406 124.688 52.5938 124.18 53.3984C123.672 54.2031 122.938 54.8242 121.977 55.2617C121.023 55.6992 119.879 55.918 118.543 55.918ZM130.449 44V62H127.074V44H130.449ZM129.969 55.2148H129.043C129.051 54.332 129.168 53.5195 129.395 52.7773C129.621 52.0273 129.945 51.3789 130.367 50.832C130.789 50.2773 131.293 49.8477 131.879 49.543C132.473 49.2383 133.129 49.0859 133.848 49.0859C134.473 49.0859 135.039 49.1758 135.547 49.3555C136.062 49.5273 136.504 49.8086 136.871 50.1992C137.246 50.582 137.535 51.0859 137.738 51.7109C137.941 52.3359 138.043 53.0938 138.043 53.9844V62H134.645V53.9609C134.645 53.3984 134.562 52.957 134.398 52.6367C134.242 52.3086 134.012 52.0781 133.707 51.9453C133.41 51.8047 133.043 51.7344 132.605 51.7344C132.121 51.7344 131.707 51.8242 131.363 52.0039C131.027 52.1836 130.758 52.4336 130.555 52.7539C130.352 53.0664 130.203 53.4336 130.109 53.8555C130.016 54.2773 129.969 54.7305 129.969 55.2148ZM144.371 60.5703L147.734 49.3203H151.355L146.258 63.9102C146.148 64.2305 146 64.5742 145.812 64.9414C145.633 65.3086 145.387 65.6562 145.074 65.9844C144.77 66.3203 144.383 66.5938 143.914 66.8047C143.453 67.0156 142.887 67.1211 142.215 67.1211C141.895 67.1211 141.633 67.1016 141.43 67.0625C141.227 67.0234 140.984 66.9688 140.703 66.8984V64.4258C140.789 64.4258 140.879 64.4258 140.973 64.4258C141.066 64.4336 141.156 64.4375 141.242 64.4375C141.688 64.4375 142.051 64.3867 142.332 64.2852C142.613 64.1836 142.84 64.0273 143.012 63.8164C143.184 63.6133 143.32 63.3477 143.422 63.0195L144.371 60.5703ZM142.965 49.3203L145.719 58.5078L146.199 62.082L143.902 62.3281L139.344 49.3203H142.965ZM159.559 58.4961C159.559 58.2539 159.488 58.0352 159.348 57.8398C159.207 57.6445 158.945 57.4648 158.562 57.3008C158.188 57.1289 157.645 56.9727 156.934 56.832C156.293 56.6914 155.695 56.5156 155.141 56.3047C154.594 56.0859 154.117 55.8242 153.711 55.5195C153.312 55.2148 153 54.8555 152.773 54.4414C152.547 54.0195 152.434 53.5391 152.434 53C152.434 52.4688 152.547 51.9688 152.773 51.5C153.008 51.0312 153.34 50.6172 153.77 50.2578C154.207 49.8906 154.738 49.6055 155.363 49.4023C155.996 49.1914 156.707 49.0859 157.496 49.0859C158.598 49.0859 159.543 49.2617 160.332 49.6133C161.129 49.9648 161.738 50.4492 162.16 51.0664C162.59 51.6758 162.805 52.3711 162.805 53.1523H159.43C159.43 52.8242 159.359 52.5312 159.219 52.2734C159.086 52.0078 158.875 51.8008 158.586 51.6523C158.305 51.4961 157.938 51.418 157.484 51.418C157.109 51.418 156.785 51.4844 156.512 51.6172C156.238 51.7422 156.027 51.9141 155.879 52.1328C155.738 52.3438 155.668 52.5781 155.668 52.8359C155.668 53.0312 155.707 53.207 155.785 53.3633C155.871 53.5117 156.008 53.6484 156.195 53.7734C156.383 53.8984 156.625 54.0156 156.922 54.125C157.227 54.2266 157.602 54.3203 158.047 54.4062C158.961 54.5938 159.777 54.8398 160.496 55.1445C161.215 55.4414 161.785 55.8477 162.207 56.3633C162.629 56.8711 162.84 57.5391 162.84 58.3672C162.84 58.9297 162.715 59.4453 162.465 59.9141C162.215 60.3828 161.855 60.793 161.387 61.1445C160.918 61.4883 160.355 61.7578 159.699 61.9531C159.051 62.1406 158.32 62.2344 157.508 62.2344C156.328 62.2344 155.328 62.0234 154.508 61.6016C153.695 61.1797 153.078 60.6445 152.656 59.9961C152.242 59.3398 152.035 58.668 152.035 57.9805H155.234C155.25 58.4414 155.367 58.8125 155.586 59.0938C155.812 59.375 156.098 59.5781 156.441 59.7031C156.793 59.8281 157.172 59.8906 157.578 59.8906C158.016 59.8906 158.379 59.832 158.668 59.7148C158.957 59.5898 159.176 59.4258 159.324 59.2227C159.48 59.0117 159.559 58.7695 159.559 58.4961ZM168.594 49.3203V62H165.207V49.3203H168.594ZM164.996 46.0156C164.996 45.5234 165.168 45.1172 165.512 44.7969C165.855 44.4766 166.316 44.3164 166.895 44.3164C167.465 44.3164 167.922 44.4766 168.266 44.7969C168.617 45.1172 168.793 45.5234 168.793 46.0156C168.793 46.5078 168.617 46.9141 168.266 47.2344C167.922 47.5547 167.465 47.7148 166.895 47.7148C166.316 47.7148 165.855 47.5547 165.512 47.2344C165.168 46.9141 164.996 46.5078 164.996 46.0156ZM170.844 55.7891V55.543C170.844 54.6133 170.977 53.7578 171.242 52.9766C171.508 52.1875 171.895 51.5039 172.402 50.9258C172.91 50.3477 173.535 49.8984 174.277 49.5781C175.02 49.25 175.871 49.0859 176.832 49.0859C177.793 49.0859 178.648 49.25 179.398 49.5781C180.148 49.8984 180.777 50.3477 181.285 50.9258C181.801 51.5039 182.191 52.1875 182.457 52.9766C182.723 53.7578 182.855 54.6133 182.855 55.543V55.7891C182.855 56.7109 182.723 57.5664 182.457 58.3555C182.191 59.1367 181.801 59.8203 181.285 60.4062C180.777 60.9844 180.152 61.4336 179.41 61.7539C178.668 62.0742 177.816 62.2344 176.855 62.2344C175.895 62.2344 175.039 62.0742 174.289 61.7539C173.547 61.4336 172.918 60.9844 172.402 60.4062C171.895 59.8203 171.508 59.1367 171.242 58.3555C170.977 57.5664 170.844 56.7109 170.844 55.7891ZM174.219 55.543V55.7891C174.219 56.3203 174.266 56.8164 174.359 57.2773C174.453 57.7383 174.602 58.1445 174.805 58.4961C175.016 58.8398 175.289 59.1094 175.625 59.3047C175.961 59.5 176.371 59.5977 176.855 59.5977C177.324 59.5977 177.727 59.5 178.062 59.3047C178.398 59.1094 178.668 58.8398 178.871 58.4961C179.074 58.1445 179.223 57.7383 179.316 57.2773C179.418 56.8164 179.469 56.3203 179.469 55.7891V55.543C179.469 55.0273 179.418 54.543 179.316 54.0898C179.223 53.6289 179.07 53.2227 178.859 52.8711C178.656 52.5117 178.387 52.2305 178.051 52.0273C177.715 51.8242 177.309 51.7227 176.832 51.7227C176.355 51.7227 175.949 51.8242 175.613 52.0273C175.285 52.2305 175.016 52.5117 174.805 52.8711C174.602 53.2227 174.453 53.6289 174.359 54.0898C174.266 54.543 174.219 55.0273 174.219 55.543ZM195.031 56.3398H198.535C198.465 57.4883 198.148 58.5078 197.586 59.3984C197.031 60.2891 196.254 60.9844 195.254 61.4844C194.262 61.9844 193.066 62.2344 191.668 62.2344C190.574 62.2344 189.594 62.0469 188.727 61.6719C187.859 61.2891 187.117 60.7422 186.5 60.0312C185.891 59.3203 185.426 58.4609 185.105 57.4531C184.785 56.4453 184.625 55.3164 184.625 54.0664V52.8828C184.625 51.6328 184.789 50.5039 185.117 49.4961C185.453 48.4805 185.93 47.6172 186.547 46.9062C187.172 46.1953 187.918 45.6484 188.785 45.2656C189.652 44.8828 190.621 44.6914 191.691 44.6914C193.113 44.6914 194.312 44.9492 195.289 45.4648C196.273 45.9805 197.035 46.6914 197.574 47.5977C198.121 48.5039 198.449 49.5352 198.559 50.6914H195.043C195.004 50.0039 194.867 49.4219 194.633 48.9453C194.398 48.4609 194.043 48.0977 193.566 47.8555C193.098 47.6055 192.473 47.4805 191.691 47.4805C191.105 47.4805 190.594 47.5898 190.156 47.8086C189.719 48.0273 189.352 48.3594 189.055 48.8047C188.758 49.25 188.535 49.8125 188.387 50.4922C188.246 51.1641 188.176 51.9531 188.176 52.8594V54.0664C188.176 54.9492 188.242 55.7266 188.375 56.3984C188.508 57.0625 188.711 57.625 188.984 58.0859C189.266 58.5391 189.625 58.8828 190.062 59.1172C190.508 59.3438 191.043 59.457 191.668 59.457C192.402 59.457 193.008 59.3398 193.484 59.1055C193.961 58.8711 194.324 58.5234 194.574 58.0625C194.832 57.6016 194.984 57.0273 195.031 56.3398ZM207.477 59.1406V53.4922C207.477 53.0859 207.41 52.7383 207.277 52.4492C207.145 52.1523 206.938 51.9219 206.656 51.7578C206.383 51.5938 206.027 51.5117 205.59 51.5117C205.215 51.5117 204.891 51.5781 204.617 51.7109C204.344 51.8359 204.133 52.0195 203.984 52.2617C203.836 52.4961 203.762 52.7734 203.762 53.0938H200.387C200.387 52.5547 200.512 52.043 200.762 51.5586C201.012 51.0742 201.375 50.6484 201.852 50.2812C202.328 49.9062 202.895 49.6133 203.551 49.4023C204.215 49.1914 204.957 49.0859 205.777 49.0859C206.762 49.0859 207.637 49.25 208.402 49.5781C209.168 49.9062 209.77 50.3984 210.207 51.0547C210.652 51.7109 210.875 52.5312 210.875 53.5156V58.9414C210.875 59.6367 210.918 60.207 211.004 60.6523C211.09 61.0898 211.215 61.4727 211.379 61.8008V62H207.969C207.805 61.6562 207.68 61.2266 207.594 60.7109C207.516 60.1875 207.477 59.6641 207.477 59.1406ZM207.922 54.2773L207.945 56.1875H206.059C205.613 56.1875 205.227 56.2383 204.898 56.3398C204.57 56.4414 204.301 56.5859 204.09 56.7734C203.879 56.9531 203.723 57.1641 203.621 57.4062C203.527 57.6484 203.48 57.9141 203.48 58.2031C203.48 58.4922 203.547 58.7539 203.68 58.9883C203.812 59.2148 204.004 59.3945 204.254 59.5273C204.504 59.6523 204.797 59.7148 205.133 59.7148C205.641 59.7148 206.082 59.6133 206.457 59.4102C206.832 59.207 207.121 58.957 207.324 58.6602C207.535 58.3633 207.645 58.082 207.652 57.8164L208.543 59.2461C208.418 59.5664 208.246 59.8984 208.027 60.2422C207.816 60.5859 207.547 60.9102 207.219 61.2148C206.891 61.5117 206.496 61.7578 206.035 61.9531C205.574 62.1406 205.027 62.2344 204.395 62.2344C203.59 62.2344 202.859 62.0742 202.203 61.7539C201.555 61.4258 201.039 60.9766 200.656 60.4062C200.281 59.8281 200.094 59.1719 200.094 58.4375C200.094 57.7734 200.219 57.1836 200.469 56.668C200.719 56.1523 201.086 55.7188 201.57 55.3672C202.062 55.0078 202.676 54.7383 203.41 54.5586C204.145 54.3711 204.996 54.2773 205.965 54.2773H207.922ZM216.852 52.0859V62H213.477V49.3203H216.652L216.852 52.0859ZM220.672 49.2383L220.613 52.3672C220.449 52.3438 220.25 52.3242 220.016 52.3086C219.789 52.2852 219.582 52.2734 219.395 52.2734C218.918 52.2734 218.504 52.3359 218.152 52.4609C217.809 52.5781 217.52 52.7539 217.285 52.9883C217.059 53.2227 216.887 53.5078 216.77 53.8438C216.66 54.1797 216.598 54.5625 216.582 54.9922L215.902 54.7812C215.902 53.9609 215.984 53.207 216.148 52.5195C216.312 51.8242 216.551 51.2188 216.863 50.7031C217.184 50.1875 217.574 49.7891 218.035 49.5078C218.496 49.2266 219.023 49.0859 219.617 49.0859C219.805 49.0859 219.996 49.1016 220.191 49.1328C220.387 49.1562 220.547 49.1914 220.672 49.2383ZM227.867 62.2344C226.883 62.2344 226 62.0781 225.219 61.7656C224.438 61.4453 223.773 61.0039 223.227 60.4414C222.688 59.8789 222.273 59.2266 221.984 58.4844C221.695 57.7344 221.551 56.9375 221.551 56.0938V55.625C221.551 54.6641 221.688 53.7852 221.961 52.9883C222.234 52.1914 222.625 51.5 223.133 50.9141C223.648 50.3281 224.273 49.8789 225.008 49.5664C225.742 49.2461 226.57 49.0859 227.492 49.0859C228.391 49.0859 229.188 49.2344 229.883 49.5312C230.578 49.8281 231.16 50.25 231.629 50.7969C232.105 51.3438 232.465 52 232.707 52.7656C232.949 53.5234 233.07 54.3672 233.07 55.2969V56.7031H222.992V54.4531H229.754V54.1953C229.754 53.7266 229.668 53.3086 229.496 52.9414C229.332 52.5664 229.082 52.2695 228.746 52.0508C228.41 51.832 227.98 51.7227 227.457 51.7227C227.012 51.7227 226.629 51.8203 226.309 52.0156C225.988 52.2109 225.727 52.4844 225.523 52.8359C225.328 53.1875 225.18 53.6016 225.078 54.0781C224.984 54.5469 224.938 55.0625 224.938 55.625V56.0938C224.938 56.6016 225.008 57.0703 225.148 57.5C225.297 57.9297 225.504 58.3008 225.77 58.6133C226.043 58.9258 226.371 59.168 226.754 59.3398C227.145 59.5117 227.586 59.5977 228.078 59.5977C228.688 59.5977 229.254 59.4805 229.777 59.2461C230.309 59.0039 230.766 58.6406 231.148 58.1562L232.789 59.9375C232.523 60.3203 232.16 60.6875 231.699 61.0391C231.246 61.3906 230.699 61.6797 230.059 61.9062C229.418 62.125 228.688 62.2344 227.867 62.2344Z" fill="#888888"/>
<path d="M107.205 107.146H99.251V101.191H107.205C108.289 101.191 109.168 101.008 109.842 100.642C110.516 100.275 111.006 99.77 111.314 99.1255C111.636 98.4663 111.797 97.7266 111.797 96.9062C111.797 96.0273 111.636 95.2144 111.314 94.4673C111.006 93.7202 110.516 93.1196 109.842 92.6655C109.168 92.1968 108.289 91.9624 107.205 91.9624H102.151V118H94.439V86.0078H107.205C109.769 86.0078 111.973 86.4766 113.819 87.4141C115.679 88.3516 117.107 89.6406 118.104 91.2812C119.1 92.9072 119.598 94.7676 119.598 96.8623C119.598 98.9277 119.1 100.729 118.104 102.268C117.107 103.806 115.679 105.007 113.819 105.871C111.973 106.721 109.769 107.146 107.205 107.146ZM130.87 100.114V118H123.465V94.2256H130.386L130.87 100.114ZM137.901 94.0498L137.769 100.927C137.476 100.898 137.081 100.861 136.583 100.817C136.084 100.773 135.667 100.751 135.33 100.751C134.466 100.751 133.719 100.854 133.089 101.059C132.474 101.25 131.961 101.542 131.551 101.938C131.155 102.319 130.862 102.802 130.672 103.388C130.496 103.974 130.416 104.655 130.43 105.432L129.09 104.553C129.09 102.956 129.244 101.506 129.551 100.202C129.874 98.8838 130.328 97.7485 130.914 96.7964C131.5 95.8296 132.21 95.0898 133.045 94.5771C133.88 94.0498 134.817 93.7861 135.857 93.7861C136.224 93.7861 136.583 93.8081 136.934 93.8521C137.3 93.896 137.623 93.9619 137.901 94.0498ZM138.736 106.354V105.893C138.736 104.15 138.985 102.546 139.483 101.081C139.981 99.6016 140.713 98.3198 141.68 97.2358C142.647 96.1519 143.841 95.3096 145.262 94.709C146.683 94.0938 148.323 93.7861 150.184 93.7861C152.059 93.7861 153.707 94.0938 155.127 94.709C156.563 95.3096 157.764 96.1519 158.731 97.2358C159.698 98.3198 160.43 99.6016 160.928 101.081C161.426 102.546 161.675 104.15 161.675 105.893V106.354C161.675 108.083 161.426 109.687 160.928 111.167C160.43 112.631 159.698 113.913 158.731 115.012C157.764 116.096 156.57 116.938 155.149 117.539C153.729 118.139 152.088 118.439 150.228 118.439C148.367 118.439 146.719 118.139 145.284 117.539C143.848 116.938 142.647 116.096 141.68 115.012C140.713 113.913 139.981 112.631 139.483 111.167C138.985 109.687 138.736 108.083 138.736 106.354ZM146.141 105.893V106.354C146.141 107.248 146.207 108.083 146.338 108.859C146.47 109.636 146.69 110.317 146.998 110.903C147.305 111.474 147.723 111.921 148.25 112.243C148.777 112.565 149.437 112.727 150.228 112.727C151.004 112.727 151.648 112.565 152.161 112.243C152.688 111.921 153.106 111.474 153.414 110.903C153.721 110.317 153.941 109.636 154.073 108.859C154.205 108.083 154.271 107.248 154.271 106.354V105.893C154.271 105.029 154.205 104.216 154.073 103.454C153.941 102.678 153.721 101.997 153.414 101.411C153.106 100.81 152.688 100.341 152.161 100.004C151.634 99.6675 150.975 99.499 150.184 99.499C149.407 99.499 148.755 99.6675 148.228 100.004C147.715 100.341 147.305 100.81 146.998 101.411C146.69 101.997 146.47 102.678 146.338 103.454C146.207 104.216 146.141 105.029 146.141 105.893ZM177.496 94.2256V99.3672H163.169V94.2256H177.496ZM166.18 88.3149H173.584V110.244C173.584 110.874 173.658 111.364 173.804 111.716C173.951 112.053 174.2 112.294 174.551 112.441C174.917 112.573 175.401 112.639 176.001 112.639C176.426 112.639 176.778 112.631 177.056 112.617C177.334 112.587 177.598 112.551 177.847 112.507V117.802C177.217 118.007 176.558 118.161 175.87 118.264C175.181 118.381 174.449 118.439 173.672 118.439C172.09 118.439 170.735 118.19 169.607 117.692C168.494 117.194 167.645 116.411 167.059 115.341C166.473 114.272 166.18 112.88 166.18 111.167V88.3149ZM178.858 106.354V105.893C178.858 104.15 179.107 102.546 179.605 101.081C180.103 99.6016 180.835 98.3198 181.802 97.2358C182.769 96.1519 183.963 95.3096 185.384 94.709C186.805 94.0938 188.445 93.7861 190.306 93.7861C192.181 93.7861 193.829 94.0938 195.25 94.709C196.685 95.3096 197.886 96.1519 198.853 97.2358C199.82 98.3198 200.552 99.6016 201.05 101.081C201.548 102.546 201.797 104.15 201.797 105.893V106.354C201.797 108.083 201.548 109.687 201.05 111.167C200.552 112.631 199.82 113.913 198.853 115.012C197.886 116.096 196.692 116.938 195.271 117.539C193.851 118.139 192.21 118.439 190.35 118.439C188.489 118.439 186.841 118.139 185.406 117.539C183.97 116.938 182.769 116.096 181.802 115.012C180.835 113.913 180.103 112.631 179.605 111.167C179.107 109.687 178.858 108.083 178.858 106.354ZM186.263 105.893V106.354C186.263 107.248 186.329 108.083 186.46 108.859C186.592 109.636 186.812 110.317 187.12 110.903C187.427 111.474 187.845 111.921 188.372 112.243C188.899 112.565 189.559 112.727 190.35 112.727C191.126 112.727 191.771 112.565 192.283 112.243C192.811 111.921 193.228 111.474 193.536 110.903C193.843 110.317 194.063 109.636 194.195 108.859C194.327 108.083 194.393 107.248 194.393 106.354V105.893C194.393 105.029 194.327 104.216 194.195 103.454C194.063 102.678 193.843 101.997 193.536 101.411C193.228 100.81 192.811 100.341 192.283 100.004C191.756 99.6675 191.097 99.499 190.306 99.499C189.529 99.499 188.877 99.6675 188.35 100.004C187.837 100.341 187.427 100.81 187.12 101.411C186.812 101.997 186.592 102.678 186.46 103.454C186.329 104.216 186.263 105.029 186.263 105.893ZM217.618 94.2256V99.3672H203.292V94.2256H217.618ZM206.302 88.3149H213.707V110.244C213.707 110.874 213.78 111.364 213.926 111.716C214.073 112.053 214.322 112.294 214.673 112.441C215.04 112.573 215.523 112.639 216.124 112.639C216.548 112.639 216.9 112.631 217.178 112.617C217.457 112.587 217.72 112.551 217.969 112.507V117.802C217.339 118.007 216.68 118.161 215.992 118.264C215.303 118.381 214.571 118.439 213.794 118.439C212.212 118.439 210.857 118.19 209.729 117.692C208.616 117.194 207.767 116.411 207.181 115.341C206.595 114.272 206.302 112.88 206.302 111.167V88.3149ZM227.857 115.209L234.009 94.2256H241.963L232.405 121.538C232.2 122.138 231.929 122.783 231.592 123.471C231.255 124.174 230.794 124.841 230.208 125.471C229.622 126.101 228.868 126.613 227.945 127.009C227.037 127.404 225.909 127.602 224.561 127.602C223.843 127.602 223.316 127.565 222.979 127.492C222.657 127.434 222.159 127.324 221.485 127.163V121.867C221.675 121.867 221.836 121.867 221.968 121.867C222.115 121.867 222.276 121.867 222.452 121.867C223.243 121.867 223.873 121.787 224.341 121.625C224.825 121.464 225.191 121.23 225.44 120.922C225.704 120.615 225.909 120.241 226.055 119.802L227.857 115.209ZM226.297 94.2256L230.977 110.859L231.79 118.703H226.824L218.365 94.2256H226.297ZM251.368 98.7959V127.141H243.963V94.2256H250.862L251.368 98.7959ZM265.958 105.827V106.289C265.958 108.017 265.76 109.621 265.364 111.101C264.969 112.58 264.383 113.869 263.606 114.968C262.83 116.066 261.863 116.923 260.706 117.539C259.563 118.139 258.238 118.439 256.729 118.439C255.308 118.439 254.085 118.125 253.06 117.495C252.034 116.865 251.177 115.993 250.489 114.88C249.8 113.767 249.244 112.492 248.819 111.057C248.394 109.621 248.057 108.105 247.808 106.508V105.915C248.057 104.201 248.394 102.612 248.819 101.147C249.244 99.6675 249.8 98.3784 250.489 97.2798C251.177 96.1812 252.027 95.3242 253.038 94.709C254.063 94.0938 255.286 93.7861 256.707 93.7861C258.216 93.7861 259.542 94.0718 260.684 94.6431C261.841 95.2144 262.808 96.0347 263.584 97.104C264.375 98.1587 264.969 99.4258 265.364 100.905C265.76 102.385 265.958 104.025 265.958 105.827ZM258.553 106.289V105.827C258.553 104.904 258.487 104.062 258.355 103.3C258.223 102.524 258.011 101.85 257.718 101.279C257.439 100.708 257.066 100.268 256.597 99.9604C256.128 99.6528 255.55 99.499 254.861 99.499C254.07 99.499 253.404 99.6235 252.862 99.8726C252.334 100.107 251.91 100.473 251.587 100.971C251.28 101.455 251.06 102.062 250.928 102.795C250.811 103.513 250.76 104.355 250.774 105.322V107.124C250.745 108.237 250.855 109.218 251.104 110.068C251.353 110.903 251.785 111.555 252.4 112.023C253.016 112.492 253.851 112.727 254.905 112.727C255.608 112.727 256.194 112.565 256.663 112.243C257.132 111.906 257.505 111.445 257.784 110.859C258.062 110.258 258.26 109.57 258.377 108.793C258.494 108.017 258.553 107.182 258.553 106.289ZM277.076 94.2256V118H269.649V94.2256H277.076ZM269.209 88.0952C269.209 87.0405 269.59 86.1763 270.352 85.5024C271.114 84.8286 272.103 84.4917 273.318 84.4917C274.534 84.4917 275.523 84.8286 276.285 85.5024C277.046 86.1763 277.427 87.0405 277.427 88.0952C277.427 89.1499 277.046 90.0142 276.285 90.688C275.523 91.3618 274.534 91.6987 273.318 91.6987C272.103 91.6987 271.114 91.3618 270.352 90.688C269.59 90.0142 269.209 89.1499 269.209 88.0952ZM288.919 99.3013V118H281.514V94.2256H288.458L288.919 99.3013ZM288.04 105.3L286.304 105.344C286.304 103.527 286.524 101.909 286.963 100.488C287.403 99.0522 288.025 97.8364 288.831 96.8403C289.637 95.8442 290.596 95.0898 291.709 94.5771C292.837 94.0498 294.09 93.7861 295.467 93.7861C296.565 93.7861 297.569 93.9473 298.477 94.2695C299.4 94.5918 300.191 95.1118 300.85 95.8296C301.524 96.5474 302.037 97.4995 302.388 98.686C302.754 99.8579 302.938 101.308 302.938 103.037V118H295.489V103.015C295.489 102.062 295.357 101.337 295.093 100.839C294.83 100.327 294.449 99.9751 293.951 99.7847C293.453 99.5942 292.845 99.499 292.127 99.499C291.365 99.499 290.721 99.6455 290.193 99.9385C289.666 100.231 289.241 100.642 288.919 101.169C288.611 101.682 288.384 102.29 288.238 102.993C288.106 103.696 288.04 104.465 288.04 105.3ZM321.988 94.2256H328.711V117.077C328.711 119.274 328.206 121.135 327.195 122.658C326.185 124.196 324.771 125.361 322.955 126.152C321.153 126.958 319.043 127.36 316.626 127.36C315.557 127.36 314.466 127.221 313.353 126.943C312.239 126.679 311.199 126.284 310.232 125.756C309.266 125.229 308.453 124.577 307.793 123.801L310.892 119.45C311.492 120.124 312.247 120.695 313.155 121.164C314.063 121.647 315.132 121.889 316.363 121.889C317.432 121.889 318.326 121.699 319.043 121.318C319.776 120.937 320.333 120.38 320.713 119.648C321.094 118.93 321.285 118.059 321.285 117.033V99.8506L321.988 94.2256ZM306.189 106.398V105.937C306.189 104.135 306.409 102.495 306.849 101.015C307.303 99.521 307.947 98.2393 308.782 97.1699C309.632 96.0859 310.657 95.251 311.858 94.665C313.06 94.0791 314.415 93.7861 315.923 93.7861C317.549 93.7861 318.882 94.1011 319.922 94.731C320.977 95.3462 321.819 96.2104 322.449 97.3237C323.094 98.437 323.592 99.7407 323.943 101.235C324.31 102.714 324.617 104.311 324.866 106.025V106.574C324.617 108.186 324.273 109.709 323.833 111.145C323.409 112.565 322.852 113.825 322.164 114.924C321.475 116.022 320.611 116.887 319.571 117.517C318.545 118.132 317.315 118.439 315.879 118.439C314.385 118.439 313.038 118.139 311.836 117.539C310.65 116.938 309.632 116.096 308.782 115.012C307.947 113.928 307.303 112.653 306.849 111.188C306.409 109.724 306.189 108.127 306.189 106.398ZM313.594 105.937V106.398C313.594 107.292 313.675 108.12 313.836 108.881C314.012 109.643 314.275 110.317 314.627 110.903C314.979 111.474 315.411 111.921 315.923 112.243C316.451 112.565 317.066 112.727 317.769 112.727C318.838 112.727 319.703 112.5 320.362 112.045C321.021 111.591 321.497 110.947 321.79 110.112C322.083 109.277 322.208 108.295 322.164 107.167V105.432C322.193 104.465 322.127 103.615 321.966 102.883C321.805 102.136 321.548 101.513 321.197 101.015C320.86 100.517 320.406 100.144 319.834 99.8945C319.278 99.6309 318.604 99.499 317.813 99.499C317.125 99.499 316.517 99.6602 315.989 99.9824C315.462 100.305 315.022 100.759 314.671 101.345C314.319 101.916 314.048 102.597 313.858 103.388C313.682 104.165 313.594 105.014 313.594 105.937Z" fill="#424241"/>
<path d="M1363 15C1363 6.71573 1356.28 0 1348 0H1134V167H1348C1356.28 167 1363 160.284 1363 152V15Z" fill="#1A7C6B"/>
<path fill-rule="evenodd" clip-rule="evenodd" d="M1203 49C1203 47.8954 1203.9 47 1205 47H1292.5C1293.6 47 1294.5 47.8954 1294.5 49V118.996C1294.5 120.101 1293.6 120.996 1292.5 120.996H1205C1203.9 120.996 1203 120.101 1203 118.996V49ZM1207 51V55.4945H1290.5V51H1207ZM1290.5 59.4945H1235.44V116.996H1290.5V59.4945ZM1231.44 116.996V59.4945H1207V116.996H1231.44Z" fill="white"/>
<path fill-rule="evenodd" clip-rule="evenodd" d="M1209.97 64.8004C1209.97 63.6958 1210.87 62.8004 1211.97 62.8004H1225.97C1227.08 62.8004 1227.97 63.6958 1227.97 64.8004V84.1956C1227.97 85.3001 1227.08 86.1956 1225.97 86.1956H1211.97C1210.87 86.1956 1209.97 85.3001 1209.97 84.1956V64.8004ZM1213.97 66.8004V82.1956H1223.97V66.8004H1213.97ZM1239.58 65.6964C1239.58 64.5918 1240.47 63.6964 1241.58 63.6964H1284.5C1285.61 63.6964 1286.5 64.5918 1286.5 65.6964V111.905C1286.5 113.01 1285.61 113.905 1284.5 113.905H1241.58C1240.47 113.905 1239.58 113.01 1239.58 111.905V65.6964ZM1243.58 67.6964V109.905H1282.5V67.6964H1243.58ZM1209.81 95.9363C1209.81 94.8317 1210.71 93.9363 1211.81 93.9363H1220.73C1221.84 93.9363 1222.73 94.8317 1222.73 95.9363C1222.73 97.0409 1221.84 97.9363 1220.73 97.9363H1211.81C1210.71 97.9363 1209.81 97.0409 1209.81 95.9363ZM1209.81 102.936C1209.81 101.832 1210.71 100.936 1211.81 100.936H1226.35C1227.46 100.936 1228.35 101.832 1228.35 102.936C1228.35 104.041 1227.46 104.936 1226.35 104.936H1211.81C1210.71 104.936 1209.81 104.041 1209.81 102.936ZM1209.81 109.936C1209.81 108.832 1210.71 107.936 1211.81 107.936H1220.73C1221.84 107.936 1222.73 108.832 1222.73 109.936C1222.73 111.041 1221.84 111.936 1220.73 111.936H1211.81C1210.71 111.936 1209.81 111.041 1209.81 109.936Z" fill="white"/>
</svg>
