<svg width="390" height="844" viewBox="0 0 390 844" fill="none" xmlns="http://www.w3.org/2000/svg">
<rect width="390" height="844" fill="#EFEFEF"/>
<rect width="334" height="844" fill="#1A7C6B"/>
<rect x="22" y="290" width="290" height="44" rx="10" fill="#35DB9F"/>
<rect x="22" y="778" width="290" height="44" rx="10" fill="white" fill-opacity="0.25"/>
<path d="M37.9482 805V794.091H40.2546V803.098H44.9315V805H37.9482ZM50.113 805.16C49.2856 805.16 48.57 804.984 47.9664 804.632C47.3662 804.277 46.9028 803.784 46.5761 803.152C46.2494 802.516 46.086 801.779 46.086 800.941C46.086 800.096 46.2494 799.357 46.5761 798.725C46.9028 798.089 47.3662 797.596 47.9664 797.244C48.57 796.889 49.2856 796.712 50.113 796.712C50.9404 796.712 51.6542 796.889 52.2544 797.244C52.858 797.596 53.3232 798.089 53.6499 798.725C53.9767 799.357 54.14 800.096 54.14 800.941C54.14 801.779 53.9767 802.516 53.6499 803.152C53.3232 803.784 52.858 804.277 52.2544 804.632C51.6542 804.984 50.9404 805.16 50.113 805.16ZM50.1237 803.402C50.5001 803.402 50.8144 803.295 51.0665 803.082C51.3186 802.866 51.5086 802.571 51.6365 802.198C51.7678 801.825 51.8335 801.401 51.8335 800.925C51.8335 800.449 51.7678 800.025 51.6365 799.652C51.5086 799.279 51.3186 798.984 51.0665 798.768C50.8144 798.551 50.5001 798.443 50.1237 798.443C49.7437 798.443 49.4241 798.551 49.1649 798.768C48.9092 798.984 48.7156 799.279 48.5843 799.652C48.4564 800.025 48.3925 800.449 48.3925 800.925C48.3925 801.401 48.4564 801.825 48.5843 802.198C48.7156 802.571 48.9092 802.866 49.1649 803.082C49.4241 803.295 49.7437 803.402 50.1237 803.402ZM59.3016 808.239C58.5665 808.239 57.9362 808.137 57.4106 807.935C56.8886 807.736 56.4731 807.464 56.1642 807.12C55.8552 806.776 55.6546 806.388 55.5622 805.959L57.661 805.676C57.7249 805.84 57.8261 805.993 57.9646 806.135C58.1031 806.277 58.286 806.39 58.5132 806.475C58.7441 806.564 59.0246 806.609 59.3548 806.609C59.8485 806.609 60.2551 806.488 60.5747 806.246C60.8978 806.009 61.0594 805.609 61.0594 805.048V803.551H60.9635C60.8641 803.778 60.7149 803.993 60.5161 804.196C60.3172 804.398 60.0615 804.563 59.749 804.691C59.4365 804.819 59.0637 804.883 58.6304 804.883C58.0161 804.883 57.4568 804.741 56.9525 804.457C56.4518 804.169 56.0523 803.73 55.754 803.141C55.4593 802.548 55.3119 801.799 55.3119 800.893C55.3119 799.966 55.4628 799.192 55.7646 798.571C56.0665 797.949 56.4678 797.484 56.9685 797.175C57.4727 796.866 58.0249 796.712 58.6251 796.712C59.0832 796.712 59.4667 796.79 59.7757 796.946C60.0846 797.099 60.3332 797.29 60.5214 797.521C60.7132 797.749 60.8605 797.972 60.9635 798.192H61.0487V796.818H63.3019V805.08C63.3019 805.776 63.1315 806.358 62.7906 806.827C62.4497 807.296 61.9774 807.647 61.3737 807.882C60.7735 808.12 60.0828 808.239 59.3016 808.239ZM59.3495 803.178C59.7153 803.178 60.0242 803.088 60.2764 802.907C60.532 802.722 60.7274 802.459 60.8623 802.118C61.0008 801.774 61.07 801.362 61.07 800.882C61.07 800.403 61.0026 799.988 60.8676 799.636C60.7327 799.281 60.5374 799.006 60.2817 798.81C60.026 798.615 59.7153 798.517 59.3495 798.517C58.9767 798.517 58.6624 798.619 58.4067 798.821C58.151 799.02 57.9575 799.297 57.8261 799.652C57.6947 800.007 57.629 800.417 57.629 800.882C57.629 801.355 57.6947 801.763 57.8261 802.108C57.961 802.449 58.1546 802.713 58.4067 802.901C58.6624 803.086 58.9767 803.178 59.3495 803.178ZM68.8044 805.16C67.977 805.16 67.2615 804.984 66.6578 804.632C66.0576 804.277 65.5942 803.784 65.2675 803.152C64.9408 802.516 64.7774 801.779 64.7774 800.941C64.7774 800.096 64.9408 799.357 65.2675 798.725C65.5942 798.089 66.0576 797.596 66.6578 797.244C67.2615 796.889 67.977 796.712 68.8044 796.712C69.6318 796.712 70.3456 796.889 70.9458 797.244C71.5494 797.596 72.0146 798.089 72.3414 798.725C72.6681 799.357 72.8314 800.096 72.8314 800.941C72.8314 801.779 72.6681 802.516 72.3414 803.152C72.0146 803.784 71.5494 804.277 70.9458 804.632C70.3456 804.984 69.6318 805.16 68.8044 805.16ZM68.8151 803.402C69.1915 803.402 69.5058 803.295 69.7579 803.082C70.01 802.866 70.2 802.571 70.3279 802.198C70.4593 801.825 70.5249 801.401 70.5249 800.925C70.5249 800.449 70.4593 800.025 70.3279 799.652C70.2 799.279 70.01 798.984 69.7579 798.768C69.5058 798.551 69.1915 798.443 68.8151 798.443C68.4351 798.443 68.1155 798.551 67.8563 798.768C67.6006 798.984 67.407 799.279 67.2757 799.652C67.1478 800.025 67.0839 800.449 67.0839 800.925C67.0839 801.401 67.1478 801.825 67.2757 802.198C67.407 802.571 67.6006 802.866 67.8563 803.082C68.1155 803.295 68.4351 803.402 68.8151 803.402ZM79.5537 801.516V796.818H81.8229V805H79.6443V803.514H79.559C79.3744 803.993 79.0672 804.379 78.6375 804.67C78.2114 804.961 77.6911 805.107 77.0768 805.107C76.5299 805.107 76.0487 804.982 75.6333 804.734C75.2178 804.485 74.8928 804.132 74.6585 803.674C74.4276 803.216 74.3105 802.667 74.3069 802.028V796.818H76.5761V801.623C76.5796 802.106 76.7093 802.488 76.9649 802.768C77.2206 803.049 77.5633 803.189 77.993 803.189C78.2664 803.189 78.5221 803.127 78.76 803.002C78.998 802.875 79.1897 802.686 79.3353 802.438C79.4845 802.189 79.5573 801.882 79.5537 801.516ZM87.9899 796.818V798.523H83.0627V796.818H87.9899ZM84.1813 794.858H86.4505V802.486C86.4505 802.695 86.4824 802.859 86.5463 802.976C86.6103 803.089 86.699 803.169 86.8127 803.216C86.9299 803.262 87.0648 803.285 87.2175 803.285C87.324 803.285 87.4306 803.276 87.5371 803.258C87.6436 803.237 87.7253 803.221 87.7821 803.21L88.139 804.899C88.0254 804.934 87.8656 804.975 87.6596 805.021C87.4537 805.071 87.2033 805.101 86.9086 805.112C86.3617 805.133 85.8823 805.06 85.4703 804.893C85.062 804.727 84.7441 804.467 84.5169 804.116C84.2896 803.764 84.1777 803.32 84.1813 802.784V794.858Z" fill="white"/>
<path d="M41.9482 317V306.091H46.2521C47.0795 306.091 47.7844 306.249 48.3668 306.565C48.9492 306.877 49.3931 307.312 49.6985 307.87C50.0075 308.424 50.1619 309.063 50.1619 309.788C50.1619 310.512 50.0057 311.151 49.6932 311.705C49.3807 312.259 48.9279 312.691 48.3349 313C47.7454 313.309 47.0316 313.463 46.1935 313.463H43.4503V311.615H45.8207C46.2646 311.615 46.6303 311.538 46.918 311.386C47.2092 311.229 47.4258 311.015 47.5678 310.741C47.7134 310.464 47.7862 310.146 47.7862 309.788C47.7862 309.425 47.7134 309.109 47.5678 308.839C47.4258 308.566 47.2092 308.355 46.918 308.206C46.6268 308.053 46.2575 307.977 45.81 307.977H44.2546V317H41.9482ZM51.6175 317V308.818H53.8174V310.246H53.9026C54.0518 309.738 54.3021 309.354 54.6537 309.095C55.0052 308.832 55.4101 308.701 55.8682 308.701C55.9818 308.701 56.1043 308.708 56.2357 308.722C56.3671 308.737 56.4825 308.756 56.5819 308.781V310.794C56.4754 310.762 56.328 310.734 56.1398 310.709C55.9516 310.684 55.7794 310.672 55.6231 310.672C55.2893 310.672 54.991 310.745 54.7282 310.89C54.469 311.032 54.2631 311.231 54.1104 311.487C53.9612 311.743 53.8866 312.037 53.8866 312.371V317H51.6175ZM61.071 317.16C60.2436 317.16 59.5281 316.984 58.9244 316.632C58.3242 316.277 57.8608 315.784 57.5341 315.152C57.2074 314.516 57.044 313.779 57.044 312.941C57.044 312.096 57.2074 311.357 57.5341 310.725C57.8608 310.089 58.3242 309.596 58.9244 309.244C59.5281 308.889 60.2436 308.712 61.071 308.712C61.8984 308.712 62.6122 308.889 63.2124 309.244C63.8161 309.596 64.2812 310.089 64.608 310.725C64.9347 311.357 65.098 312.096 65.098 312.941C65.098 313.779 64.9347 314.516 64.608 315.152C64.2812 315.784 63.8161 316.277 63.2124 316.632C62.6122 316.984 61.8984 317.16 61.071 317.16ZM61.0817 315.402C61.4581 315.402 61.7724 315.295 62.0245 315.082C62.2766 314.866 62.4666 314.571 62.5945 314.198C62.7259 313.825 62.7915 313.401 62.7915 312.925C62.7915 312.449 62.7259 312.025 62.5945 311.652C62.4666 311.279 62.2766 310.984 62.0245 310.768C61.7724 310.551 61.4581 310.443 61.0817 310.443C60.7017 310.443 60.3821 310.551 60.1229 310.768C59.8672 310.984 59.6737 311.279 59.5423 311.652C59.4144 312.025 59.3505 312.449 59.3505 312.925C59.3505 313.401 59.4144 313.825 59.5423 314.198C59.6737 314.571 59.8672 314.866 60.1229 315.082C60.3821 315.295 60.7017 315.402 61.0817 315.402ZM70.9734 308.818V310.523H65.9237V308.818H70.9734ZM67.0795 317V308.227C67.0795 307.634 67.195 307.142 67.4258 306.751C67.6602 306.361 67.9798 306.068 68.3846 305.873C68.7894 305.677 69.2493 305.58 69.7642 305.58C70.1122 305.58 70.43 305.606 70.7177 305.659C71.0089 305.713 71.2255 305.761 71.3675 305.803L70.9627 307.508C70.8739 307.479 70.7638 307.453 70.6325 307.428C70.5046 307.403 70.3732 307.391 70.2383 307.391C69.9045 307.391 69.6719 307.469 69.5405 307.625C69.4091 307.778 69.3434 307.993 69.3434 308.27V317H67.0795ZM72.3596 317V308.818H74.6288V317H72.3596ZM73.4996 307.763C73.1622 307.763 72.8728 307.652 72.6313 307.428C72.3934 307.201 72.2744 306.929 72.2744 306.613C72.2744 306.3 72.3934 306.032 72.6313 305.809C72.8728 305.581 73.1622 305.468 73.4996 305.468C73.8369 305.468 74.1246 305.581 74.3625 305.809C74.604 306.032 74.7247 306.3 74.7247 306.613C74.7247 306.929 74.604 307.201 74.3625 307.428C74.1246 307.652 73.8369 307.763 73.4996 307.763ZM78.7157 306.091V317H76.4466V306.091H78.7157ZM84.2622 317.16C83.4205 317.16 82.6961 316.989 82.0889 316.648C81.4852 316.304 81.02 315.817 80.6933 315.189C80.3666 314.557 80.2032 313.809 80.2032 312.946C80.2032 312.105 80.3666 311.366 80.6933 310.73C81.02 310.095 81.4798 309.599 82.0729 309.244C82.6695 308.889 83.3691 308.712 84.1716 308.712C84.7114 308.712 85.2139 308.799 85.6791 308.973C86.1478 309.143 86.5562 309.401 86.9042 309.745C87.2558 310.089 87.5292 310.523 87.7245 311.045C87.9198 311.563 88.0175 312.17 88.0175 312.866V313.49H81.1088V312.083H85.8815C85.8815 311.757 85.8105 311.467 85.6684 311.215C85.5264 310.963 85.3293 310.766 85.0771 310.624C84.8286 310.478 84.5392 310.406 84.2089 310.406C83.8644 310.406 83.559 310.485 83.2927 310.645C83.0299 310.801 82.824 311.013 82.6748 311.279C82.5257 311.542 82.4493 311.835 82.4458 312.158V313.495C82.4458 313.9 82.5203 314.25 82.6695 314.544C82.8222 314.839 83.037 315.066 83.314 315.226C83.591 315.386 83.9195 315.466 84.2994 315.466C84.5516 315.466 84.7824 315.43 84.9919 315.359C85.2014 315.288 85.3808 315.182 85.5299 315.04C85.6791 314.898 85.7927 314.724 85.8708 314.518L87.9695 314.656C87.863 315.161 87.6446 315.601 87.3144 315.977C86.9877 316.35 86.5651 316.641 86.0466 316.851C85.5317 317.057 84.9369 317.16 84.2622 317.16Z" fill="white"/>
<rect x="22" y="353" width="290" height="44" rx="10" fill="white" fill-opacity="0.25"/>
<path d="M39.8285 380H37.3569L41.1229 369.091H44.0952L47.8558 380H45.3842L42.6516 371.584H42.5664L39.8285 380ZM39.674 375.712H45.5121V377.512H39.674V375.712ZM49.1262 383.068V371.818H51.3635V373.192H51.4647C51.5641 372.972 51.7079 372.749 51.8961 372.521C52.0879 372.29 52.3365 372.099 52.6419 371.946C52.9508 371.79 53.3343 371.712 53.7924 371.712C54.389 371.712 54.9395 371.868 55.4437 372.18C55.948 372.489 56.351 372.956 56.6529 373.581C56.9547 374.203 57.1056 374.982 57.1056 375.92C57.1056 376.832 56.9583 377.603 56.6635 378.232C56.3723 378.857 55.9746 379.331 55.4703 379.654C54.9696 379.973 54.4086 380.133 53.7871 380.133C53.3468 380.133 52.9721 380.06 52.6632 379.915C52.3578 379.769 52.1074 379.586 51.9121 379.366C51.7168 379.142 51.5676 378.917 51.4647 378.69H51.3954V383.068H49.1262ZM51.3475 375.909C51.3475 376.396 51.415 376.82 51.5499 377.182C51.6848 377.544 51.8801 377.827 52.1358 378.029C52.3915 378.228 52.7022 378.327 53.068 378.327C53.4373 378.327 53.7498 378.226 54.0055 378.024C54.2612 377.818 54.4547 377.534 54.5861 377.172C54.7211 376.806 54.7885 376.385 54.7885 375.909C54.7885 375.437 54.7228 375.021 54.5914 374.663C54.46 374.304 54.2665 374.023 54.0108 373.821C53.7551 373.619 53.4409 373.517 53.068 373.517C52.6987 373.517 52.3862 373.615 52.1305 373.81C51.8784 374.006 51.6848 374.283 51.5499 374.641C51.415 375 51.3475 375.423 51.3475 375.909ZM58.6184 383.068V371.818H60.8556V373.192H60.9569C61.0563 372.972 61.2001 372.749 61.3883 372.521C61.5801 372.29 61.8287 372.099 62.1341 371.946C62.443 371.79 62.8265 371.712 63.2846 371.712C63.8812 371.712 64.4316 371.868 64.9359 372.18C65.4402 372.489 65.8432 372.956 66.1451 373.581C66.4469 374.203 66.5978 374.982 66.5978 375.92C66.5978 376.832 66.4505 377.603 66.1557 378.232C65.8645 378.857 65.4668 379.331 64.9625 379.654C64.4618 379.973 63.9007 380.133 63.2793 380.133C62.839 380.133 62.4643 380.06 62.1554 379.915C61.85 379.769 61.5996 379.586 61.4043 379.366C61.209 379.142 61.0598 378.917 60.9569 378.69H60.8876V383.068H58.6184ZM60.8397 375.909C60.8397 376.396 60.9071 376.82 61.0421 377.182C61.177 377.544 61.3723 377.827 61.628 378.029C61.8837 378.228 62.1944 378.327 62.5602 378.327C62.9295 378.327 63.242 378.226 63.4977 378.024C63.7534 377.818 63.9469 377.534 64.0783 377.172C64.2132 376.806 64.2807 376.385 64.2807 375.909C64.2807 375.437 64.215 375.021 64.0836 374.663C63.9522 374.304 63.7587 374.023 63.503 373.821C63.2473 373.619 62.9331 373.517 62.5602 373.517C62.1909 373.517 61.8784 373.615 61.6227 373.81C61.3706 374.006 61.177 374.283 61.0421 374.641C60.9071 375 60.8397 375.423 60.8397 375.909ZM71.8074 380.16C70.9799 380.16 70.2644 379.984 69.6607 379.632C69.0605 379.277 68.5971 378.784 68.2704 378.152C67.9437 377.516 67.7804 376.779 67.7804 375.941C67.7804 375.096 67.9437 374.357 68.2704 373.725C68.5971 373.089 69.0605 372.596 69.6607 372.244C70.2644 371.889 70.9799 371.712 71.8074 371.712C72.6348 371.712 73.3485 371.889 73.9487 372.244C74.5524 372.596 75.0176 373.089 75.3443 373.725C75.671 374.357 75.8343 375.096 75.8343 375.941C75.8343 376.779 75.671 377.516 75.3443 378.152C75.0176 378.784 74.5524 379.277 73.9487 379.632C73.3485 379.984 72.6348 380.16 71.8074 380.16ZM71.818 378.402C72.1944 378.402 72.5087 378.295 72.7608 378.082C73.013 377.866 73.2029 377.571 73.3308 377.198C73.4622 376.825 73.5279 376.401 73.5279 375.925C73.5279 375.449 73.4622 375.025 73.3308 374.652C73.2029 374.279 73.013 373.984 72.7608 373.768C72.5087 373.551 72.1944 373.443 71.818 373.443C71.438 373.443 71.1184 373.551 70.8592 373.768C70.6035 373.984 70.41 374.279 70.2786 374.652C70.1507 375.025 70.0868 375.449 70.0868 375.925C70.0868 376.401 70.1507 376.825 70.2786 377.198C70.41 377.571 70.6035 377.866 70.8592 378.082C71.1184 378.295 71.438 378.402 71.818 378.402ZM77.3098 380V371.818H79.579V380H77.3098ZM78.4498 370.763C78.1124 370.763 77.823 370.652 77.5815 370.428C77.3436 370.201 77.2246 369.929 77.2246 369.613C77.2246 369.3 77.3436 369.032 77.5815 368.809C77.823 368.581 78.1124 368.468 78.4498 368.468C78.7871 368.468 79.0748 368.581 79.3127 368.809C79.5542 369.032 79.6749 369.3 79.6749 369.613C79.6749 369.929 79.5542 370.201 79.3127 370.428C79.0748 370.652 78.7871 370.763 78.4498 370.763ZM83.6659 375.27V380H81.3968V371.818H83.5594V373.262H83.6553C83.8364 372.786 84.14 372.409 84.5661 372.132C84.9923 371.852 85.509 371.712 86.1162 371.712C86.6844 371.712 87.1798 371.836 87.6024 372.085C88.0249 372.333 88.3534 372.688 88.5878 373.15C88.8222 373.608 88.9394 374.155 88.9394 374.79V380H86.6702V375.195C86.6737 374.695 86.5459 374.304 86.2867 374.023C86.0274 373.739 85.6705 373.597 85.216 373.597C84.9106 373.597 84.6407 373.663 84.4063 373.794C84.1755 373.926 83.9944 374.118 83.863 374.37C83.7352 374.618 83.6695 374.918 83.6659 375.27ZM95.0797 371.818V373.523H90.1525V371.818H95.0797ZM91.2711 369.858H93.5403V377.486C93.5403 377.695 93.5723 377.859 93.6362 377.976C93.7001 378.089 93.7889 378.169 93.9025 378.216C94.0197 378.262 94.1547 378.285 94.3074 378.285C94.4139 378.285 94.5204 378.276 94.627 378.258C94.7335 378.237 94.8152 378.221 94.872 378.21L95.2289 379.899C95.1152 379.934 94.9554 379.975 94.7495 380.021C94.5435 380.071 94.2931 380.101 93.9984 380.112C93.4515 380.133 92.9721 380.06 92.5602 379.893C92.1518 379.727 91.834 379.467 91.6067 379.116C91.3794 378.764 91.2676 378.32 91.2711 377.784V369.858ZM96.5579 380V371.818H98.7205V373.262H98.8164C98.9869 372.782 99.271 372.404 99.6687 372.127C100.066 371.85 100.542 371.712 101.096 371.712C101.657 371.712 102.135 371.852 102.529 372.132C102.923 372.409 103.186 372.786 103.317 373.262H103.403C103.57 372.793 103.871 372.418 104.308 372.138C104.749 371.854 105.269 371.712 105.869 371.712C106.632 371.712 107.252 371.955 107.728 372.441C108.207 372.924 108.447 373.61 108.447 374.498V380H106.183V374.945C106.183 374.49 106.063 374.15 105.821 373.922C105.58 373.695 105.278 373.581 104.915 373.581C104.504 373.581 104.182 373.713 103.951 373.975C103.721 374.235 103.605 374.577 103.605 375.004V380H101.405V374.897C101.405 374.496 101.29 374.176 101.059 373.938C100.832 373.7 100.532 373.581 100.159 373.581C99.9066 373.581 99.6793 373.645 99.4769 373.773C99.2781 373.897 99.12 374.073 99.0028 374.3C98.8857 374.524 98.8271 374.787 98.8271 375.089V380H96.5579ZM113.968 380.16C113.127 380.16 112.402 379.989 111.795 379.648C111.191 379.304 110.726 378.817 110.399 378.189C110.073 377.557 109.909 376.809 109.909 375.946C109.909 375.105 110.073 374.366 110.399 373.73C110.726 373.095 111.186 372.599 111.779 372.244C112.376 371.889 113.075 371.712 113.878 371.712C114.417 371.712 114.92 371.799 115.385 371.973C115.854 372.143 116.262 372.401 116.61 372.745C116.962 373.089 117.235 373.523 117.431 374.045C117.626 374.563 117.724 375.17 117.724 375.866V376.49H110.815V375.083H115.588C115.588 374.757 115.517 374.467 115.374 374.215C115.232 373.963 115.035 373.766 114.783 373.624C114.535 373.478 114.245 373.406 113.915 373.406C113.57 373.406 113.265 373.485 112.999 373.645C112.736 373.801 112.53 374.013 112.381 374.279C112.232 374.542 112.155 374.835 112.152 375.158V376.495C112.152 376.9 112.226 377.25 112.376 377.544C112.528 377.839 112.743 378.066 113.02 378.226C113.297 378.386 113.626 378.466 114.006 378.466C114.258 378.466 114.488 378.43 114.698 378.359C114.907 378.288 115.087 378.182 115.236 378.04C115.385 377.898 115.499 377.724 115.577 377.518L117.676 377.656C117.569 378.161 117.351 378.601 117.02 378.977C116.694 379.35 116.271 379.641 115.753 379.851C115.238 380.057 114.643 380.16 113.968 380.16ZM121.474 375.27V380H119.204V371.818H121.367V373.262H121.463C121.644 372.786 121.948 372.409 122.374 372.132C122.8 371.852 123.317 371.712 123.924 371.712C124.492 371.712 124.987 371.836 125.41 372.085C125.833 372.333 126.161 372.688 126.395 373.15C126.63 373.608 126.747 374.155 126.747 374.79V380H124.478V375.195C124.481 374.695 124.354 374.304 124.094 374.023C123.835 373.739 123.478 373.597 123.024 373.597C122.718 373.597 122.448 373.663 122.214 373.794C121.983 373.926 121.802 374.118 121.671 374.37C121.543 374.618 121.477 374.918 121.474 375.27ZM132.887 371.818V373.523H127.96V371.818H132.887ZM129.079 369.858H131.348V377.486C131.348 377.695 131.38 377.859 131.444 377.976C131.508 378.089 131.597 378.169 131.71 378.216C131.827 378.262 131.962 378.285 132.115 378.285C132.222 378.285 132.328 378.276 132.435 378.258C132.541 378.237 132.623 378.221 132.68 378.21L133.036 379.899C132.923 379.934 132.763 379.975 132.557 380.021C132.351 380.071 132.101 380.101 131.806 380.112C131.259 380.133 130.78 380.06 130.368 379.893C129.959 379.727 129.642 379.467 129.414 379.116C129.187 378.764 129.075 378.32 129.079 377.784V369.858ZM141.07 374.151L138.993 374.279C138.958 374.102 138.881 373.942 138.764 373.8C138.647 373.654 138.492 373.539 138.301 373.453C138.112 373.365 137.887 373.32 137.624 373.32C137.273 373.32 136.976 373.395 136.735 373.544C136.493 373.69 136.372 373.885 136.372 374.13C136.372 374.325 136.45 374.49 136.607 374.625C136.763 374.76 137.031 374.869 137.411 374.95L138.892 375.249C139.687 375.412 140.28 375.675 140.671 376.037C141.062 376.399 141.257 376.875 141.257 377.464C141.257 378.001 141.099 378.471 140.783 378.876C140.47 379.281 140.041 379.597 139.494 379.824C138.95 380.048 138.324 380.16 137.613 380.16C136.53 380.16 135.667 379.934 135.025 379.483C134.385 379.029 134.011 378.411 133.901 377.63L136.133 377.512C136.2 377.843 136.363 378.095 136.623 378.269C136.882 378.439 137.214 378.525 137.619 378.525C138.017 378.525 138.336 378.448 138.578 378.295C138.823 378.139 138.947 377.939 138.95 377.694C138.947 377.488 138.86 377.319 138.689 377.188C138.519 377.053 138.256 376.95 137.901 376.879L136.484 376.596C135.685 376.436 135.09 376.159 134.7 375.765C134.313 375.371 134.119 374.869 134.119 374.258C134.119 373.732 134.261 373.279 134.545 372.9C134.833 372.52 135.236 372.227 135.754 372.021C136.276 371.815 136.887 371.712 137.587 371.712C138.62 371.712 139.433 371.93 140.026 372.367C140.623 372.804 140.971 373.398 141.07 374.151Z" fill="white"/>
<path fill-rule="evenodd" clip-rule="evenodd" d="M189.719 70.0562C189.588 59.211 180.452 51.2673 175.9 48.6512C179.416 51.4523 186.17 59.7659 185.058 70.6111C184.211 78.8743 179.426 83.8135 175.033 88.3472C172.22 91.2514 169.567 93.9892 168.214 97.3278C165.088 105.044 168.181 109.401 170.578 110.721C170.851 110.919 171.111 111.017 171.321 111.043C171.087 110.971 170.837 110.863 170.578 110.721C169.72 110.097 168.737 108.482 168.787 105.018C168.846 100.853 173.083 96.5026 175.378 94.146C175.599 93.919 175.803 93.7105 175.982 93.5225C176.254 93.2373 176.619 92.8755 177.055 92.4439C180.817 88.715 189.836 79.7763 189.719 70.0562ZM175.151 69.1049C177.726 69.1049 179.812 67.0817 179.812 64.586C179.812 62.0903 177.726 60.0672 175.151 60.0672C172.577 60.0672 170.491 62.0903 170.491 64.586C170.491 67.0817 172.577 69.1049 175.151 69.1049Z" fill="white"/>
<path fill-rule="evenodd" clip-rule="evenodd" d="M154.219 89.8757C156.793 89.8757 158.88 87.8525 158.88 85.3568C158.88 82.8612 156.793 80.838 154.219 80.838C151.645 80.838 149.558 82.8612 149.558 85.3568C149.558 87.8525 151.645 89.8757 154.219 89.8757ZM167.226 86.0775C159.849 94.2166 146.503 108.943 156.935 123.41C157.693 124.682 159.366 126.825 162.104 129.594L159.119 134.43C154.62 130.549 150.939 125.807 149.249 120.16C144.408 103.987 161.786 87.6295 171.081 81.4722C170.404 82.5711 168.984 84.1371 167.226 86.0775ZM165.69 133.003C170.257 137.11 176.663 142.09 185.226 147.431C179.686 146.125 171.023 142.473 163.295 137.046L165.69 133.003Z" fill="white"/>
<path fill-rule="evenodd" clip-rule="evenodd" d="M177.277 83.6127C171.025 74.4456 158.175 66.2764 151.193 62.7626C158.314 64.4785 171.536 69.7614 179.812 80.1245L177.277 83.6127ZM185.699 90.827C188.512 101.545 183.001 111.787 181.202 113.976C179.867 115.6 177.571 118.098 175.021 120.872L175.02 120.874L175.019 120.874L175.019 120.874C169.478 126.902 162.74 134.232 162.068 136.729C161.551 137.944 160.499 140.804 160.433 142.516C160.351 144.657 161.987 147.669 163.867 149.493C161.987 148.726 158.373 145.545 158.961 138.949C159.515 132.74 169.24 121.925 174.881 115.651C175.234 115.259 175.57 114.885 175.887 114.531C178.922 110.891 183.425 101.94 180.826 90.827L184.225 87.1009C184.791 88.2958 185.286 89.5376 185.699 90.827ZM163.54 120.001C166.114 120.001 168.201 117.978 168.201 115.482C168.201 112.987 166.114 110.964 163.54 110.964C160.966 110.964 158.88 112.987 158.88 115.482C158.88 117.978 160.966 120.001 163.54 120.001Z" fill="white"/>
<path d="M117.383 181.197C116.859 181.197 116.362 181.057 115.89 180.779C115.436 180.501 115.209 180.144 115.209 179.709C115.209 179.483 115.244 179.24 115.314 178.979C115.401 178.718 115.48 178.474 115.55 178.248C116.091 176.596 116.597 175.056 117.069 173.63C117.54 172.186 118.012 170.803 118.483 169.481C118.972 168.141 119.478 166.802 120.002 165.463C120.543 164.123 121.146 162.723 121.809 161.262C121.146 161.401 120.578 161.583 120.107 161.809C119.636 162.018 119.251 162.21 118.955 162.384C118.658 162.54 118.44 162.618 118.3 162.618C118.213 162.618 118.082 162.557 117.907 162.436C117.75 162.314 117.61 162.175 117.488 162.018C117.366 161.862 117.305 161.723 117.305 161.601C117.793 161.392 118.361 161.175 119.007 160.948C119.67 160.722 120.386 160.531 121.155 160.374C121.923 160.218 122.691 160.14 123.459 160.14C124.28 160.14 125.118 160.253 125.974 160.479C126.829 160.687 127.615 161.009 128.331 161.444C129.064 161.862 129.649 162.392 130.086 163.036C130.539 163.662 130.766 164.401 130.766 165.254C130.766 166.176 130.557 166.967 130.138 167.628C129.719 168.289 129.16 168.846 128.462 169.298C127.781 169.75 127.039 170.116 126.236 170.394C125.432 170.672 124.629 170.881 123.826 171.02C123.04 171.159 122.333 171.255 121.705 171.307C121.076 171.36 120.605 171.386 120.29 171.386H120.133C119.644 173.108 119.164 174.83 118.693 176.552C118.221 178.257 117.785 179.805 117.383 181.197ZM120.369 170.577C121.347 170.507 122.324 170.342 123.302 170.081C124.28 169.82 125.162 169.463 125.947 169.011C126.751 168.541 127.388 167.959 127.859 167.263C128.348 166.567 128.593 165.758 128.593 164.836C128.593 163.967 128.357 163.262 127.886 162.723C127.432 162.183 126.838 161.775 126.105 161.496C125.389 161.218 124.629 161.07 123.826 161.053C123.197 162.27 122.595 163.714 122.019 165.384C121.443 167.037 120.893 168.768 120.369 170.577Z" fill="white"/>
<path d="M130.153 179.918C129.769 179.918 129.49 179.622 129.315 179.031C129.158 178.439 129.08 177.752 129.08 176.97C129.08 176.169 129.211 175.204 129.473 174.073C129.752 172.943 130.119 171.751 130.573 170.498C131.044 169.246 131.559 168.02 132.118 166.819C132.694 165.619 133.279 164.532 133.872 163.558C134.484 162.566 135.06 161.775 135.601 161.183C136.16 160.592 136.649 160.296 137.068 160.296C137.434 160.296 137.714 160.496 137.906 160.896C138.098 161.296 138.194 161.714 138.194 162.149C138.194 162.618 138.08 163.201 137.853 163.897C137.644 164.575 137.347 165.306 136.963 166.089C136.579 166.872 136.125 167.646 135.601 168.411C135.095 169.159 134.536 169.846 133.925 170.472C133.331 171.099 132.711 171.603 132.065 171.986C131.838 172.577 131.655 173.134 131.515 173.656C131.393 174.16 131.306 174.639 131.253 175.091C131.201 175.543 131.175 175.987 131.175 176.422C131.175 176.509 131.175 176.604 131.175 176.709C131.192 176.796 131.201 176.883 131.201 176.97C131.271 176.865 131.384 176.596 131.542 176.161C131.699 175.726 131.908 175.221 132.17 174.647C132.449 174.056 132.79 173.482 133.192 172.925C133.593 172.351 134.065 171.881 134.606 171.516C135.147 171.133 135.767 170.942 136.465 170.942C137.059 170.942 137.522 171.081 137.853 171.36C138.185 171.62 138.421 171.951 138.561 172.351C138.7 172.734 138.77 173.125 138.77 173.525C138.77 174.082 138.674 174.604 138.482 175.091C138.307 175.578 138.124 176.039 137.932 176.474C137.757 176.891 137.67 177.291 137.67 177.674C137.67 177.987 137.74 178.205 137.88 178.326C138.019 178.448 138.185 178.509 138.377 178.509C138.761 178.509 139.207 178.318 139.713 177.935C140.237 177.552 140.752 177.048 141.258 176.422C141.782 175.778 142.227 175.073 142.594 174.308L143.013 174.752C142.611 175.621 142.14 176.422 141.599 177.152C141.057 177.883 140.464 178.466 139.818 178.9C139.172 179.335 138.473 179.553 137.722 179.553C137.059 179.553 136.553 179.379 136.203 179.031C135.854 178.683 135.68 178.248 135.68 177.726C135.68 177.361 135.741 176.961 135.863 176.526C136.003 176.074 136.134 175.621 136.256 175.169C136.378 174.717 136.439 174.308 136.439 173.943C136.439 173.525 136.343 173.238 136.151 173.082C135.976 172.925 135.758 172.847 135.496 172.847C135.06 172.847 134.667 173.021 134.318 173.369C133.969 173.699 133.654 174.134 133.375 174.673C133.096 175.213 132.834 175.787 132.589 176.395C132.345 176.987 132.1 177.552 131.856 178.092C131.611 178.631 131.349 179.066 131.07 179.396C130.808 179.744 130.503 179.918 130.153 179.918ZM132.615 170.316C133.069 169.916 133.506 169.437 133.925 168.881C134.344 168.324 134.728 167.75 135.077 167.159C135.444 166.55 135.758 165.967 136.02 165.41C136.299 164.836 136.518 164.323 136.675 163.871C136.832 163.419 136.919 163.071 136.937 162.827C136.937 162.81 136.937 162.801 136.937 162.801C136.937 162.784 136.937 162.766 136.937 162.749C136.832 162.749 136.605 162.966 136.256 163.401C135.924 163.819 135.531 164.393 135.077 165.123C134.641 165.837 134.196 166.645 133.742 167.55C133.305 168.455 132.93 169.376 132.615 170.316Z" fill="white"/>
<path d="M143.148 186.233C142.711 186.233 142.301 186.093 141.917 185.815C141.55 185.554 141.367 185.128 141.367 184.537C141.367 183.98 141.533 183.475 141.864 183.023C142.196 182.588 142.624 182.179 143.148 181.797C143.671 181.431 144.23 181.092 144.824 180.779C145.435 180.483 146.02 180.205 146.579 179.944C146.771 179.44 146.98 178.805 147.207 178.039C147.452 177.257 147.661 176.535 147.836 175.874C147.294 176.622 146.718 177.283 146.107 177.857C145.496 178.431 144.815 178.718 144.064 178.718C143.75 178.718 143.418 178.657 143.069 178.535C142.72 178.396 142.423 178.17 142.179 177.857C141.952 177.526 141.838 177.091 141.838 176.552C141.838 176.1 141.917 175.552 142.074 174.908C142.248 174.265 142.458 173.638 142.702 173.029C142.964 172.403 143.235 171.89 143.514 171.49C143.794 171.073 144.038 170.864 144.248 170.864C144.352 170.864 144.501 170.907 144.693 170.994C144.902 171.064 145.103 171.168 145.295 171.307C145.487 171.429 145.609 171.568 145.662 171.725C145.505 171.934 145.33 172.238 145.138 172.638C144.946 173.021 144.763 173.456 144.588 173.943C144.413 174.412 144.265 174.873 144.143 175.326C144.038 175.778 143.986 176.169 143.986 176.5C143.986 176.761 144.038 176.987 144.143 177.178C144.248 177.37 144.448 177.465 144.745 177.465C145.129 177.465 145.522 177.309 145.924 176.996C146.343 176.683 146.744 176.282 147.129 175.795C147.53 175.308 147.888 174.813 148.202 174.308C148.237 174.186 148.272 173.995 148.307 173.734C148.342 173.473 148.403 173.203 148.49 172.925C148.578 172.629 148.726 172.36 148.936 172.116C149.163 171.873 149.477 171.751 149.879 171.751C150.018 171.751 150.149 171.76 150.271 171.777C150.394 171.794 150.542 171.821 150.717 171.855C150.717 172.116 150.621 172.629 150.429 173.395C150.254 174.143 150.018 175.013 149.721 176.004C149.425 176.996 149.093 177.987 148.726 178.979C149.459 178.683 150.219 178.196 151.005 177.517C151.808 176.822 152.454 175.839 152.943 174.569L153.388 174.934C153.126 175.804 152.725 176.561 152.183 177.204C151.659 177.848 151.066 178.396 150.402 178.848C149.739 179.301 149.067 179.675 148.386 179.97C147.914 181.101 147.399 182.145 146.84 183.101C146.299 184.058 145.723 184.815 145.112 185.371C144.501 185.946 143.846 186.233 143.148 186.233ZM142.886 185.267C143.217 185.267 143.68 184.919 144.274 184.223C144.867 183.528 145.47 182.484 146.081 181.092C145.522 181.371 144.955 181.692 144.379 182.058C143.82 182.44 143.348 182.84 142.964 183.258C142.58 183.675 142.388 184.102 142.388 184.537C142.388 184.71 142.423 184.876 142.493 185.032C142.58 185.189 142.711 185.267 142.886 185.267Z" fill="white"/>
<path d="M155.441 180.257C154.568 180.257 153.861 180.075 153.32 179.709C152.796 179.361 152.421 178.918 152.194 178.379C151.967 177.822 151.853 177.257 151.853 176.683C151.853 176.178 151.923 175.787 152.063 175.508C152.202 175.23 152.377 175.03 152.586 174.908C152.796 174.769 152.988 174.665 153.163 174.595C153.355 174.525 153.494 174.447 153.582 174.36C154.018 173.908 154.463 173.386 154.917 172.795C155.389 172.186 155.79 171.516 156.122 170.785V170.525C156.122 169.829 156.236 169.342 156.463 169.063C156.707 168.768 156.986 168.62 157.301 168.62C157.51 168.62 157.659 168.672 157.746 168.776C157.851 168.881 157.912 169.002 157.929 169.142C157.929 169.246 157.903 169.368 157.851 169.507C157.816 169.646 157.798 169.837 157.798 170.081C157.798 170.603 157.921 171.203 158.165 171.881C158.427 172.542 158.68 173.247 158.924 173.995C159.186 174.743 159.317 175.508 159.317 176.291C159.317 176.5 159.309 176.691 159.291 176.865C159.274 177.039 159.247 177.204 159.213 177.361C159.754 177.222 160.286 176.926 160.81 176.474C161.334 176.004 161.832 175.317 162.303 174.412L162.617 174.647C162.286 175.639 161.805 176.439 161.177 177.048C160.548 177.639 159.815 178.005 158.977 178.144C158.697 178.857 158.235 179.387 157.589 179.735C156.96 180.083 156.244 180.257 155.441 180.257ZM155.258 179.109C155.607 179.109 155.93 179.022 156.227 178.848C156.524 178.674 156.759 178.422 156.934 178.092C156.218 177.935 155.572 177.657 154.996 177.257C154.42 176.856 153.974 176.448 153.66 176.03C153.416 176.082 153.294 176.317 153.294 176.735C153.294 177.309 153.459 177.848 153.791 178.352C154.123 178.857 154.612 179.109 155.258 179.109ZM157.144 177.309C157.178 177.187 157.196 177.048 157.196 176.891C157.213 176.717 157.222 176.587 157.222 176.5C157.205 175.717 157.1 174.943 156.908 174.178C156.716 173.412 156.524 172.629 156.332 171.829C156.017 172.368 155.651 172.951 155.232 173.577C154.813 174.204 154.42 174.708 154.053 175.091C154.332 175.561 154.743 176.004 155.284 176.422C155.825 176.839 156.445 177.135 157.144 177.309Z" fill="white"/>
<path d="M163.654 179.709C162.886 179.709 162.31 179.483 161.926 179.031C161.541 178.579 161.349 178.031 161.349 177.387C161.349 176.987 161.419 176.482 161.559 175.874C161.699 175.265 161.891 174.63 162.135 173.969C162.397 173.29 162.694 172.655 163.026 172.064C163.357 171.473 163.715 170.994 164.099 170.629C164.483 170.246 164.868 170.055 165.252 170.055C165.461 170.055 165.645 170.124 165.802 170.264C165.959 170.385 166.037 170.568 166.037 170.812C166.037 171.038 165.898 171.377 165.618 171.829C165.356 172.281 165.042 172.803 164.676 173.395C164.326 173.986 164.012 174.604 163.733 175.247C163.471 175.874 163.34 176.474 163.34 177.048C163.34 177.604 163.436 177.978 163.628 178.17C163.837 178.344 164.134 178.431 164.518 178.431C165.112 178.431 165.758 178.135 166.456 177.544C167.155 176.952 167.879 175.917 168.63 174.439L169.023 174.856C168.412 176.387 167.635 177.578 166.692 178.431C165.749 179.283 164.737 179.709 163.654 179.709ZM166.745 167.941C166.413 167.941 166.107 167.863 165.828 167.707C165.566 167.533 165.435 167.272 165.435 166.924C165.435 166.506 165.662 166.15 166.116 165.854C166.57 165.558 167.041 165.41 167.53 165.41C167.845 165.41 168.106 165.48 168.316 165.619C168.543 165.758 168.656 166.01 168.656 166.376C168.656 166.741 168.456 167.098 168.054 167.446C167.653 167.776 167.216 167.941 166.745 167.941Z" fill="white"/>
<path d="M169.682 179.761C168.896 179.761 168.355 179.501 168.058 178.979C167.778 178.474 167.639 177.918 167.639 177.309C167.639 176.752 167.726 176.187 167.901 175.613C168.075 175.021 168.311 174.473 168.608 173.969C168.922 173.464 169.263 173.064 169.629 172.769C170.013 172.455 170.397 172.299 170.782 172.299C170.904 172.299 171.043 172.325 171.201 172.377C171.375 172.412 171.497 172.473 171.567 172.56C171.358 172.821 171.14 173.143 170.913 173.525C170.703 173.908 170.502 174.317 170.31 174.752C170.136 175.169 169.996 175.595 169.891 176.03C169.786 176.465 169.734 176.865 169.734 177.23C169.734 177.578 169.795 177.865 169.917 178.092C170.057 178.318 170.293 178.431 170.624 178.431C170.956 178.431 171.349 178.248 171.803 177.883C172.274 177.5 172.72 177.065 173.139 176.578C172.58 176.074 172.178 175.526 171.934 174.934C171.69 174.325 171.567 173.595 171.567 172.742C171.567 172.377 171.655 171.96 171.829 171.49C172.021 171.02 172.318 170.612 172.72 170.264C173.139 169.916 173.697 169.742 174.396 169.742C175.147 169.742 175.67 169.951 175.967 170.368C176.282 170.785 176.439 171.281 176.439 171.855C176.439 172.499 176.264 173.221 175.915 174.021C175.583 174.821 175.182 175.578 174.71 176.291C174.92 176.395 175.164 176.448 175.443 176.448C175.705 176.448 176.02 176.387 176.386 176.265C176.753 176.143 177.111 175.943 177.46 175.665C177.809 175.369 178.089 174.978 178.298 174.491L178.77 174.83C178.386 175.717 177.87 176.369 177.224 176.787C176.596 177.187 175.976 177.387 175.365 177.387C175.138 177.387 174.911 177.37 174.684 177.335C174.457 177.283 174.247 177.222 174.055 177.152C173.462 177.848 172.781 178.457 172.013 178.979C171.244 179.501 170.467 179.761 169.682 179.761ZM173.82 175.743C174.239 175.134 174.597 174.482 174.893 173.786C175.19 173.09 175.339 172.447 175.339 171.855C175.339 171.455 175.278 171.168 175.155 170.994C175.033 170.803 174.85 170.707 174.605 170.707C174.274 170.707 173.933 170.942 173.584 171.412C173.235 171.881 173.06 172.473 173.06 173.186C173.06 173.551 173.121 173.995 173.243 174.517C173.383 175.039 173.575 175.447 173.82 175.743Z" fill="white"/>
<path d="M184.245 181.197C182.918 181.197 181.827 180.883 180.972 180.257C180.133 179.631 179.514 178.822 179.112 177.831C178.728 176.839 178.536 175.813 178.536 174.752C178.536 173.377 178.745 172.003 179.164 170.629C179.583 169.237 180.16 167.915 180.893 166.663C181.644 165.41 182.491 164.297 183.433 163.323C184.376 162.349 185.38 161.583 186.445 161.027C187.528 160.453 188.602 160.166 189.667 160.166C190.435 160.166 191.081 160.348 191.605 160.714C192.129 161.061 192.391 161.67 192.391 162.54C192.391 163.062 192.295 163.645 192.102 164.288C191.928 164.932 191.683 165.558 191.369 166.167C191.072 166.758 190.732 167.246 190.348 167.628C189.964 168.011 189.571 168.202 189.169 168.202C188.995 168.202 188.811 168.141 188.619 168.02C188.427 167.898 188.252 167.689 188.095 167.393C188.357 167.098 188.654 166.741 188.986 166.324C189.318 165.889 189.632 165.436 189.929 164.967C190.225 164.48 190.47 164.01 190.662 163.558C190.854 163.088 190.95 162.679 190.95 162.331C190.95 162.018 190.863 161.775 190.688 161.601C190.514 161.409 190.208 161.314 189.771 161.314C189.003 161.314 188.209 161.601 187.388 162.175C186.585 162.749 185.808 163.523 185.057 164.497C184.306 165.454 183.625 166.532 183.014 167.733C182.421 168.915 181.949 170.142 181.6 171.412C181.251 172.664 181.076 173.856 181.076 174.986C181.076 175.821 181.198 176.622 181.443 177.387C181.705 178.135 182.115 178.744 182.674 179.214C183.233 179.701 183.966 179.944 184.874 179.944C185.817 179.944 186.751 179.683 187.676 179.161C188.619 178.639 189.475 177.952 190.243 177.1C191.029 176.248 191.657 175.334 192.129 174.36L192.81 174.804C192.198 175.969 191.465 177.039 190.61 178.013C189.754 178.97 188.785 179.735 187.702 180.309C186.637 180.901 185.485 181.197 184.245 181.197Z" fill="white"/>
<path d="M192.976 180.153C192.4 180.153 191.902 179.962 191.483 179.579C191.046 179.196 190.828 178.622 190.828 177.857C190.828 177.248 190.968 176.587 191.247 175.874C191.527 175.16 191.911 174.456 192.4 173.76C192.888 173.064 193.447 172.438 194.076 171.881C194.704 171.307 195.377 170.846 196.092 170.498C196.808 170.151 197.524 169.977 198.24 169.977C198.991 169.977 199.628 170.168 200.152 170.551C200.676 170.933 200.938 171.438 200.938 172.064C200.938 172.534 200.772 172.873 200.44 173.082C200.108 173.29 199.715 173.351 199.261 173.264C199.296 173.108 199.323 172.951 199.34 172.795C199.375 172.638 199.392 172.473 199.392 172.299C199.392 171.951 199.323 171.638 199.183 171.36C199.043 171.081 198.746 170.942 198.292 170.942C197.804 170.942 197.306 171.107 196.8 171.438C196.293 171.768 195.804 172.203 195.333 172.742C194.879 173.264 194.469 173.847 194.102 174.491C193.735 175.117 193.447 175.734 193.238 176.343C193.028 176.952 192.923 177.5 192.923 177.987C192.923 178.544 193.124 178.822 193.526 178.822C193.927 178.822 194.373 178.631 194.861 178.248C195.35 177.848 195.839 177.352 196.328 176.761C196.834 176.169 197.315 175.569 197.769 174.96C198.223 174.334 198.615 173.804 198.947 173.369C199 173.282 199.069 173.238 199.157 173.238C199.227 173.256 199.357 173.299 199.55 173.369C199.759 173.421 199.951 173.508 200.126 173.63C200.3 173.751 200.388 173.908 200.388 174.099C200.388 174.273 200.309 174.499 200.152 174.778C200.012 175.039 199.838 175.334 199.628 175.665C199.436 175.978 199.261 176.3 199.104 176.63C198.965 176.943 198.895 177.248 198.895 177.544C198.895 177.77 198.956 177.987 199.078 178.196C199.2 178.387 199.401 178.483 199.68 178.483C200.1 178.483 200.684 178.179 201.435 177.57C202.203 176.943 202.98 175.891 203.766 174.412L204.264 174.908C203.845 175.848 203.338 176.683 202.745 177.413C202.169 178.126 201.557 178.683 200.911 179.083C200.265 179.501 199.611 179.709 198.947 179.709C198.231 179.709 197.699 179.483 197.35 179.031C197 178.579 196.808 178.092 196.773 177.57C196.773 177.535 196.773 177.509 196.773 177.491C196.773 177.474 196.773 177.457 196.773 177.439C196.075 178.274 195.429 178.935 194.835 179.422C194.259 179.909 193.639 180.153 192.976 180.153Z" fill="white"/>
<path d="M207.992 179.605C207.346 179.605 206.822 179.431 206.42 179.083C206.019 178.753 205.818 178.3 205.818 177.726C205.818 177.239 205.94 176.717 206.185 176.161C206.429 175.604 206.673 175.056 206.918 174.517C207.18 173.978 207.311 173.499 207.311 173.082C207.311 172.682 207.18 172.351 206.918 172.09C206.656 171.812 206.35 171.586 206.001 171.412C205.617 172.368 205.181 173.299 204.692 174.204C204.22 175.091 203.836 175.787 203.539 176.291L203.146 175.534C203.391 175.082 203.714 174.439 204.115 173.604C204.517 172.769 204.901 171.838 205.268 170.812C205.093 170.638 205.006 170.403 205.006 170.107C205.006 169.655 205.146 169.229 205.425 168.829C205.704 168.428 205.975 168.228 206.237 168.228C206.446 168.228 206.595 168.35 206.682 168.594C206.787 168.82 206.839 168.976 206.839 169.063C206.839 169.15 206.796 169.307 206.708 169.533C206.638 169.759 206.586 169.924 206.551 170.029C206.569 170.22 206.717 170.411 206.996 170.603C207.293 170.777 207.625 170.986 207.992 171.229C208.358 171.473 208.681 171.777 208.961 172.142C209.24 172.508 209.38 172.969 209.38 173.525C209.38 174.03 209.266 174.543 209.039 175.065C208.812 175.587 208.585 176.074 208.358 176.526C208.131 176.978 208.018 177.37 208.018 177.7C208.018 177.944 208.079 178.109 208.201 178.196C208.341 178.265 208.498 178.3 208.673 178.3C209.092 178.3 209.528 178.179 209.982 177.935C210.436 177.674 210.881 177.344 211.318 176.943C211.754 176.543 212.138 176.126 212.47 175.691C212.802 175.239 213.055 174.83 213.23 174.465L213.858 174.934C213.527 175.682 213.046 176.422 212.418 177.152C211.789 177.865 211.091 178.457 210.323 178.927C209.554 179.379 208.777 179.605 207.992 179.605Z" fill="white"/>
<path d="M215.699 180.075C214.582 180.075 213.717 179.77 213.106 179.161C212.513 178.57 212.216 177.822 212.216 176.917C212.216 176.152 212.408 175.343 212.792 174.491C213.193 173.621 213.726 172.812 214.389 172.064C215.053 171.299 215.786 170.681 216.589 170.211C217.393 169.742 218.196 169.507 218.999 169.507C219.453 169.507 219.881 169.629 220.282 169.872C220.701 170.098 220.911 170.559 220.911 171.255C220.911 171.916 220.719 172.534 220.335 173.108C219.951 173.682 219.436 174.195 218.789 174.647C218.143 175.1 217.428 175.474 216.642 175.769C215.874 176.048 215.097 176.23 214.311 176.317C214.293 176.387 214.276 176.465 214.259 176.552C214.259 176.622 214.259 176.743 214.259 176.917C214.259 177.004 214.267 177.161 214.285 177.387C214.32 177.596 214.398 177.822 214.52 178.065C214.643 178.309 214.843 178.518 215.123 178.692C215.402 178.866 215.786 178.953 216.275 178.953C217.009 178.953 217.742 178.753 218.475 178.352C219.226 177.935 219.924 177.387 220.57 176.709C221.234 176.03 221.784 175.273 222.22 174.439L222.744 174.856C222.273 175.9 221.662 176.813 220.911 177.596C220.178 178.379 219.357 178.987 218.449 179.422C217.559 179.857 216.642 180.075 215.699 180.075ZM214.599 175.352C215.053 175.3 215.559 175.143 216.118 174.882C216.677 174.621 217.209 174.291 217.716 173.891C218.239 173.49 218.667 173.056 218.999 172.586C219.331 172.099 219.497 171.612 219.497 171.125C219.497 170.933 219.462 170.803 219.392 170.733C219.322 170.664 219.209 170.629 219.051 170.629C218.65 170.629 218.231 170.777 217.794 171.073C217.358 171.351 216.93 171.725 216.511 172.195C216.092 172.647 215.716 173.151 215.385 173.708C215.053 174.265 214.791 174.813 214.599 175.352Z" fill="white"/>
<rect x="22" y="227" width="290" height="44" rx="10" fill="white" fill-opacity="0.25"/>
<path d="M37.9482 254V243.091H40.2546V247.592H44.9368V243.091H47.2379V254H44.9368V249.494H40.2546V254H37.9482ZM52.7937 254.16C51.9663 254.16 51.2507 253.984 50.647 253.632C50.0469 253.277 49.5835 252.784 49.2567 252.152C48.93 251.516 48.7667 250.779 48.7667 249.941C48.7667 249.096 48.93 248.357 49.2567 247.725C49.5835 247.089 50.0469 246.596 50.647 246.244C51.2507 245.889 51.9663 245.712 52.7937 245.712C53.6211 245.712 54.3349 245.889 54.935 246.244C55.5387 246.596 56.0039 247.089 56.3306 247.725C56.6573 248.357 56.8207 249.096 56.8207 249.941C56.8207 250.779 56.6573 251.516 56.3306 252.152C56.0039 252.784 55.5387 253.277 54.935 253.632C54.3349 253.984 53.6211 254.16 52.7937 254.16ZM52.8043 252.402C53.1808 252.402 53.495 252.295 53.7472 252.082C53.9993 251.866 54.1893 251.571 54.3171 251.198C54.4485 250.825 54.5142 250.401 54.5142 249.925C54.5142 249.449 54.4485 249.025 54.3171 248.652C54.1893 248.279 53.9993 247.984 53.7472 247.768C53.495 247.551 53.1808 247.443 52.8043 247.443C52.4244 247.443 52.1048 247.551 51.8455 247.768C51.5898 247.984 51.3963 248.279 51.2649 248.652C51.1371 249.025 51.0732 249.449 51.0732 249.925C51.0732 250.401 51.1371 250.825 51.2649 251.198C51.3963 251.571 51.5898 251.866 51.8455 252.082C52.1048 252.295 52.4244 252.402 52.8043 252.402ZM58.2962 254V245.818H60.4588V247.262H60.5547C60.7251 246.782 61.0092 246.404 61.407 246.127C61.8047 245.85 62.2805 245.712 62.8345 245.712C63.3956 245.712 63.8732 245.852 64.2674 246.132C64.6616 246.409 64.9244 246.786 65.0558 247.262H65.141C65.3079 246.793 65.6097 246.418 66.0465 246.138C66.4869 245.854 67.0071 245.712 67.6072 245.712C68.3707 245.712 68.9904 245.955 69.4663 246.441C69.9457 246.924 70.1854 247.61 70.1854 248.498V254H67.9215V248.945C67.9215 248.49 67.8008 248.15 67.5593 247.922C67.3178 247.695 67.016 247.581 66.6538 247.581C66.2418 247.581 65.9205 247.713 65.6896 247.975C65.4588 248.235 65.3434 248.577 65.3434 249.004V254H63.1435V248.897C63.1435 248.496 63.0281 248.176 62.7972 247.938C62.57 247.7 62.2699 247.581 61.897 247.581C61.6449 247.581 61.4176 247.645 61.2152 247.773C61.0163 247.897 60.8583 248.073 60.7411 248.3C60.6239 248.524 60.5653 248.787 60.5653 249.089V254H58.2962ZM75.7065 254.16C74.8649 254.16 74.1404 253.989 73.5332 253.648C72.9295 253.304 72.4643 252.817 72.1376 252.189C71.8109 251.557 71.6475 250.809 71.6475 249.946C71.6475 249.105 71.8109 248.366 72.1376 247.73C72.4643 247.095 72.9242 246.599 73.5172 246.244C74.1138 245.889 74.8134 245.712 75.6159 245.712C76.1557 245.712 76.6582 245.799 77.1234 245.973C77.5922 246.143 78.0005 246.401 78.3485 246.745C78.7001 247.089 78.9735 247.523 79.1689 248.045C79.3642 248.563 79.4618 249.17 79.4618 249.866V250.49H72.5531V249.083H77.3258C77.3258 248.757 77.2548 248.467 77.1127 248.215C76.9707 247.963 76.7736 247.766 76.5215 247.624C76.2729 247.478 75.9835 247.406 75.6532 247.406C75.3088 247.406 75.0034 247.485 74.737 247.645C74.4743 247.801 74.2683 248.013 74.1191 248.279C73.97 248.542 73.8936 248.835 73.8901 249.158V250.495C73.8901 250.9 73.9647 251.25 74.1138 251.544C74.2665 251.839 74.4814 252.066 74.7583 252.226C75.0353 252.386 75.3638 252.466 75.7438 252.466C75.9959 252.466 76.2267 252.43 76.4363 252.359C76.6458 252.288 76.8251 252.182 76.9743 252.04C77.1234 251.898 77.237 251.724 77.3152 251.518L79.4139 251.656C79.3074 252.161 79.089 252.601 78.7587 252.977C78.432 253.35 78.0094 253.641 77.4909 253.851C76.976 254.057 76.3812 254.16 75.7065 254.16Z" fill="white"/>
</svg>
