<svg width="390" height="844" viewBox="0 0 390 844" fill="none" xmlns="http://www.w3.org/2000/svg">
<rect width="390" height="844" fill="#EFEFEF"/>
<path d="M160.643 315V296.091H164.641V311.704H172.748V315H160.643ZM181.729 315.277C180.295 315.277 179.055 314.972 178.008 314.363C176.968 313.747 176.165 312.892 175.599 311.796C175.032 310.694 174.749 309.417 174.749 307.964C174.749 306.5 175.032 305.219 175.599 304.124C176.165 303.022 176.968 302.166 178.008 301.557C179.055 300.941 180.295 300.634 181.729 300.634C183.163 300.634 184.401 300.941 185.441 301.557C186.487 302.166 187.294 303.022 187.86 304.124C188.426 305.219 188.709 306.5 188.709 307.964C188.709 309.417 188.426 310.694 187.86 311.796C187.294 312.892 186.487 313.747 185.441 314.363C184.401 314.972 183.163 315.277 181.729 315.277ZM181.748 312.23C182.4 312.23 182.945 312.045 183.382 311.676C183.819 311.301 184.148 310.79 184.37 310.143C184.598 309.497 184.711 308.762 184.711 307.937C184.711 307.112 184.598 306.376 184.37 305.73C184.148 305.084 183.819 304.573 183.382 304.197C182.945 303.822 182.4 303.634 181.748 303.634C181.089 303.634 180.535 303.822 180.086 304.197C179.643 304.573 179.307 305.084 179.079 305.73C178.858 306.376 178.747 307.112 178.747 307.937C178.747 308.762 178.858 309.497 179.079 310.143C179.307 310.79 179.643 311.301 180.086 311.676C180.535 312.045 181.089 312.23 181.748 312.23ZM197.656 320.614C196.382 320.614 195.289 320.438 194.378 320.087C193.474 319.743 192.753 319.272 192.218 318.675C191.682 318.078 191.335 317.407 191.175 316.662L194.812 316.173C194.923 316.456 195.099 316.72 195.339 316.967C195.579 317.213 195.896 317.41 196.29 317.558C196.69 317.711 197.176 317.788 197.748 317.788C198.604 317.788 199.309 317.579 199.863 317.161C200.423 316.748 200.703 316.056 200.703 315.083V312.489H200.537C200.364 312.883 200.106 313.255 199.761 313.606C199.416 313.957 198.973 314.243 198.432 314.464C197.89 314.686 197.244 314.797 196.493 314.797C195.428 314.797 194.458 314.551 193.584 314.058C192.716 313.56 192.024 312.799 191.507 311.778C190.996 310.75 190.741 309.451 190.741 307.881C190.741 306.275 191.002 304.933 191.525 303.856C192.049 302.779 192.744 301.972 193.612 301.437C194.486 300.901 195.443 300.634 196.483 300.634C197.278 300.634 197.942 300.769 198.478 301.04C199.013 301.304 199.444 301.637 199.77 302.037C200.103 302.431 200.358 302.819 200.537 303.2H200.684V300.818H204.59V315.138C204.59 316.345 204.295 317.354 203.704 318.167C203.113 318.979 202.294 319.589 201.248 319.995C200.207 320.407 199.01 320.614 197.656 320.614ZM197.739 311.842C198.373 311.842 198.909 311.685 199.346 311.371C199.789 311.051 200.127 310.596 200.361 310.005C200.601 309.408 200.721 308.694 200.721 307.863C200.721 307.032 200.604 306.312 200.371 305.702C200.137 305.087 199.798 304.61 199.355 304.271C198.912 303.933 198.373 303.763 197.739 303.763C197.093 303.763 196.548 303.939 196.105 304.29C195.662 304.634 195.326 305.115 195.099 305.73C194.871 306.346 194.757 307.057 194.757 307.863C194.757 308.682 194.871 309.389 195.099 309.987C195.332 310.577 195.668 311.036 196.105 311.362C196.548 311.682 197.093 311.842 197.739 311.842ZM207.72 315V300.818H211.653V315H207.72ZM209.696 298.99C209.111 298.99 208.609 298.796 208.191 298.408C207.778 298.014 207.572 297.544 207.572 296.996C207.572 296.454 207.778 295.989 208.191 295.602C208.609 295.208 209.111 295.011 209.696 295.011C210.281 295.011 210.779 295.208 211.192 295.602C211.61 295.989 211.819 296.454 211.819 296.996C211.819 297.544 211.61 298.014 211.192 298.408C210.779 298.796 210.281 298.99 209.696 298.99ZM218.737 306.801V315H214.804V300.818H218.553V303.32H218.719C219.033 302.496 219.559 301.843 220.298 301.363C221.036 300.877 221.932 300.634 222.984 300.634C223.969 300.634 224.828 300.849 225.56 301.28C226.293 301.711 226.862 302.326 227.268 303.126C227.675 303.92 227.878 304.868 227.878 305.97V315H223.945V306.672C223.951 305.804 223.729 305.127 223.28 304.641C222.83 304.148 222.212 303.902 221.424 303.902C220.895 303.902 220.427 304.016 220.021 304.244C219.621 304.471 219.307 304.804 219.079 305.241C218.857 305.672 218.743 306.192 218.737 306.801Z" fill="#383838"/>
<path d="M90.6875 615H87.321V604.091H90.8366C91.8949 604.091 92.8004 604.309 93.5533 604.746C94.3061 605.179 94.8832 605.803 95.2844 606.616C95.6857 607.425 95.8864 608.395 95.8864 609.524C95.8864 610.661 95.6839 611.639 95.2791 612.459C94.8743 613.276 94.2848 613.904 93.5107 614.345C92.7365 614.782 91.7955 615 90.6875 615ZM88.642 613.828H90.6023C91.5043 613.828 92.2518 613.654 92.8448 613.306C93.4379 612.958 93.88 612.463 94.1712 611.82C94.4624 611.177 94.608 610.412 94.608 609.524C94.608 608.643 94.4641 607.885 94.1765 607.25C93.8888 606.61 93.4592 606.12 92.8874 605.779C92.3157 605.435 91.6037 605.263 90.7514 605.263H88.642V613.828ZM101.256 615.17C100.517 615.17 99.869 614.995 99.3114 614.643C98.7575 614.292 98.3242 613.8 98.0117 613.168C97.7028 612.536 97.5483 611.797 97.5483 610.952C97.5483 610.099 97.7028 609.355 98.0117 608.72C98.3242 608.084 98.7575 607.591 99.3114 607.239C99.869 606.887 100.517 606.712 101.256 606.712C101.994 606.712 102.641 606.887 103.195 607.239C103.752 607.591 104.185 608.084 104.494 608.72C104.807 609.355 104.963 610.099 104.963 610.952C104.963 611.797 104.807 612.536 104.494 613.168C104.185 613.8 103.752 614.292 103.195 614.643C102.641 614.995 101.994 615.17 101.256 615.17ZM101.256 614.041C101.817 614.041 102.278 613.897 102.641 613.61C103.003 613.322 103.271 612.944 103.445 612.475C103.619 612.006 103.706 611.499 103.706 610.952C103.706 610.405 103.619 609.895 103.445 609.423C103.271 608.951 103.003 608.569 102.641 608.278C102.278 607.987 101.817 607.841 101.256 607.841C100.695 607.841 100.233 607.987 99.8707 608.278C99.5085 608.569 99.2404 608.951 99.0664 609.423C98.8924 609.895 98.8054 610.405 98.8054 610.952C98.8054 611.499 98.8924 612.006 99.0664 612.475C99.2404 612.944 99.5085 613.322 99.8707 613.61C100.233 613.897 100.695 614.041 101.256 614.041ZM108.139 610.078V615H106.882V606.818H108.097V608.097H108.203C108.395 607.681 108.686 607.347 109.077 607.095C109.467 606.839 109.972 606.712 110.589 606.712C111.143 606.712 111.628 606.825 112.044 607.053C112.459 607.276 112.782 607.617 113.013 608.075C113.244 608.53 113.359 609.105 113.359 609.801V615H112.102V609.886C112.102 609.244 111.935 608.743 111.601 608.384C111.268 608.022 110.81 607.841 110.227 607.841C109.826 607.841 109.467 607.928 109.151 608.102C108.839 608.276 108.592 608.53 108.411 608.864C108.23 609.197 108.139 609.602 108.139 610.078ZM119.215 606.818V607.884H114.975V606.818H119.215ZM116.21 604.858H117.468V612.656C117.468 613.011 117.519 613.278 117.622 613.455C117.729 613.629 117.863 613.746 118.027 613.807C118.194 613.864 118.369 613.892 118.554 613.892C118.693 613.892 118.806 613.885 118.895 613.871C118.984 613.853 119.055 613.839 119.108 613.828L119.364 614.957C119.279 614.989 119.16 615.021 119.007 615.053C118.854 615.089 118.661 615.107 118.426 615.107C118.071 615.107 117.723 615.03 117.382 614.877C117.045 614.725 116.764 614.492 116.541 614.18C116.32 613.867 116.21 613.473 116.21 612.997V604.858ZM126.581 610.078V615H125.324V604.091H126.581V608.097H126.688C126.88 607.674 127.167 607.338 127.551 607.09C127.938 606.838 128.453 606.712 129.096 606.712C129.653 606.712 130.142 606.824 130.561 607.047C130.98 607.267 131.305 607.607 131.535 608.065C131.77 608.519 131.887 609.098 131.887 609.801V615H130.63V609.886C130.63 609.237 130.461 608.734 130.124 608.379C129.79 608.02 129.327 607.841 128.733 607.841C128.322 607.841 127.952 607.928 127.626 608.102C127.302 608.276 127.047 608.53 126.858 608.864C126.674 609.197 126.581 609.602 126.581 610.078ZM136.594 615.192C136.076 615.192 135.605 615.094 135.183 614.899C134.76 614.7 134.425 614.414 134.176 614.041C133.927 613.665 133.803 613.21 133.803 612.678C133.803 612.209 133.896 611.829 134.08 611.538C134.265 611.243 134.512 611.012 134.821 610.845C135.13 610.678 135.47 610.554 135.843 610.472C136.22 610.387 136.598 610.32 136.978 610.27C137.475 610.206 137.878 610.158 138.187 610.126C138.5 610.091 138.727 610.032 138.869 609.95C139.014 609.869 139.087 609.727 139.087 609.524V609.482C139.087 608.956 138.943 608.548 138.656 608.256C138.372 607.965 137.94 607.82 137.361 607.82C136.761 607.82 136.291 607.951 135.95 608.214C135.609 608.477 135.369 608.757 135.231 609.055L134.038 608.629C134.251 608.132 134.535 607.745 134.89 607.468C135.248 607.187 135.639 606.992 136.062 606.882C136.488 606.768 136.907 606.712 137.319 606.712C137.582 606.712 137.883 606.744 138.224 606.808C138.569 606.868 138.901 606.994 139.22 607.186C139.544 607.377 139.812 607.667 140.025 608.054C140.238 608.441 140.344 608.96 140.344 609.609V615H139.087V613.892H139.023C138.938 614.07 138.796 614.26 138.597 614.462C138.398 614.664 138.134 614.837 137.804 614.979C137.473 615.121 137.07 615.192 136.594 615.192ZM136.786 614.062C137.283 614.062 137.702 613.965 138.043 613.77C138.388 613.574 138.647 613.322 138.821 613.013C138.998 612.704 139.087 612.379 139.087 612.038V610.888C139.034 610.952 138.917 611.01 138.736 611.064C138.558 611.113 138.352 611.158 138.118 611.197C137.887 611.232 137.661 611.264 137.441 611.293C137.225 611.317 137.049 611.339 136.914 611.357C136.587 611.399 136.282 611.468 135.998 611.564C135.717 611.657 135.49 611.797 135.316 611.985C135.146 612.17 135.06 612.422 135.06 612.741C135.06 613.178 135.222 613.509 135.545 613.732C135.872 613.952 136.285 614.062 136.786 614.062ZM149.036 606.818L146.011 615H144.732L141.707 606.818H143.07L145.329 613.338H145.414L147.673 606.818H149.036ZM153.833 615.17C153.045 615.17 152.365 614.996 151.793 614.648C151.225 614.297 150.786 613.807 150.477 613.178C150.172 612.546 150.019 611.811 150.019 610.973C150.019 610.135 150.172 609.396 150.477 608.757C150.786 608.114 151.216 607.614 151.766 607.255C152.32 606.893 152.966 606.712 153.705 606.712C154.131 606.712 154.552 606.783 154.968 606.925C155.383 607.067 155.761 607.298 156.102 607.617C156.443 607.933 156.715 608.352 156.917 608.874C157.119 609.396 157.221 610.039 157.221 610.803V611.335H150.914V610.249H155.942C155.942 609.787 155.85 609.375 155.665 609.013C155.484 608.651 155.225 608.365 154.888 608.155C154.554 607.946 154.16 607.841 153.705 607.841C153.204 607.841 152.771 607.965 152.405 608.214C152.043 608.459 151.764 608.778 151.569 609.173C151.374 609.567 151.276 609.989 151.276 610.44V611.165C151.276 611.783 151.383 612.306 151.596 612.736C151.812 613.162 152.112 613.487 152.496 613.711C152.879 613.931 153.325 614.041 153.833 614.041C154.163 614.041 154.461 613.995 154.728 613.903C154.998 613.807 155.23 613.665 155.426 613.477C155.621 613.285 155.772 613.047 155.878 612.763L157.093 613.104C156.965 613.516 156.75 613.878 156.448 614.19C156.146 614.499 155.774 614.741 155.33 614.915C154.886 615.085 154.387 615.17 153.833 615.17ZM165.759 615.192C165.241 615.192 164.77 615.094 164.348 614.899C163.925 614.7 163.59 614.414 163.341 614.041C163.093 613.665 162.968 613.21 162.968 612.678C162.968 612.209 163.061 611.829 163.245 611.538C163.43 611.243 163.677 611.012 163.986 610.845C164.295 610.678 164.635 610.554 165.008 610.472C165.385 610.387 165.763 610.32 166.143 610.27C166.64 610.206 167.043 610.158 167.352 610.126C167.665 610.091 167.892 610.032 168.034 609.95C168.18 609.869 168.252 609.727 168.252 609.524V609.482C168.252 608.956 168.108 608.548 167.821 608.256C167.537 607.965 167.105 607.82 166.526 607.82C165.926 607.82 165.456 607.951 165.115 608.214C164.774 608.477 164.534 608.757 164.396 609.055L163.203 608.629C163.416 608.132 163.7 607.745 164.055 607.468C164.414 607.187 164.804 606.992 165.227 606.882C165.653 606.768 166.072 606.712 166.484 606.712C166.747 606.712 167.048 606.744 167.389 606.808C167.734 606.868 168.066 606.994 168.385 607.186C168.709 607.377 168.977 607.667 169.19 608.054C169.403 608.441 169.509 608.96 169.509 609.609V615H168.252V613.892H168.188C168.103 614.07 167.961 614.26 167.762 614.462C167.563 614.664 167.299 614.837 166.969 614.979C166.638 615.121 166.235 615.192 165.759 615.192ZM165.951 614.062C166.448 614.062 166.867 613.965 167.208 613.77C167.553 613.574 167.812 613.322 167.986 613.013C168.164 612.704 168.252 612.379 168.252 612.038V610.888C168.199 610.952 168.082 611.01 167.901 611.064C167.723 611.113 167.517 611.158 167.283 611.197C167.052 611.232 166.827 611.264 166.606 611.293C166.39 611.317 166.214 611.339 166.079 611.357C165.752 611.399 165.447 611.468 165.163 611.564C164.882 611.657 164.655 611.797 164.481 611.985C164.311 612.17 164.225 612.422 164.225 612.741C164.225 613.178 164.387 613.509 164.71 613.732C165.037 613.952 165.45 614.062 165.951 614.062ZM173.061 610.078V615H171.804V606.818H173.018V608.097H173.125C173.317 607.681 173.608 607.347 173.998 607.095C174.389 606.839 174.893 606.712 175.511 606.712C176.065 606.712 176.55 606.825 176.965 607.053C177.381 607.276 177.704 607.617 177.935 608.075C178.166 608.53 178.281 609.105 178.281 609.801V615H177.024V609.886C177.024 609.244 176.857 608.743 176.523 608.384C176.19 608.022 175.731 607.841 175.149 607.841C174.748 607.841 174.389 607.928 174.073 608.102C173.761 608.276 173.514 608.53 173.333 608.864C173.152 609.197 173.061 609.602 173.061 610.078ZM187.205 615.192C186.686 615.192 186.216 615.094 185.793 614.899C185.371 614.7 185.035 614.414 184.786 614.041C184.538 613.665 184.414 613.21 184.414 612.678C184.414 612.209 184.506 611.829 184.691 611.538C184.875 611.243 185.122 611.012 185.431 610.845C185.74 610.678 186.081 610.554 186.454 610.472C186.83 610.387 187.208 610.32 187.588 610.27C188.085 610.206 188.488 610.158 188.797 610.126C189.11 610.091 189.337 610.032 189.479 609.95C189.625 609.869 189.698 609.727 189.698 609.524V609.482C189.698 608.956 189.554 608.548 189.266 608.256C188.982 607.965 188.551 607.82 187.972 607.82C187.372 607.82 186.901 607.951 186.56 608.214C186.219 608.477 185.98 608.757 185.841 609.055L184.648 608.629C184.861 608.132 185.145 607.745 185.5 607.468C185.859 607.187 186.249 606.992 186.672 606.882C187.098 606.768 187.517 606.712 187.929 606.712C188.192 606.712 188.494 606.744 188.835 606.808C189.179 606.868 189.511 606.994 189.831 607.186C190.154 607.377 190.422 607.667 190.635 608.054C190.848 608.441 190.955 608.96 190.955 609.609V615H189.698V613.892H189.634C189.548 614.07 189.406 614.26 189.208 614.462C189.009 614.664 188.744 614.837 188.414 614.979C188.084 615.121 187.681 615.192 187.205 615.192ZM187.396 614.062C187.894 614.062 188.313 613.965 188.654 613.77C188.998 613.574 189.257 613.322 189.431 613.013C189.609 612.704 189.698 612.379 189.698 612.038V610.888C189.644 610.952 189.527 611.01 189.346 611.064C189.169 611.113 188.963 611.158 188.728 611.197C188.497 611.232 188.272 611.264 188.052 611.293C187.835 611.317 187.659 611.339 187.524 611.357C187.198 611.399 186.892 611.468 186.608 611.564C186.328 611.657 186.1 611.797 185.926 611.985C185.756 612.17 185.671 612.422 185.671 612.741C185.671 613.178 185.832 613.509 186.155 613.732C186.482 613.952 186.896 614.062 187.396 614.062ZM196.573 615.17C195.806 615.17 195.146 614.989 194.592 614.627C194.038 614.265 193.611 613.766 193.313 613.13C193.015 612.495 192.866 611.768 192.866 610.952C192.866 610.121 193.018 609.387 193.324 608.752C193.633 608.113 194.062 607.614 194.613 607.255C195.167 606.893 195.813 606.712 196.552 606.712C197.127 606.712 197.646 606.818 198.107 607.031C198.569 607.244 198.947 607.543 199.242 607.926C199.536 608.31 199.719 608.757 199.79 609.268H198.533C198.437 608.896 198.224 608.565 197.894 608.278C197.567 607.987 197.127 607.841 196.573 607.841C196.083 607.841 195.653 607.969 195.284 608.224C194.918 608.477 194.632 608.833 194.426 609.295C194.224 609.753 194.123 610.291 194.123 610.909C194.123 611.541 194.222 612.092 194.421 612.56C194.623 613.029 194.908 613.393 195.273 613.652C195.643 613.912 196.076 614.041 196.573 614.041C196.9 614.041 197.196 613.984 197.463 613.871C197.729 613.757 197.954 613.594 198.139 613.381C198.324 613.168 198.455 612.912 198.533 612.614H199.79C199.719 613.097 199.544 613.532 199.263 613.919C198.986 614.302 198.619 614.608 198.16 614.835C197.706 615.059 197.177 615.17 196.573 615.17ZM204.952 615.17C204.185 615.17 203.524 614.989 202.97 614.627C202.416 614.265 201.99 613.766 201.692 613.13C201.394 612.495 201.245 611.768 201.245 610.952C201.245 610.121 201.397 609.387 201.703 608.752C202.012 608.113 202.441 607.614 202.992 607.255C203.546 606.893 204.192 606.712 204.931 606.712C205.506 606.712 206.024 606.818 206.486 607.031C206.948 607.244 207.326 607.543 207.621 607.926C207.915 608.31 208.098 608.757 208.169 609.268H206.912C206.816 608.896 206.603 608.565 206.273 608.278C205.946 607.987 205.506 607.841 204.952 607.841C204.462 607.841 204.032 607.969 203.663 608.224C203.297 608.477 203.011 608.833 202.805 609.295C202.603 609.753 202.502 610.291 202.502 610.909C202.502 611.541 202.601 612.092 202.8 612.56C203.002 613.029 203.286 613.393 203.652 613.652C204.022 613.912 204.455 614.041 204.952 614.041C205.279 614.041 205.575 613.984 205.842 613.871C206.108 613.757 206.333 613.594 206.518 613.381C206.703 613.168 206.834 612.912 206.912 612.614H208.169C208.098 613.097 207.922 613.532 207.642 613.919C207.365 614.302 206.997 614.608 206.539 614.835C206.085 615.059 205.556 615.17 204.952 615.17ZM213.331 615.17C212.592 615.17 211.944 614.995 211.387 614.643C210.833 614.292 210.399 613.8 210.087 613.168C209.778 612.536 209.623 611.797 209.623 610.952C209.623 610.099 209.778 609.355 210.087 608.72C210.399 608.084 210.833 607.591 211.387 607.239C211.944 606.887 212.592 606.712 213.331 606.712C214.07 606.712 214.716 606.887 215.27 607.239C215.827 607.591 216.261 608.084 216.57 608.72C216.882 609.355 217.038 610.099 217.038 610.952C217.038 611.797 216.882 612.536 216.57 613.168C216.261 613.8 215.827 614.292 215.27 614.643C214.716 614.995 214.07 615.17 213.331 615.17ZM213.331 614.041C213.892 614.041 214.354 613.897 214.716 613.61C215.078 613.322 215.346 612.944 215.52 612.475C215.694 612.006 215.781 611.499 215.781 610.952C215.781 610.405 215.694 609.895 215.52 609.423C215.346 608.951 215.078 608.569 214.716 608.278C214.354 607.987 213.892 607.841 213.331 607.841C212.77 607.841 212.308 607.987 211.946 608.278C211.584 608.569 211.316 608.951 211.142 609.423C210.968 609.895 210.881 610.405 210.881 610.952C210.881 611.499 210.968 612.006 211.142 612.475C211.316 612.944 211.584 613.322 211.946 613.61C212.308 613.897 212.77 614.041 213.331 614.041ZM224.113 611.655V606.818H225.371V615H224.113V613.615H224.028C223.836 614.031 223.538 614.384 223.133 614.675C222.729 614.963 222.217 615.107 221.599 615.107C221.088 615.107 220.633 614.995 220.236 614.771C219.838 614.544 219.525 614.203 219.298 613.748C219.071 613.29 218.957 612.713 218.957 612.017V606.818H220.214V611.932C220.214 612.528 220.381 613.004 220.715 613.359C221.052 613.714 221.482 613.892 222.004 613.892C222.317 613.892 222.634 613.812 222.958 613.652C223.284 613.493 223.558 613.248 223.778 612.917C224.002 612.587 224.113 612.166 224.113 611.655ZM228.93 610.078V615H227.673V606.818H228.888V608.097H228.994C229.186 607.681 229.477 607.347 229.868 607.095C230.258 606.839 230.763 606.712 231.38 606.712C231.934 606.712 232.419 606.825 232.835 607.053C233.25 607.276 233.573 607.617 233.804 608.075C234.035 608.53 234.15 609.105 234.15 609.801V615H232.893V609.886C232.893 609.244 232.726 608.743 232.392 608.384C232.059 608.022 231.601 607.841 231.018 607.841C230.617 607.841 230.258 607.928 229.942 608.102C229.63 608.276 229.383 608.53 229.202 608.864C229.021 609.197 228.93 609.602 228.93 610.078ZM240.006 606.818V607.884H235.766V606.818H240.006ZM237.001 604.858H238.259V612.656C238.259 613.011 238.31 613.278 238.413 613.455C238.52 613.629 238.654 613.746 238.818 613.807C238.985 613.864 239.161 613.892 239.345 613.892C239.484 613.892 239.597 613.885 239.686 613.871C239.775 613.853 239.846 613.839 239.899 613.828L240.155 614.957C240.07 614.989 239.951 615.021 239.798 615.053C239.645 615.089 239.452 615.107 239.217 615.107C238.862 615.107 238.514 615.03 238.173 614.877C237.836 614.725 237.555 614.492 237.332 614.18C237.112 613.867 237.001 613.473 237.001 612.997V604.858ZM243.537 611.932V611.868C243.544 611.19 243.615 610.65 243.75 610.249C243.885 609.847 244.077 609.522 244.326 609.274C244.574 609.025 244.873 608.796 245.221 608.587C245.43 608.459 245.618 608.308 245.785 608.134C245.952 607.956 246.083 607.752 246.179 607.521C246.279 607.29 246.328 607.035 246.328 606.754C246.328 606.406 246.247 606.104 246.083 605.849C245.92 605.593 245.702 605.396 245.428 605.257C245.155 605.119 244.851 605.05 244.517 605.05C244.226 605.05 243.946 605.11 243.676 605.231C243.406 605.352 243.18 605.542 242.999 605.801C242.818 606.06 242.713 606.399 242.685 606.818H241.343C241.371 606.214 241.527 605.698 241.811 605.268C242.099 604.838 242.477 604.51 242.946 604.283C243.418 604.055 243.942 603.942 244.517 603.942C245.142 603.942 245.686 604.066 246.147 604.315C246.613 604.563 246.971 604.904 247.223 605.337C247.479 605.771 247.607 606.264 247.607 606.818C247.607 607.209 247.547 607.562 247.426 607.878C247.309 608.194 247.138 608.477 246.914 608.725C246.694 608.974 246.428 609.194 246.115 609.386C245.803 609.581 245.553 609.787 245.364 610.004C245.176 610.217 245.039 610.471 244.954 610.765C244.869 611.06 244.823 611.428 244.816 611.868V611.932H243.537ZM244.219 615.085C243.956 615.085 243.731 614.991 243.543 614.803C243.354 614.615 243.26 614.389 243.26 614.126C243.26 613.864 243.354 613.638 243.543 613.45C243.731 613.262 243.956 613.168 244.219 613.168C244.482 613.168 244.707 613.262 244.896 613.45C245.084 613.638 245.178 613.864 245.178 614.126C245.178 614.3 245.134 614.46 245.045 614.606C244.96 614.751 244.844 614.869 244.699 614.957C244.556 615.043 244.397 615.085 244.219 615.085Z" fill="#383838"/>
<path d="M259.854 606.818C259.79 606.278 259.531 605.859 259.077 605.561C258.622 605.263 258.065 605.114 257.404 605.114C256.921 605.114 256.498 605.192 256.136 605.348C255.778 605.504 255.497 605.719 255.295 605.993C255.096 606.266 254.996 606.577 254.996 606.925C254.996 607.216 255.066 607.466 255.204 607.676C255.346 607.882 255.527 608.054 255.747 608.192C255.968 608.327 256.198 608.439 256.44 608.528C256.681 608.613 256.903 608.683 257.106 608.736L258.214 609.034C258.498 609.109 258.814 609.212 259.162 609.343C259.513 609.474 259.849 609.654 260.169 609.881C260.492 610.105 260.758 610.392 260.968 610.744C261.177 611.096 261.282 611.527 261.282 612.038C261.282 612.628 261.127 613.161 260.818 613.636C260.513 614.112 260.066 614.49 259.476 614.771C258.89 615.051 258.178 615.192 257.34 615.192C256.559 615.192 255.882 615.066 255.311 614.814C254.742 614.561 254.295 614.21 253.968 613.759C253.645 613.308 253.462 612.784 253.42 612.188H254.783C254.819 612.599 254.957 612.94 255.199 613.21C255.444 613.477 255.753 613.675 256.126 613.807C256.502 613.935 256.907 613.999 257.34 613.999C257.844 613.999 258.297 613.917 258.698 613.754C259.1 613.587 259.418 613.356 259.652 613.061C259.886 612.763 260.003 612.415 260.003 612.017C260.003 611.655 259.902 611.36 259.7 611.133C259.497 610.906 259.231 610.721 258.901 610.579C258.571 610.437 258.214 610.312 257.83 610.206L256.488 609.822C255.636 609.577 254.961 609.228 254.464 608.773C253.967 608.319 253.718 607.724 253.718 606.989C253.718 606.378 253.883 605.845 254.213 605.391C254.547 604.933 254.995 604.577 255.556 604.325C256.12 604.07 256.751 603.942 257.447 603.942C258.15 603.942 258.775 604.068 259.322 604.32C259.869 604.569 260.302 604.909 260.621 605.343C260.945 605.776 261.115 606.268 261.133 606.818H259.854ZM263.283 615V606.818H264.54V615H263.283ZM263.923 605.455C263.678 605.455 263.466 605.371 263.289 605.204C263.115 605.037 263.028 604.837 263.028 604.602C263.028 604.368 263.115 604.167 263.289 604C263.466 603.833 263.678 603.75 263.923 603.75C264.168 603.75 264.377 603.833 264.551 604C264.729 604.167 264.817 604.368 264.817 604.602C264.817 604.837 264.729 605.037 264.551 605.204C264.377 605.371 264.168 605.455 263.923 605.455ZM270.146 618.239C269.538 618.239 269.016 618.161 268.579 618.004C268.143 617.852 267.779 617.649 267.487 617.397C267.2 617.148 266.971 616.882 266.8 616.598L267.802 615.895C267.915 616.044 268.059 616.214 268.233 616.406C268.407 616.602 268.645 616.77 268.947 616.912C269.252 617.058 269.652 617.131 270.146 617.131C270.806 617.131 271.351 616.971 271.781 616.651C272.21 616.332 272.425 615.831 272.425 615.149V613.487H272.319C272.226 613.636 272.095 613.821 271.925 614.041C271.758 614.258 271.516 614.451 271.2 614.622C270.888 614.789 270.465 614.872 269.932 614.872C269.272 614.872 268.679 614.716 268.153 614.403C267.631 614.091 267.218 613.636 266.912 613.04C266.61 612.443 266.459 611.719 266.459 610.866C266.459 610.028 266.607 609.299 266.902 608.677C267.196 608.052 267.606 607.569 268.132 607.228C268.658 606.884 269.265 606.712 269.954 606.712C270.486 606.712 270.909 606.8 271.222 606.978C271.538 607.152 271.779 607.351 271.946 607.575C272.116 607.795 272.248 607.976 272.34 608.118H272.468V606.818H273.682V615.234C273.682 615.938 273.523 616.509 273.203 616.95C272.887 617.393 272.461 617.718 271.925 617.924C271.392 618.134 270.799 618.239 270.146 618.239ZM270.103 613.743C270.607 613.743 271.033 613.627 271.381 613.397C271.729 613.166 271.994 612.834 272.175 612.401C272.356 611.967 272.447 611.449 272.447 610.845C272.447 610.256 272.358 609.735 272.18 609.284C272.003 608.833 271.74 608.48 271.392 608.224C271.044 607.969 270.614 607.841 270.103 607.841C269.57 607.841 269.126 607.976 268.771 608.246C268.42 608.516 268.155 608.878 267.978 609.332C267.804 609.787 267.717 610.291 267.717 610.845C267.717 611.413 267.805 611.916 267.983 612.353C268.164 612.786 268.43 613.127 268.782 613.375C269.137 613.62 269.577 613.743 270.103 613.743ZM277.241 610.078V615H275.984V606.818H277.198V608.097H277.305C277.496 607.681 277.788 607.347 278.178 607.095C278.569 606.839 279.073 606.712 279.691 606.712C280.245 606.712 280.73 606.825 281.145 607.053C281.561 607.276 281.884 607.617 282.115 608.075C282.345 608.53 282.461 609.105 282.461 609.801V615H281.204V609.886C281.204 609.244 281.037 608.743 280.703 608.384C280.369 608.022 279.911 607.841 279.329 607.841C278.927 607.841 278.569 607.928 278.253 608.102C277.94 608.276 277.693 608.53 277.512 608.864C277.331 609.197 277.241 609.602 277.241 610.078ZM294.133 611.655V606.818H295.39V615H294.133V613.615H294.048C293.856 614.031 293.558 614.384 293.153 614.675C292.748 614.963 292.237 615.107 291.619 615.107C291.107 615.107 290.653 614.995 290.255 614.771C289.857 614.544 289.545 614.203 289.318 613.748C289.09 613.29 288.977 612.713 288.977 612.017V606.818H290.234V611.932C290.234 612.528 290.401 613.004 290.735 613.359C291.072 613.714 291.502 613.892 292.024 613.892C292.336 613.892 292.654 613.812 292.977 613.652C293.304 613.493 293.577 613.248 293.797 612.917C294.021 612.587 294.133 612.166 294.133 611.655ZM297.693 618.068V606.818H298.907V608.118H299.056C299.149 607.976 299.276 607.795 299.44 607.575C299.607 607.351 299.845 607.152 300.153 606.978C300.466 606.8 300.889 606.712 301.421 606.712C302.11 606.712 302.717 606.884 303.243 607.228C303.769 607.573 304.179 608.061 304.473 608.693C304.768 609.325 304.916 610.071 304.916 610.93C304.916 611.797 304.768 612.548 304.473 613.184C304.179 613.816 303.77 614.306 303.248 614.654C302.726 614.998 302.124 615.17 301.443 615.17C300.917 615.17 300.496 615.083 300.18 614.909C299.864 614.732 299.621 614.531 299.45 614.308C299.28 614.08 299.149 613.892 299.056 613.743H298.95V618.068H297.693ZM298.928 610.909C298.928 611.527 299.019 612.072 299.2 612.544C299.381 613.013 299.646 613.381 299.994 613.647C300.342 613.91 300.768 614.041 301.272 614.041C301.798 614.041 302.236 613.903 302.588 613.626C302.943 613.345 303.209 612.969 303.387 612.496C303.568 612.021 303.658 611.491 303.658 610.909C303.658 610.334 303.57 609.815 303.392 609.354C303.218 608.888 302.954 608.521 302.598 608.251C302.247 607.978 301.805 607.841 301.272 607.841C300.761 607.841 300.331 607.971 299.983 608.23C299.635 608.485 299.372 608.844 299.195 609.306C299.017 609.764 298.928 610.298 298.928 610.909Z" fill="#1A7C6B"/>
<rect x="25" y="547" width="340" height="40" rx="15" fill="#35DB9F"/>
<path d="M169.075 575V562.636H171.689V572.845H176.989V575H169.075ZM189.6 568.818C189.6 570.166 189.345 571.313 188.833 572.259C188.326 573.205 187.634 573.927 186.757 574.426C185.883 574.922 184.901 575.169 183.811 575.169C182.712 575.169 181.726 574.92 180.853 574.42C179.979 573.921 179.289 573.199 178.782 572.253C178.275 571.307 178.021 570.162 178.021 568.818C178.021 567.47 178.275 566.323 178.782 565.377C179.289 564.431 179.979 563.711 180.853 563.216C181.726 562.717 182.712 562.467 183.811 562.467C184.901 562.467 185.883 562.717 186.757 563.216C187.634 563.711 188.326 564.431 188.833 565.377C189.345 566.323 189.6 567.47 189.6 568.818ZM186.95 568.818C186.95 567.945 186.819 567.208 186.558 566.609C186.3 566.009 185.936 565.554 185.465 565.244C184.994 564.934 184.443 564.779 183.811 564.779C183.179 564.779 182.627 564.934 182.157 565.244C181.686 565.554 181.319 566.009 181.058 566.609C180.8 567.208 180.672 567.945 180.672 568.818C180.672 569.692 180.8 570.428 181.058 571.028C181.319 571.627 181.686 572.082 182.157 572.392C182.627 572.702 183.179 572.857 183.811 572.857C184.443 572.857 184.994 572.702 185.465 572.392C185.936 572.082 186.3 571.627 186.558 571.028C186.819 570.428 186.95 569.692 186.95 568.818ZM199.735 566.633C199.65 566.339 199.531 566.079 199.378 565.854C199.226 565.625 199.038 565.431 198.817 565.275C198.6 565.114 198.35 564.991 198.068 564.906C197.791 564.822 197.483 564.779 197.145 564.779C196.513 564.779 195.958 564.936 195.479 565.25C195.004 565.564 194.633 566.021 194.368 566.621C194.102 567.216 193.969 567.945 193.969 568.806C193.969 569.667 194.1 570.4 194.362 571.004C194.623 571.607 194.994 572.068 195.473 572.386C195.951 572.7 196.517 572.857 197.169 572.857C197.761 572.857 198.266 572.752 198.684 572.543C199.107 572.33 199.429 572.03 199.65 571.643C199.876 571.257 199.988 570.8 199.988 570.273L200.519 570.352H197.332V568.384H202.506V569.941C202.506 571.028 202.276 571.961 201.817 572.742C201.359 573.519 200.727 574.119 199.922 574.541C199.117 574.96 198.195 575.169 197.157 575.169C195.998 575.169 194.98 574.913 194.102 574.402C193.225 573.887 192.541 573.157 192.05 572.211C191.563 571.261 191.319 570.134 191.319 568.83C191.319 567.828 191.464 566.935 191.754 566.15C192.048 565.361 192.458 564.693 192.985 564.146C193.513 563.598 194.126 563.182 194.827 562.896C195.527 562.61 196.286 562.467 197.103 562.467C197.803 562.467 198.455 562.57 199.059 562.775C199.662 562.976 200.197 563.262 200.664 563.632C201.135 564.003 201.52 564.443 201.817 564.955C202.115 565.462 202.306 566.021 202.391 566.633H199.735ZM207.083 562.636V575H204.469V562.636H207.083ZM219.575 562.636V575H217.317L211.938 567.218H211.848V575H209.234V562.636H211.528L216.864 570.412H216.973V562.636H219.575Z" fill="white"/>
<rect x="25" y="390" width="340" height="48" rx="5" fill="white"/>
<path d="M38.233 418V407.818H41.6733C42.4721 407.818 43.125 407.962 43.6321 408.251C44.1425 408.536 44.5204 408.922 44.7656 409.409C45.0109 409.896 45.1335 410.44 45.1335 411.04C45.1335 411.64 45.0109 412.185 44.7656 412.675C44.5237 413.166 44.1491 413.557 43.642 413.849C43.1349 414.137 42.4853 414.281 41.6932 414.281H39.2273V413.188H41.6534C42.2003 413.188 42.6394 413.093 42.9709 412.904C43.3023 412.715 43.5426 412.46 43.6918 412.138C43.8442 411.814 43.9205 411.447 43.9205 411.04C43.9205 410.632 43.8442 410.268 43.6918 409.946C43.5426 409.625 43.3007 409.373 42.9659 409.19C42.6312 409.005 42.187 408.912 41.6335 408.912H39.4659V418H38.233ZM48.1339 407.818V418H46.9606V407.818H48.1339ZM52.53 418.179C52.0461 418.179 51.6069 418.088 51.2125 417.906C50.8181 417.72 50.5049 417.453 50.2729 417.105C50.0409 416.754 49.9249 416.33 49.9249 415.832C49.9249 415.395 50.0111 415.04 50.1834 414.768C50.3558 414.493 50.5861 414.278 50.8745 414.122C51.1628 413.966 51.481 413.85 51.829 413.774C52.1803 413.695 52.5333 413.632 52.888 413.585C53.352 413.526 53.7282 413.481 54.0165 413.451C54.3082 413.418 54.5203 413.363 54.6529 413.287C54.7888 413.211 54.8567 413.078 54.8567 412.889V412.849C54.8567 412.359 54.7225 411.978 54.454 411.706C54.1889 411.434 53.7862 411.298 53.2459 411.298C52.6858 411.298 52.2466 411.421 51.9284 411.666C51.6103 411.911 51.3865 412.173 51.2573 412.452L50.1436 412.054C50.3425 411.59 50.6077 411.229 50.9391 410.97C51.2739 410.708 51.6384 410.526 52.0328 410.423C52.4306 410.317 52.8217 410.264 53.2061 410.264C53.4514 410.264 53.7331 410.294 54.0513 410.354C54.3728 410.41 54.6827 410.528 54.981 410.707C55.2826 410.886 55.5328 411.156 55.7317 411.517C55.9306 411.878 56.03 412.362 56.03 412.969V418H54.8567V416.966H54.7971C54.7175 417.132 54.5849 417.309 54.3993 417.498C54.2137 417.687 53.9668 417.848 53.6586 417.98C53.3503 418.113 52.9741 418.179 52.53 418.179ZM52.709 417.125C53.173 417.125 53.5641 417.034 53.8823 416.852C54.2038 416.669 54.4457 416.434 54.6081 416.146C54.7739 415.857 54.8567 415.554 54.8567 415.236V414.162C54.807 414.222 54.6976 414.276 54.5286 414.326C54.3629 414.372 54.1706 414.414 53.9519 414.45C53.7364 414.483 53.526 414.513 53.3205 414.54C53.1183 414.563 52.9542 414.583 52.8283 414.599C52.5234 414.639 52.2383 414.704 51.9732 414.793C51.7114 414.879 51.4992 415.01 51.3368 415.186C51.1777 415.358 51.0982 415.594 51.0982 415.892C51.0982 416.3 51.249 416.608 51.5506 416.817C51.8555 417.022 52.2417 417.125 52.709 417.125ZM61.2738 418.159C60.5579 418.159 59.9414 417.99 59.4244 417.652C58.9073 417.314 58.5096 416.848 58.2312 416.255C57.9528 415.662 57.8136 414.984 57.8136 414.222C57.8136 413.446 57.9561 412.762 58.2411 412.168C58.5295 411.572 58.9305 411.106 59.4442 410.771C59.9613 410.433 60.5645 410.264 61.2539 410.264C61.7908 410.264 62.2747 410.364 62.7056 410.562C63.1365 410.761 63.4895 411.04 63.7646 411.398C64.0397 411.756 64.2103 412.173 64.2766 412.651H63.1033C63.0138 412.303 62.815 411.994 62.5067 411.726C62.2018 411.454 61.7908 411.318 61.2738 411.318C60.8164 411.318 60.4154 411.437 60.0707 411.676C59.7293 411.911 59.4625 412.245 59.2702 412.675C59.0813 413.103 58.9869 413.605 58.9869 414.182C58.9869 414.772 59.0797 415.286 59.2653 415.723C59.4542 416.161 59.7193 416.5 60.0607 416.742C60.4054 416.984 60.8098 417.105 61.2738 417.105C61.5787 417.105 61.8555 417.052 62.104 416.946C62.3526 416.84 62.5631 416.688 62.7354 416.489C62.9078 416.29 63.0304 416.051 63.1033 415.773H64.2766C64.2103 416.223 64.0463 416.629 63.7844 416.991C63.5259 417.349 63.1829 417.634 62.7553 417.846C62.3311 418.055 61.8372 418.159 61.2738 418.159ZM69.1935 418.159C68.4577 418.159 67.823 417.997 67.2894 417.672C66.7591 417.344 66.3498 416.886 66.0614 416.3C65.7764 415.71 65.6339 415.024 65.6339 414.241C65.6339 413.459 65.7764 412.77 66.0614 412.173C66.3498 411.573 66.7508 411.106 67.2646 410.771C67.7816 410.433 68.3848 410.264 69.0742 410.264C69.4719 410.264 69.8647 410.33 70.2525 410.463C70.6403 410.596 70.9933 410.811 71.3114 411.109C71.6296 411.404 71.8832 411.795 72.0721 412.283C72.261 412.77 72.3555 413.37 72.3555 414.082V414.58H66.4691V413.565H71.1623C71.1623 413.134 71.0761 412.75 70.9038 412.412C70.7347 412.074 70.4928 411.807 70.1779 411.612C69.8664 411.416 69.4985 411.318 69.0742 411.318C68.6069 411.318 68.2025 411.434 67.8612 411.666C67.5231 411.895 67.2629 412.193 67.0806 412.561C66.8983 412.929 66.8072 413.323 66.8072 413.744V414.42C66.8072 414.997 66.9066 415.486 67.1055 415.887C67.3076 416.285 67.5877 416.588 67.9457 416.797C68.3036 417.002 68.7196 417.105 69.1935 417.105C69.5018 417.105 69.7802 417.062 70.0288 416.976C70.2807 416.886 70.4978 416.754 70.68 416.578C70.8623 416.399 71.0032 416.177 71.1026 415.912L72.2362 416.23C72.1168 416.615 71.9163 416.953 71.6346 417.244C71.3529 417.533 71.0049 417.758 70.5906 417.92C70.1763 418.08 69.7106 418.159 69.1935 418.159ZM75.3136 413.406V418H74.1403V407.818H75.3136V411.557H75.413C75.592 411.162 75.8604 410.849 76.2184 410.617C76.5797 410.382 77.0603 410.264 77.6602 410.264C78.1805 410.264 78.6362 410.369 79.0273 410.577C79.4184 410.783 79.7217 411.099 79.9371 411.527C80.1559 411.951 80.2653 412.491 80.2653 413.148V418H79.092V413.227C79.092 412.621 78.9345 412.152 78.6197 411.82C78.3081 411.486 77.8756 411.318 77.3221 411.318C76.9376 411.318 76.5929 411.399 76.288 411.562C75.9864 411.724 75.7478 411.961 75.5721 412.273C75.3997 412.584 75.3136 412.962 75.3136 413.406ZM85.514 418.159C84.8246 418.159 84.2198 417.995 83.6994 417.667C83.1824 417.339 82.778 416.88 82.4863 416.29C82.198 415.7 82.0538 415.01 82.0538 414.222C82.0538 413.426 82.198 412.732 82.4863 412.138C82.778 411.545 83.1824 411.085 83.6994 410.756C84.2198 410.428 84.8246 410.264 85.514 410.264C86.2034 410.264 86.8066 410.428 87.3237 410.756C87.844 411.085 88.2484 411.545 88.5368 412.138C88.8284 412.732 88.9743 413.426 88.9743 414.222C88.9743 415.01 88.8284 415.7 88.5368 416.29C88.2484 416.88 87.844 417.339 87.3237 417.667C86.8066 417.995 86.2034 418.159 85.514 418.159ZM85.514 417.105C86.0377 417.105 86.4686 416.971 86.8066 416.702C87.1447 416.434 87.3949 416.081 87.5574 415.643C87.7198 415.206 87.801 414.732 87.801 414.222C87.801 413.711 87.7198 413.236 87.5574 412.795C87.3949 412.354 87.1447 411.998 86.8066 411.726C86.4686 411.454 86.0377 411.318 85.514 411.318C84.9904 411.318 84.5595 411.454 84.2214 411.726C83.8833 411.998 83.6331 412.354 83.4707 412.795C83.3083 413.236 83.2271 413.711 83.2271 414.222C83.2271 414.732 83.3083 415.206 83.4707 415.643C83.6331 416.081 83.8833 416.434 84.2214 416.702C84.5595 416.971 84.9904 417.105 85.514 417.105ZM91.9386 407.818V418H90.7653V407.818H91.9386ZM96.9711 418.159C96.3347 418.159 95.7729 417.998 95.2857 417.677C94.7985 417.352 94.4173 416.895 94.1422 416.305C93.8671 415.711 93.7296 415.01 93.7296 414.202C93.7296 413.4 93.8671 412.704 94.1422 412.114C94.4173 411.524 94.8001 411.068 95.2907 410.746C95.7812 410.425 96.348 410.264 96.9909 410.264C97.4881 410.264 97.8809 410.347 98.1692 410.513C98.4609 410.675 98.6829 410.861 98.8354 411.07C98.9912 411.275 99.1122 411.444 99.1983 411.577H99.2978V407.818H100.471V418H99.3375V416.827H99.1983C99.1122 416.966 98.9895 417.142 98.8304 417.354C98.6713 417.562 98.4443 417.75 98.1493 417.915C97.8543 418.078 97.4616 418.159 96.9711 418.159ZM97.1301 417.105C97.6008 417.105 97.9985 416.982 98.3233 416.737C98.6481 416.489 98.8951 416.146 99.0641 415.708C99.2331 415.267 99.3176 414.759 99.3176 414.182C99.3176 413.612 99.2348 413.113 99.0691 412.685C98.9034 412.254 98.6581 411.92 98.3333 411.681C98.0085 411.439 97.6074 411.318 97.1301 411.318C96.633 411.318 96.2187 411.446 95.8873 411.701C95.5591 411.953 95.3122 412.296 95.1465 412.73C94.9841 413.161 94.9029 413.645 94.9029 414.182C94.9029 414.725 94.9857 415.219 95.1515 415.663C95.3205 416.104 95.5691 416.455 95.8972 416.717C96.2286 416.976 96.6396 417.105 97.1301 417.105ZM105.985 418.159C105.249 418.159 104.614 417.997 104.08 417.672C103.55 417.344 103.141 416.886 102.852 416.3C102.567 415.71 102.425 415.024 102.425 414.241C102.425 413.459 102.567 412.77 102.852 412.173C103.141 411.573 103.542 411.106 104.056 410.771C104.573 410.433 105.176 410.264 105.865 410.264C106.263 410.264 106.656 410.33 107.044 410.463C107.431 410.596 107.784 410.811 108.102 411.109C108.421 411.404 108.674 411.795 108.863 412.283C109.052 412.77 109.146 413.37 109.146 414.082V414.58H103.26V413.565H107.953C107.953 413.134 107.867 412.75 107.695 412.412C107.526 412.074 107.284 411.807 106.969 411.612C106.657 411.416 106.289 411.318 105.865 411.318C105.398 411.318 104.994 411.434 104.652 411.666C104.314 411.895 104.054 412.193 103.872 412.561C103.689 412.929 103.598 413.323 103.598 413.744V414.42C103.598 414.997 103.698 415.486 103.896 415.887C104.099 416.285 104.379 416.588 104.737 416.797C105.095 417.002 105.511 417.105 105.985 417.105C106.293 417.105 106.571 417.062 106.82 416.976C107.072 416.886 107.289 416.754 107.471 416.578C107.653 416.399 107.794 416.177 107.894 415.912L109.027 416.23C108.908 416.615 108.707 416.953 108.426 417.244C108.144 417.533 107.796 417.758 107.382 417.92C106.967 418.08 106.502 418.159 105.985 418.159ZM110.931 418V410.364H112.065V411.517H112.144C112.284 411.139 112.535 410.833 112.9 410.597C113.265 410.362 113.676 410.244 114.133 410.244C114.219 410.244 114.327 410.246 114.456 410.249C114.585 410.253 114.683 410.258 114.749 410.264V411.457C114.71 411.447 114.619 411.433 114.476 411.413C114.337 411.389 114.189 411.378 114.034 411.378C113.662 411.378 113.331 411.456 113.039 411.612C112.751 411.764 112.522 411.976 112.353 412.248C112.187 412.516 112.105 412.823 112.105 413.168V418H110.931Z" fill="#A5A5A5"/>
<rect x="25" y="454" width="340" height="48" rx="5" fill="white"/>
<path d="M38.233 482V471.818H41.6733C42.4721 471.818 43.125 471.962 43.6321 472.251C44.1425 472.536 44.5204 472.922 44.7656 473.409C45.0109 473.896 45.1335 474.44 45.1335 475.04C45.1335 475.64 45.0109 476.185 44.7656 476.675C44.5237 477.166 44.1491 477.557 43.642 477.849C43.1349 478.137 42.4853 478.281 41.6932 478.281H39.2273V477.188H41.6534C42.2003 477.188 42.6394 477.093 42.9709 476.904C43.3023 476.715 43.5426 476.46 43.6918 476.138C43.8442 475.814 43.9205 475.447 43.9205 475.04C43.9205 474.632 43.8442 474.268 43.6918 473.946C43.5426 473.625 43.3007 473.373 42.9659 473.19C42.6312 473.005 42.187 472.912 41.6335 472.912H39.4659V482H38.233ZM48.1339 471.818V482H46.9606V471.818H48.1339ZM52.53 482.179C52.0461 482.179 51.6069 482.088 51.2125 481.906C50.8181 481.72 50.5049 481.453 50.2729 481.105C50.0409 480.754 49.9249 480.33 49.9249 479.832C49.9249 479.395 50.0111 479.04 50.1834 478.768C50.3558 478.493 50.5861 478.278 50.8745 478.122C51.1628 477.966 51.481 477.85 51.829 477.774C52.1803 477.695 52.5333 477.632 52.888 477.585C53.352 477.526 53.7282 477.481 54.0165 477.451C54.3082 477.418 54.5203 477.363 54.6529 477.287C54.7888 477.211 54.8567 477.078 54.8567 476.889V476.849C54.8567 476.359 54.7225 475.978 54.454 475.706C54.1889 475.434 53.7862 475.298 53.2459 475.298C52.6858 475.298 52.2466 475.421 51.9284 475.666C51.6103 475.911 51.3865 476.173 51.2573 476.452L50.1436 476.054C50.3425 475.59 50.6077 475.229 50.9391 474.97C51.2739 474.708 51.6384 474.526 52.0328 474.423C52.4306 474.317 52.8217 474.264 53.2061 474.264C53.4514 474.264 53.7331 474.294 54.0513 474.354C54.3728 474.41 54.6827 474.528 54.981 474.707C55.2826 474.886 55.5328 475.156 55.7317 475.517C55.9306 475.878 56.03 476.362 56.03 476.969V482H54.8567V480.966H54.7971C54.7175 481.132 54.5849 481.309 54.3993 481.498C54.2137 481.687 53.9668 481.848 53.6586 481.98C53.3503 482.113 52.9741 482.179 52.53 482.179ZM52.709 481.125C53.173 481.125 53.5641 481.034 53.8823 480.852C54.2038 480.669 54.4457 480.434 54.6081 480.146C54.7739 479.857 54.8567 479.554 54.8567 479.236V478.162C54.807 478.222 54.6976 478.276 54.5286 478.326C54.3629 478.372 54.1706 478.414 53.9519 478.45C53.7364 478.483 53.526 478.513 53.3205 478.54C53.1183 478.563 52.9542 478.583 52.8283 478.599C52.5234 478.639 52.2383 478.704 51.9732 478.793C51.7114 478.879 51.4992 479.01 51.3368 479.186C51.1777 479.358 51.0982 479.594 51.0982 479.892C51.0982 480.3 51.249 480.608 51.5506 480.817C51.8555 481.022 52.2417 481.125 52.709 481.125ZM61.2738 482.159C60.5579 482.159 59.9414 481.99 59.4244 481.652C58.9073 481.314 58.5096 480.848 58.2312 480.255C57.9528 479.662 57.8136 478.984 57.8136 478.222C57.8136 477.446 57.9561 476.762 58.2411 476.168C58.5295 475.572 58.9305 475.106 59.4442 474.771C59.9613 474.433 60.5645 474.264 61.2539 474.264C61.7908 474.264 62.2747 474.364 62.7056 474.562C63.1365 474.761 63.4895 475.04 63.7646 475.398C64.0397 475.756 64.2103 476.173 64.2766 476.651H63.1033C63.0138 476.303 62.815 475.994 62.5067 475.726C62.2018 475.454 61.7908 475.318 61.2738 475.318C60.8164 475.318 60.4154 475.437 60.0707 475.676C59.7293 475.911 59.4625 476.245 59.2702 476.675C59.0813 477.103 58.9869 477.605 58.9869 478.182C58.9869 478.772 59.0797 479.286 59.2653 479.723C59.4542 480.161 59.7193 480.5 60.0607 480.742C60.4054 480.984 60.8098 481.105 61.2738 481.105C61.5787 481.105 61.8555 481.052 62.104 480.946C62.3526 480.84 62.5631 480.688 62.7354 480.489C62.9078 480.29 63.0304 480.051 63.1033 479.773H64.2766C64.2103 480.223 64.0463 480.629 63.7844 480.991C63.5259 481.349 63.1829 481.634 62.7553 481.846C62.3311 482.055 61.8372 482.159 61.2738 482.159ZM69.1935 482.159C68.4577 482.159 67.823 481.997 67.2894 481.672C66.7591 481.344 66.3498 480.886 66.0614 480.3C65.7764 479.71 65.6339 479.024 65.6339 478.241C65.6339 477.459 65.7764 476.77 66.0614 476.173C66.3498 475.573 66.7508 475.106 67.2646 474.771C67.7816 474.433 68.3848 474.264 69.0742 474.264C69.4719 474.264 69.8647 474.33 70.2525 474.463C70.6403 474.596 70.9933 474.811 71.3114 475.109C71.6296 475.404 71.8832 475.795 72.0721 476.283C72.261 476.77 72.3555 477.37 72.3555 478.082V478.58H66.4691V477.565H71.1623C71.1623 477.134 71.0761 476.75 70.9038 476.412C70.7347 476.074 70.4928 475.807 70.1779 475.612C69.8664 475.416 69.4985 475.318 69.0742 475.318C68.6069 475.318 68.2025 475.434 67.8612 475.666C67.5231 475.895 67.2629 476.193 67.0806 476.561C66.8983 476.929 66.8072 477.323 66.8072 477.744V478.42C66.8072 478.997 66.9066 479.486 67.1055 479.887C67.3076 480.285 67.5877 480.588 67.9457 480.797C68.3036 481.002 68.7196 481.105 69.1935 481.105C69.5018 481.105 69.7802 481.062 70.0288 480.976C70.2807 480.886 70.4978 480.754 70.68 480.578C70.8623 480.399 71.0032 480.177 71.1026 479.912L72.2362 480.23C72.1168 480.615 71.9163 480.953 71.6346 481.244C71.3529 481.533 71.0049 481.758 70.5906 481.92C70.1763 482.08 69.7106 482.159 69.1935 482.159ZM75.3136 477.406V482H74.1403V471.818H75.3136V475.557H75.413C75.592 475.162 75.8604 474.849 76.2184 474.617C76.5797 474.382 77.0603 474.264 77.6602 474.264C78.1805 474.264 78.6362 474.369 79.0273 474.577C79.4184 474.783 79.7217 475.099 79.9371 475.527C80.1559 475.951 80.2653 476.491 80.2653 477.148V482H79.092V477.227C79.092 476.621 78.9345 476.152 78.6197 475.82C78.3081 475.486 77.8756 475.318 77.3221 475.318C76.9376 475.318 76.5929 475.399 76.288 475.562C75.9864 475.724 75.7478 475.961 75.5721 476.273C75.3997 476.584 75.3136 476.962 75.3136 477.406ZM85.514 482.159C84.8246 482.159 84.2198 481.995 83.6994 481.667C83.1824 481.339 82.778 480.88 82.4863 480.29C82.198 479.7 82.0538 479.01 82.0538 478.222C82.0538 477.426 82.198 476.732 82.4863 476.138C82.778 475.545 83.1824 475.085 83.6994 474.756C84.2198 474.428 84.8246 474.264 85.514 474.264C86.2034 474.264 86.8066 474.428 87.3237 474.756C87.844 475.085 88.2484 475.545 88.5368 476.138C88.8284 476.732 88.9743 477.426 88.9743 478.222C88.9743 479.01 88.8284 479.7 88.5368 480.29C88.2484 480.88 87.844 481.339 87.3237 481.667C86.8066 481.995 86.2034 482.159 85.514 482.159ZM85.514 481.105C86.0377 481.105 86.4686 480.971 86.8066 480.702C87.1447 480.434 87.3949 480.081 87.5574 479.643C87.7198 479.206 87.801 478.732 87.801 478.222C87.801 477.711 87.7198 477.236 87.5574 476.795C87.3949 476.354 87.1447 475.998 86.8066 475.726C86.4686 475.454 86.0377 475.318 85.514 475.318C84.9904 475.318 84.5595 475.454 84.2214 475.726C83.8833 475.998 83.6331 476.354 83.4707 476.795C83.3083 477.236 83.2271 477.711 83.2271 478.222C83.2271 478.732 83.3083 479.206 83.4707 479.643C83.6331 480.081 83.8833 480.434 84.2214 480.702C84.5595 480.971 84.9904 481.105 85.514 481.105ZM91.9386 471.818V482H90.7653V471.818H91.9386ZM96.9711 482.159C96.3347 482.159 95.7729 481.998 95.2857 481.677C94.7985 481.352 94.4173 480.895 94.1422 480.305C93.8671 479.711 93.7296 479.01 93.7296 478.202C93.7296 477.4 93.8671 476.704 94.1422 476.114C94.4173 475.524 94.8001 475.068 95.2907 474.746C95.7812 474.425 96.348 474.264 96.9909 474.264C97.4881 474.264 97.8809 474.347 98.1692 474.513C98.4609 474.675 98.6829 474.861 98.8354 475.07C98.9912 475.275 99.1122 475.444 99.1983 475.577H99.2978V471.818H100.471V482H99.3375V480.827H99.1983C99.1122 480.966 98.9895 481.142 98.8304 481.354C98.6713 481.562 98.4443 481.75 98.1493 481.915C97.8543 482.078 97.4616 482.159 96.9711 482.159ZM97.1301 481.105C97.6008 481.105 97.9985 480.982 98.3233 480.737C98.6481 480.489 98.8951 480.146 99.0641 479.708C99.2331 479.267 99.3176 478.759 99.3176 478.182C99.3176 477.612 99.2348 477.113 99.0691 476.685C98.9034 476.254 98.6581 475.92 98.3333 475.681C98.0085 475.439 97.6074 475.318 97.1301 475.318C96.633 475.318 96.2187 475.446 95.8873 475.701C95.5591 475.953 95.3122 476.296 95.1465 476.73C94.9841 477.161 94.9029 477.645 94.9029 478.182C94.9029 478.725 94.9857 479.219 95.1515 479.663C95.3205 480.104 95.5691 480.455 95.8972 480.717C96.2286 480.976 96.6396 481.105 97.1301 481.105ZM105.985 482.159C105.249 482.159 104.614 481.997 104.08 481.672C103.55 481.344 103.141 480.886 102.852 480.3C102.567 479.71 102.425 479.024 102.425 478.241C102.425 477.459 102.567 476.77 102.852 476.173C103.141 475.573 103.542 475.106 104.056 474.771C104.573 474.433 105.176 474.264 105.865 474.264C106.263 474.264 106.656 474.33 107.044 474.463C107.431 474.596 107.784 474.811 108.102 475.109C108.421 475.404 108.674 475.795 108.863 476.283C109.052 476.77 109.146 477.37 109.146 478.082V478.58H103.26V477.565H107.953C107.953 477.134 107.867 476.75 107.695 476.412C107.526 476.074 107.284 475.807 106.969 475.612C106.657 475.416 106.289 475.318 105.865 475.318C105.398 475.318 104.994 475.434 104.652 475.666C104.314 475.895 104.054 476.193 103.872 476.561C103.689 476.929 103.598 477.323 103.598 477.744V478.42C103.598 478.997 103.698 479.486 103.896 479.887C104.099 480.285 104.379 480.588 104.737 480.797C105.095 481.002 105.511 481.105 105.985 481.105C106.293 481.105 106.571 481.062 106.82 480.976C107.072 480.886 107.289 480.754 107.471 480.578C107.653 480.399 107.794 480.177 107.894 479.912L109.027 480.23C108.908 480.615 108.707 480.953 108.426 481.244C108.144 481.533 107.796 481.758 107.382 481.92C106.967 482.08 106.502 482.159 105.985 482.159ZM110.931 482V474.364H112.065V475.517H112.144C112.284 475.139 112.535 474.833 112.9 474.597C113.265 474.362 113.676 474.244 114.133 474.244C114.219 474.244 114.327 474.246 114.456 474.249C114.585 474.253 114.683 474.258 114.749 474.264V475.457C114.71 475.447 114.619 475.433 114.476 475.413C114.337 475.389 114.189 475.378 114.034 475.378C113.662 475.378 113.331 475.456 113.039 475.612C112.751 475.764 112.522 475.976 112.353 476.248C112.187 476.516 112.105 476.823 112.105 477.168V482H110.931Z" fill="#A5A5A5"/>
<path fill-rule="evenodd" clip-rule="evenodd" d="M230.767 87.1318C230.54 68.3183 214.691 54.5383 206.796 50C212.895 54.8592 224.611 69.281 222.682 88.0945C221.212 102.429 212.911 110.997 205.291 118.862C200.41 123.9 195.809 128.649 193.462 134.44C188.038 147.826 193.405 155.383 197.562 157.674C198.036 158.018 198.487 158.188 198.852 158.232C198.446 158.107 198.011 157.921 197.562 157.674C196.074 156.591 194.369 153.79 194.455 147.78C194.559 140.555 201.908 133.009 205.89 128.921C206.274 128.527 206.626 128.165 206.937 127.839C207.41 127.345 208.043 126.717 208.799 125.968C215.325 119.5 230.971 103.993 230.767 87.1318ZM205.496 85.4815C209.962 85.4815 213.582 81.9719 213.582 77.6425C213.582 73.3132 209.962 69.8036 205.496 69.8036C201.031 69.8036 197.411 73.3132 197.411 77.6425C197.411 81.9719 201.031 85.4815 205.496 85.4815Z" fill="#2FE9D2"/>
<path fill-rule="evenodd" clip-rule="evenodd" d="M169.184 121.513C173.65 121.513 177.27 118.003 177.27 113.674C177.27 109.345 173.65 105.835 169.184 105.835C164.719 105.835 161.099 109.345 161.099 113.674C161.099 118.003 164.719 121.513 169.184 121.513ZM191.748 114.924C178.951 129.043 155.799 154.589 173.896 179.686C175.212 181.893 178.113 185.61 182.863 190.413L177.685 198.802C169.88 192.071 163.495 183.845 160.562 174.048C152.165 145.993 182.312 117.617 198.435 106.935C197.261 108.842 194.799 111.558 191.748 114.924ZM189.083 196.327C197.006 203.451 208.12 212.09 222.974 221.356C213.363 219.091 198.336 212.756 184.929 203.341L189.083 196.327Z" fill="#59BAAE"/>
<path fill-rule="evenodd" clip-rule="evenodd" d="M209.185 110.649C198.339 94.7463 176.047 80.5749 163.936 74.4795C176.289 77.456 199.225 86.6205 213.582 104.597L209.185 110.649ZM223.794 123.163C228.674 141.757 219.114 159.523 215.993 163.321C213.678 166.138 209.695 170.471 205.271 175.283L205.269 175.286L205.268 175.286L205.268 175.287C195.656 185.743 183.967 198.458 182.802 202.79C181.903 204.899 180.078 209.859 179.965 212.83C179.823 216.543 182.66 221.769 185.922 224.932C182.66 223.603 176.39 218.083 177.411 206.641C178.373 195.872 195.242 177.11 205.028 166.226C205.639 165.547 206.223 164.898 206.773 164.283C212.039 157.969 219.849 142.442 215.341 123.163L221.238 116.7C222.218 118.773 223.077 120.927 223.794 123.163ZM185.355 173.773C189.82 173.773 193.44 170.263 193.44 165.934C193.44 161.604 189.82 158.095 185.355 158.095C180.889 158.095 177.27 161.604 177.27 165.934C177.27 170.263 180.889 173.773 185.355 173.773Z" fill="#37DCA0"/>
<path d="M136.874 252.437V237.434H142.102C143.316 237.434 144.308 237.647 145.079 238.071C145.855 238.491 146.429 239.06 146.802 239.778C147.175 240.496 147.361 241.297 147.361 242.181C147.361 243.065 147.175 243.868 146.802 244.591C146.434 245.314 145.865 245.89 145.094 246.32C144.324 246.745 143.336 246.957 142.132 246.957H138.385V245.346H142.072C142.903 245.346 143.571 245.207 144.074 244.928C144.578 244.65 144.943 244.274 145.17 243.8C145.402 243.321 145.517 242.782 145.517 242.181C145.517 241.58 145.402 241.043 145.17 240.57C144.943 240.096 144.575 239.725 144.067 239.456C143.558 239.183 142.883 239.046 142.042 239.046H138.748V252.437H136.874Z" fill="#59BAAE"/>
<path d="M151.921 245.668V252.437H150.138V237.434H151.921V242.943H152.072C152.344 242.362 152.752 241.9 153.296 241.558C153.845 241.212 154.575 241.038 155.487 241.038C156.278 241.038 156.97 241.192 157.565 241.5C158.159 241.803 158.62 242.269 158.947 242.899C159.28 243.524 159.446 244.32 159.446 245.287V252.437H157.663V245.404C157.663 244.511 157.424 243.82 156.945 243.331C156.472 242.838 155.814 242.591 154.973 242.591C154.389 242.591 153.865 242.711 153.402 242.95C152.943 243.19 152.581 243.539 152.314 243.998C152.052 244.457 151.921 245.014 151.921 245.668Z" fill="#59BAAE"/>
<path d="M163.441 256.656C163.139 256.656 162.869 256.632 162.633 256.583C162.396 256.539 162.232 256.495 162.142 256.451L162.595 254.928C163.028 255.035 163.411 255.074 163.743 255.045C164.076 255.016 164.371 254.871 164.627 254.613C164.889 254.359 165.129 253.946 165.345 253.375L165.678 252.496L161.386 241.185H163.32L166.524 250.151H166.645L169.848 241.185H171.783L166.856 254.078C166.635 254.659 166.36 255.14 166.033 255.521C165.705 255.907 165.325 256.192 164.892 256.378C164.464 256.564 163.98 256.656 163.441 256.656Z" fill="#59BAAE"/>
<path d="M182.357 243.705L180.755 244.144C180.654 243.886 180.506 243.634 180.309 243.39C180.118 243.141 179.856 242.936 179.523 242.774C179.191 242.613 178.765 242.533 178.246 242.533C177.536 242.533 176.944 242.691 176.471 243.009C176.002 243.321 175.768 243.719 175.768 244.203C175.768 244.633 175.929 244.972 176.252 245.221C176.574 245.47 177.078 245.678 177.763 245.844L179.486 246.254C180.523 246.498 181.296 246.872 181.805 247.375C182.314 247.873 182.568 248.515 182.568 249.302C182.568 249.946 182.377 250.522 181.994 251.03C181.616 251.538 181.087 251.939 180.407 252.232C179.727 252.525 178.936 252.671 178.035 252.671C176.851 252.671 175.871 252.422 175.096 251.924C174.32 251.426 173.829 250.698 173.622 249.741L175.315 249.331C175.476 249.936 175.781 250.391 176.229 250.693C176.682 250.996 177.274 251.148 178.005 251.148C178.836 251.148 179.496 250.977 179.984 250.635C180.478 250.288 180.725 249.873 180.725 249.389C180.725 248.999 180.584 248.672 180.302 248.408C180.019 248.139 179.586 247.939 179.002 247.807L177.068 247.368C176.005 247.123 175.224 246.745 174.725 246.232C174.232 245.714 173.985 245.067 173.985 244.291C173.985 243.656 174.169 243.094 174.537 242.606C174.909 242.118 175.416 241.734 176.055 241.456C176.7 241.178 177.43 241.038 178.246 241.038C179.395 241.038 180.296 241.283 180.951 241.771C181.611 242.259 182.08 242.904 182.357 243.705Z" fill="#59BAAE"/>
<path d="M185.252 252.437V241.185H187.035V252.437H185.252ZM186.159 239.31C185.811 239.31 185.512 239.195 185.26 238.965C185.013 238.736 184.89 238.46 184.89 238.137C184.89 237.815 185.013 237.539 185.26 237.31C185.512 237.08 185.811 236.965 186.159 236.965C186.507 236.965 186.804 237.08 187.051 237.31C187.302 237.539 187.428 237.815 187.428 238.137C187.428 238.46 187.302 238.736 187.051 238.965C186.804 239.195 186.507 239.31 186.159 239.31Z" fill="#59BAAE"/>
<path d="M195.016 252.671C193.968 252.671 193.049 252.43 192.258 251.946C191.472 251.463 190.858 250.786 190.415 249.917C189.976 249.048 189.757 248.032 189.757 246.869C189.757 245.697 189.976 244.674 190.415 243.8C190.858 242.926 191.472 242.247 192.258 241.764C193.049 241.28 193.968 241.038 195.016 241.038C196.064 241.038 196.981 241.28 197.766 241.764C198.557 242.247 199.172 242.926 199.61 243.8C200.053 244.674 200.275 245.697 200.275 246.869C200.275 248.032 200.053 249.048 199.61 249.917C199.172 250.786 198.557 251.463 197.766 251.946C196.981 252.43 196.064 252.671 195.016 252.671ZM195.016 251.118C195.812 251.118 196.467 250.921 196.981 250.525C197.494 250.129 197.875 249.609 198.121 248.965C198.368 248.32 198.492 247.622 198.492 246.869C198.492 246.117 198.368 245.417 198.121 244.767C197.875 244.118 197.494 243.593 196.981 243.192C196.467 242.792 195.812 242.591 195.016 242.591C194.22 242.591 193.565 242.792 193.052 243.192C192.538 243.593 192.158 244.118 191.911 244.767C191.664 245.417 191.541 246.117 191.541 246.869C191.541 247.622 191.664 248.32 191.911 248.965C192.158 249.609 192.538 250.129 193.052 250.525C193.565 250.921 194.22 251.118 195.016 251.118Z" fill="#59BAAE"/>
<path d="M221.674 242.123H219.8C219.69 241.6 219.496 241.141 219.219 240.745C218.947 240.35 218.614 240.018 218.221 239.749C217.833 239.476 217.403 239.27 216.929 239.134C216.456 238.997 215.962 238.929 215.448 238.929C214.511 238.929 213.663 239.158 212.902 239.617C212.147 240.076 211.545 240.753 211.096 241.646C210.653 242.54 210.431 243.636 210.431 244.936C210.431 246.235 210.653 247.331 211.096 248.225C211.545 249.118 212.147 249.795 212.902 250.254C213.663 250.713 214.511 250.942 215.448 250.942C215.962 250.942 216.456 250.874 216.929 250.737C217.403 250.601 217.833 250.398 218.221 250.129C218.614 249.856 218.947 249.521 219.219 249.126C219.496 248.725 219.69 248.266 219.8 247.749H221.674C221.533 248.515 221.276 249.201 220.903 249.807C220.531 250.413 220.067 250.928 219.513 251.353C218.959 251.773 218.337 252.093 217.647 252.312C216.962 252.532 216.229 252.642 215.448 252.642C214.129 252.642 212.955 252.329 211.927 251.704C210.9 251.079 210.091 250.19 209.502 249.038C208.913 247.885 208.618 246.518 208.618 244.936C208.618 243.353 208.913 241.986 209.502 240.833C210.091 239.681 210.9 238.792 211.927 238.167C212.955 237.542 214.129 237.229 215.448 237.229C216.229 237.229 216.962 237.339 217.647 237.559C218.337 237.778 218.959 238.101 219.513 238.526C220.067 238.946 220.531 239.458 220.903 240.064C221.276 240.665 221.533 241.351 221.674 242.123Z" fill="#59BAAE"/>
<path d="M227.875 252.701C227.14 252.701 226.473 252.566 225.873 252.298C225.274 252.024 224.798 251.631 224.445 251.118C224.093 250.601 223.916 249.976 223.916 249.243C223.916 248.598 224.047 248.076 224.309 247.675C224.571 247.27 224.921 246.953 225.359 246.723C225.798 246.493 226.281 246.323 226.81 246.21C227.344 246.093 227.88 246 228.419 245.932C229.125 245.844 229.696 245.778 230.135 245.734C230.578 245.685 230.9 245.605 231.102 245.492C231.308 245.38 231.411 245.185 231.411 244.906V244.848C231.411 244.125 231.207 243.563 230.799 243.163C230.396 242.762 229.784 242.562 228.963 242.562C228.112 242.562 227.445 242.743 226.961 243.104C226.478 243.466 226.138 243.851 225.941 244.262L224.249 243.676C224.551 242.992 224.954 242.46 225.458 242.079C225.966 241.693 226.52 241.424 227.12 241.273C227.724 241.116 228.319 241.038 228.903 241.038C229.276 241.038 229.704 241.082 230.187 241.17C230.676 241.253 231.147 241.427 231.6 241.69C232.059 241.954 232.439 242.352 232.741 242.884C233.043 243.417 233.195 244.13 233.195 245.023V252.437H231.411V250.913H231.321C231.2 251.157 230.998 251.419 230.716 251.697C230.434 251.975 230.059 252.212 229.591 252.408C229.122 252.603 228.55 252.701 227.875 252.701ZM228.147 251.148C228.853 251.148 229.447 251.013 229.931 250.745C230.419 250.476 230.787 250.129 231.034 249.704C231.286 249.28 231.411 248.833 231.411 248.364V246.782C231.336 246.869 231.17 246.95 230.913 247.023C230.661 247.092 230.369 247.153 230.036 247.206C229.709 247.255 229.389 247.299 229.077 247.338C228.77 247.373 228.52 247.402 228.329 247.426C227.865 247.485 227.432 247.58 227.029 247.712C226.631 247.839 226.309 248.032 226.062 248.291C225.82 248.545 225.699 248.891 225.699 249.331C225.699 249.932 225.929 250.386 226.387 250.693C226.85 250.996 227.437 251.148 228.147 251.148Z" fill="#59BAAE"/>
<path d="M236.449 252.437V241.185H238.172V242.884H238.293C238.504 242.328 238.887 241.876 239.441 241.529C239.995 241.182 240.62 241.009 241.315 241.009C241.446 241.009 241.61 241.011 241.806 241.016C242.003 241.021 242.151 241.029 242.252 241.038V242.796C242.191 242.782 242.053 242.76 241.836 242.731C241.625 242.696 241.401 242.679 241.164 242.679C240.6 242.679 240.096 242.794 239.653 243.024C239.215 243.248 238.867 243.561 238.61 243.961C238.358 244.357 238.232 244.809 238.232 245.316V252.437H236.449Z" fill="#59BAAE"/>
<path d="M248.878 252.671C247.76 252.671 246.795 252.432 245.984 251.953C245.178 251.47 244.556 250.796 244.118 249.932C243.685 249.062 243.468 248.051 243.468 246.899C243.468 245.746 243.685 244.73 244.118 243.851C244.556 242.967 245.166 242.279 245.947 241.786C246.732 241.287 247.649 241.038 248.697 241.038C249.301 241.038 249.898 241.136 250.487 241.331C251.077 241.527 251.613 241.844 252.097 242.284C252.58 242.718 252.966 243.295 253.253 244.013C253.54 244.73 253.684 245.614 253.684 246.664V247.397H244.738V245.903H251.87C251.87 245.268 251.739 244.701 251.477 244.203C251.22 243.705 250.853 243.312 250.374 243.024C249.901 242.735 249.342 242.591 248.697 242.591C247.987 242.591 247.372 242.762 246.853 243.104C246.339 243.441 245.944 243.881 245.667 244.423C245.39 244.965 245.251 245.546 245.251 246.166V247.163C245.251 248.012 245.403 248.733 245.705 249.324C246.012 249.91 246.438 250.356 246.982 250.664C247.526 250.967 248.158 251.118 248.878 251.118C249.347 251.118 249.77 251.055 250.147 250.928C250.53 250.796 250.86 250.601 251.137 250.342C251.414 250.078 251.628 249.751 251.779 249.36L253.502 249.829C253.321 250.396 253.016 250.894 252.588 251.323C252.16 251.748 251.631 252.08 251.001 252.32C250.372 252.554 249.664 252.671 248.878 252.671Z" fill="#59BAAE"/>
</svg>
