<svg width="390" height="844" viewBox="0 0 390 844" fill="none" xmlns="http://www.w3.org/2000/svg">
<rect width="390" height="844" fill="#EFEFEF"/>
<path d="M158.901 301.529C158.827 300.784 158.51 300.206 157.95 299.793C157.39 299.381 156.63 299.175 155.67 299.175C155.017 299.175 154.466 299.267 154.017 299.452C153.568 299.63 153.223 299.879 152.983 300.2C152.749 300.52 152.632 300.883 152.632 301.289C152.62 301.628 152.691 301.923 152.844 302.175C153.004 302.428 153.223 302.646 153.5 302.831C153.777 303.009 154.097 303.166 154.46 303.302C154.823 303.431 155.211 303.542 155.624 303.634L157.322 304.04C158.147 304.225 158.904 304.471 159.594 304.779C160.283 305.087 160.88 305.465 161.385 305.915C161.89 306.364 162.281 306.893 162.558 307.503C162.841 308.112 162.985 308.811 162.991 309.599C162.985 310.756 162.69 311.759 162.105 312.609C161.527 313.452 160.689 314.107 159.594 314.575C158.504 315.037 157.19 315.268 155.651 315.268C154.125 315.268 152.795 315.034 151.663 314.566C150.536 314.098 149.656 313.406 149.022 312.489C148.394 311.565 148.065 310.424 148.034 309.063H151.903C151.946 309.697 152.127 310.227 152.447 310.651C152.774 311.07 153.208 311.387 153.749 311.602C154.297 311.812 154.916 311.916 155.605 311.916C156.282 311.916 156.87 311.818 157.369 311.621C157.873 311.424 158.264 311.15 158.541 310.799C158.818 310.448 158.957 310.045 158.957 309.589C158.957 309.165 158.83 308.808 158.578 308.518C158.332 308.229 157.969 307.983 157.489 307.78C157.015 307.577 156.433 307.392 155.744 307.226L153.685 306.709C152.09 306.321 150.832 305.715 149.908 304.89C148.985 304.065 148.527 302.954 148.533 301.557C148.527 300.412 148.831 299.412 149.447 298.556C150.068 297.701 150.921 297.033 152.004 296.553C153.088 296.072 154.319 295.832 155.697 295.832C157.101 295.832 158.326 296.072 159.372 296.553C160.425 297.033 161.243 297.701 161.828 298.556C162.413 299.412 162.714 300.403 162.733 301.529H158.901ZM165.607 315V300.818H169.54V315H165.607ZM167.583 298.99C166.998 298.99 166.496 298.796 166.078 298.408C165.665 298.014 165.459 297.544 165.459 296.996C165.459 296.454 165.665 295.989 166.078 295.602C166.496 295.208 166.998 295.011 167.583 295.011C168.167 295.011 168.666 295.208 169.078 295.602C169.497 295.989 169.706 296.454 169.706 296.996C169.706 297.544 169.497 298.014 169.078 298.408C168.666 298.796 168.167 298.99 167.583 298.99ZM179.08 320.614C177.806 320.614 176.713 320.438 175.802 320.087C174.897 319.743 174.177 319.272 173.642 318.675C173.106 318.078 172.758 317.407 172.598 316.662L176.236 316.173C176.347 316.456 176.522 316.72 176.762 316.967C177.002 317.213 177.319 317.41 177.713 317.558C178.114 317.711 178.6 317.788 179.172 317.788C180.028 317.788 180.733 317.579 181.287 317.161C181.847 316.748 182.127 316.056 182.127 315.083V312.489H181.961C181.788 312.883 181.53 313.255 181.185 313.606C180.84 313.957 180.397 314.243 179.855 314.464C179.314 314.686 178.667 314.797 177.917 314.797C176.852 314.797 175.882 314.551 175.008 314.058C174.14 313.56 173.448 312.799 172.931 311.778C172.42 310.75 172.164 309.451 172.164 307.881C172.164 306.275 172.426 304.933 172.949 303.856C173.472 302.779 174.168 301.972 175.036 301.437C175.91 300.901 176.867 300.634 177.907 300.634C178.701 300.634 179.366 300.769 179.902 301.04C180.437 301.304 180.868 301.637 181.194 302.037C181.527 302.431 181.782 302.819 181.961 303.2H182.108V300.818H186.014V315.138C186.014 316.345 185.718 317.354 185.127 318.167C184.537 318.979 183.718 319.589 182.672 319.995C181.631 320.407 180.434 320.614 179.08 320.614ZM179.163 311.842C179.797 311.842 180.333 311.685 180.77 311.371C181.213 311.051 181.551 310.596 181.785 310.005C182.025 309.408 182.145 308.694 182.145 307.863C182.145 307.032 182.028 306.312 181.794 305.702C181.56 305.087 181.222 304.61 180.779 304.271C180.336 303.933 179.797 303.763 179.163 303.763C178.517 303.763 177.972 303.939 177.529 304.29C177.086 304.634 176.75 305.115 176.522 305.73C176.295 306.346 176.181 307.057 176.181 307.863C176.181 308.682 176.295 309.389 176.522 309.987C176.756 310.577 177.092 311.036 177.529 311.362C177.972 311.682 178.517 311.842 179.163 311.842ZM193.077 306.801V315H189.144V300.818H192.892V303.32H193.059C193.373 302.496 193.899 301.843 194.637 301.363C195.376 300.877 196.272 300.634 197.324 300.634C198.309 300.634 199.168 300.849 199.9 301.28C200.633 301.711 201.202 302.326 201.608 303.126C202.015 303.92 202.218 304.868 202.218 305.97V315H198.284V306.672C198.291 305.804 198.069 305.127 197.62 304.641C197.17 304.148 196.552 303.902 195.764 303.902C195.234 303.902 194.767 304.016 194.36 304.244C193.96 304.471 193.646 304.804 193.419 305.241C193.197 305.672 193.083 306.192 193.077 306.801ZM220.43 308.962V300.818H224.363V315H220.587V312.424H220.439C220.119 313.255 219.586 313.923 218.842 314.428C218.103 314.932 217.201 315.185 216.136 315.185C215.188 315.185 214.354 314.969 213.634 314.538C212.914 314.107 212.351 313.495 211.945 312.701C211.545 311.907 211.341 310.956 211.335 309.848V300.818H215.268V309.146C215.275 309.983 215.499 310.645 215.942 311.131C216.386 311.618 216.98 311.861 217.724 311.861C218.198 311.861 218.642 311.753 219.054 311.538C219.466 311.316 219.799 310.99 220.051 310.559C220.31 310.128 220.436 309.596 220.43 308.962ZM227.509 320.318V300.818H231.387V303.2H231.562C231.735 302.819 231.984 302.431 232.31 302.037C232.643 301.637 233.073 301.304 233.603 301.04C234.138 300.769 234.803 300.634 235.597 300.634C236.631 300.634 237.585 300.904 238.459 301.446C239.333 301.982 240.032 302.791 240.555 303.874C241.078 304.951 241.34 306.303 241.34 307.928C241.34 309.509 241.085 310.845 240.574 311.935C240.069 313.018 239.38 313.84 238.506 314.4C237.638 314.954 236.665 315.231 235.588 315.231C234.825 315.231 234.175 315.105 233.64 314.852C233.11 314.6 232.676 314.283 232.338 313.901C231.999 313.513 231.741 313.123 231.562 312.729H231.442V320.318H227.509ZM231.359 307.909C231.359 308.752 231.476 309.488 231.71 310.116C231.944 310.744 232.282 311.233 232.726 311.584C233.169 311.929 233.707 312.101 234.341 312.101C234.982 312.101 235.523 311.925 235.966 311.575C236.41 311.218 236.745 310.725 236.973 310.097C237.207 309.463 237.324 308.734 237.324 307.909C237.324 307.09 237.21 306.37 236.982 305.749C236.754 305.127 236.419 304.641 235.976 304.29C235.532 303.939 234.988 303.763 234.341 303.763C233.701 303.763 233.16 303.933 232.716 304.271C232.279 304.61 231.944 305.09 231.71 305.712C231.476 306.333 231.359 307.066 231.359 307.909Z" fill="#383838"/>
<path d="M47.2841 422L42.5114 404.545H44.6591L48.3068 418.761H48.4773L52.1932 404.545H54.5795L58.2955 418.761H58.4659L62.1136 404.545H64.2614L59.4886 422H57.3068L53.4545 408.091H53.3182L49.4659 422H47.2841ZM68.6335 414.125V422H66.6222V404.545H68.6335V410.955H68.804C69.1108 410.278 69.571 409.741 70.1847 409.344C70.804 408.94 71.6278 408.739 72.6562 408.739C73.5483 408.739 74.3295 408.918 75 409.276C75.6705 409.628 76.1903 410.17 76.5597 410.903C76.9347 411.631 77.1222 412.557 77.1222 413.682V422H75.1108V413.818C75.1108 412.778 74.8409 411.974 74.3011 411.406C73.767 410.832 73.0256 410.545 72.0767 410.545C71.4176 410.545 70.8267 410.685 70.304 410.963C69.7869 411.241 69.3778 411.648 69.0767 412.182C68.7813 412.716 68.6335 413.364 68.6335 414.125ZM84.6541 422.307C83.8246 422.307 83.0717 422.151 82.3956 421.838C81.7195 421.52 81.1825 421.062 80.7848 420.466C80.3871 419.864 80.1882 419.136 80.1882 418.284C80.1882 417.534 80.3359 416.926 80.6314 416.46C80.9268 415.989 81.3217 415.619 81.8161 415.352C82.3104 415.085 82.8558 414.886 83.4524 414.756C84.0547 414.619 84.6598 414.511 85.2678 414.432C86.0632 414.33 86.7081 414.253 87.2024 414.202C87.7024 414.145 88.0661 414.051 88.2933 413.92C88.5263 413.79 88.6428 413.562 88.6428 413.239V413.17C88.6428 412.33 88.4126 411.676 87.9524 411.21C87.4979 410.744 86.8075 410.511 85.8814 410.511C84.9212 410.511 84.1683 410.722 83.6229 411.142C83.0774 411.562 82.6939 412.011 82.4723 412.489L80.5632 411.807C80.9041 411.011 81.3587 410.392 81.9268 409.949C82.5007 409.5 83.1257 409.187 83.8018 409.011C84.4837 408.83 85.1541 408.739 85.8132 408.739C86.2337 408.739 86.7166 408.79 87.2621 408.892C87.8132 408.989 88.3445 409.19 88.8558 409.497C89.3729 409.804 89.8018 410.267 90.1428 410.886C90.4837 411.506 90.6541 412.335 90.6541 413.375V422H88.6428V420.227H88.5405C88.4041 420.511 88.1768 420.815 87.8587 421.139C87.5405 421.463 87.1172 421.739 86.5888 421.966C86.0604 422.193 85.4155 422.307 84.6541 422.307ZM84.9609 420.5C85.7564 420.5 86.4268 420.344 86.9723 420.031C87.5234 419.719 87.9382 419.315 88.2166 418.821C88.5007 418.327 88.6428 417.807 88.6428 417.261V415.42C88.5575 415.523 88.37 415.616 88.0803 415.702C87.7962 415.781 87.4666 415.852 87.0916 415.915C86.7223 415.972 86.3615 416.023 86.0092 416.068C85.6626 416.108 85.3814 416.142 85.1655 416.17C84.6428 416.239 84.1541 416.349 83.6996 416.503C83.2507 416.651 82.8871 416.875 82.6087 417.176C82.3359 417.472 82.1996 417.875 82.1996 418.386C82.1996 419.085 82.4581 419.614 82.9751 419.972C83.4979 420.324 84.1598 420.5 84.9609 420.5ZM100.018 408.909V410.614H93.2344V408.909H100.018ZM95.2116 405.773H97.223V418.25C97.223 418.818 97.3054 419.244 97.4702 419.528C97.6406 419.807 97.8565 419.994 98.1179 420.091C98.3849 420.182 98.6662 420.227 98.9616 420.227C99.1832 420.227 99.3651 420.216 99.5071 420.193C99.6491 420.165 99.7628 420.142 99.848 420.125L100.257 421.932C100.121 421.983 99.9304 422.034 99.6861 422.085C99.4418 422.142 99.1321 422.17 98.7571 422.17C98.1889 422.17 97.6321 422.048 97.0866 421.804C96.5469 421.56 96.098 421.188 95.7401 420.688C95.3878 420.188 95.2116 419.557 95.2116 418.795V405.773ZM115.487 408.909V410.614H108.703V408.909H115.487ZM110.68 405.773H112.692V418.25C112.692 418.818 112.774 419.244 112.939 419.528C113.109 419.807 113.325 419.994 113.587 420.091C113.854 420.182 114.135 420.227 114.43 420.227C114.652 420.227 114.834 420.216 114.976 420.193C115.118 420.165 115.232 420.142 115.317 420.125L115.726 421.932C115.589 421.983 115.399 422.034 115.155 422.085C114.911 422.142 114.601 422.17 114.226 422.17C113.658 422.17 113.101 422.048 112.555 421.804C112.016 421.56 111.567 421.188 111.209 420.688C110.857 420.188 110.68 419.557 110.68 418.795V405.773ZM119.808 426.909C119.467 426.909 119.163 426.881 118.896 426.824C118.629 426.773 118.445 426.722 118.342 426.67L118.854 424.898C119.342 425.023 119.774 425.068 120.149 425.034C120.524 425 120.857 424.832 121.146 424.531C121.442 424.236 121.712 423.756 121.956 423.091L122.331 422.068L117.49 408.909H119.672L123.286 419.341H123.422L127.036 408.909H129.217L123.661 423.909C123.411 424.585 123.101 425.145 122.732 425.588C122.362 426.037 121.933 426.369 121.445 426.585C120.962 426.801 120.416 426.909 119.808 426.909ZM131.872 426.909V408.909H133.815V410.989H134.054C134.202 410.761 134.406 410.472 134.668 410.119C134.935 409.761 135.315 409.443 135.81 409.165C136.31 408.881 136.986 408.739 137.838 408.739C138.94 408.739 139.912 409.014 140.753 409.565C141.594 410.116 142.25 410.898 142.722 411.909C143.193 412.92 143.429 414.114 143.429 415.489C143.429 416.875 143.193 418.077 142.722 419.094C142.25 420.105 141.597 420.889 140.761 421.446C139.926 421.997 138.963 422.273 137.872 422.273C137.031 422.273 136.358 422.134 135.852 421.855C135.347 421.571 134.957 421.25 134.685 420.892C134.412 420.528 134.202 420.227 134.054 419.989H133.884V426.909H131.872ZM133.849 415.455C133.849 416.443 133.994 417.315 134.284 418.071C134.574 418.821 134.997 419.409 135.554 419.835C136.111 420.256 136.793 420.466 137.599 420.466C138.44 420.466 139.142 420.244 139.705 419.801C140.273 419.352 140.699 418.75 140.983 417.994C141.273 417.233 141.418 416.386 141.418 415.455C141.418 414.534 141.276 413.705 140.991 412.966C140.713 412.222 140.29 411.634 139.722 411.202C139.159 410.764 138.452 410.545 137.599 410.545C136.781 410.545 136.094 410.753 135.537 411.168C134.98 411.577 134.56 412.151 134.276 412.889C133.991 413.622 133.849 414.477 133.849 415.455ZM151.986 422.273C150.724 422.273 149.636 421.994 148.722 421.438C147.812 420.875 147.111 420.091 146.616 419.085C146.128 418.074 145.884 416.898 145.884 415.557C145.884 414.216 146.128 413.034 146.616 412.011C147.111 410.983 147.798 410.182 148.679 409.608C149.565 409.028 150.599 408.739 151.781 408.739C152.463 408.739 153.136 408.852 153.801 409.08C154.466 409.307 155.071 409.676 155.616 410.188C156.162 410.693 156.597 411.364 156.92 412.199C157.244 413.034 157.406 414.062 157.406 415.284V416.136H147.315V414.398H155.361C155.361 413.659 155.213 413 154.918 412.42C154.628 411.841 154.213 411.384 153.673 411.048C153.139 410.713 152.509 410.545 151.781 410.545C150.98 410.545 150.287 410.744 149.702 411.142C149.122 411.534 148.676 412.045 148.364 412.676C148.051 413.307 147.895 413.983 147.895 414.705V415.864C147.895 416.852 148.065 417.69 148.406 418.378C148.753 419.06 149.233 419.58 149.847 419.938C150.46 420.29 151.173 420.466 151.986 420.466C152.514 420.466 152.991 420.392 153.418 420.244C153.849 420.091 154.222 419.864 154.534 419.562C154.847 419.256 155.088 418.875 155.259 418.42L157.202 418.966C156.997 419.625 156.653 420.205 156.17 420.705C155.688 421.199 155.091 421.585 154.381 421.864C153.67 422.136 152.872 422.273 151.986 422.273ZM172.534 422.273C171.352 422.273 170.315 421.991 169.423 421.429C168.537 420.866 167.844 420.08 167.344 419.068C166.849 418.057 166.602 416.875 166.602 415.523C166.602 414.159 166.849 412.969 167.344 411.952C167.844 410.935 168.537 410.145 169.423 409.582C170.315 409.02 171.352 408.739 172.534 408.739C173.716 408.739 174.75 409.02 175.636 409.582C176.528 410.145 177.222 410.935 177.716 411.952C178.216 412.969 178.466 414.159 178.466 415.523C178.466 416.875 178.216 418.057 177.716 419.068C177.222 420.08 176.528 420.866 175.636 421.429C174.75 421.991 173.716 422.273 172.534 422.273ZM172.534 420.466C173.432 420.466 174.17 420.236 174.75 419.776C175.33 419.315 175.759 418.71 176.037 417.96C176.315 417.21 176.455 416.398 176.455 415.523C176.455 414.648 176.315 413.832 176.037 413.077C175.759 412.321 175.33 411.71 174.75 411.244C174.17 410.778 173.432 410.545 172.534 410.545C171.636 410.545 170.898 410.778 170.318 411.244C169.739 411.71 169.31 412.321 169.031 413.077C168.753 413.832 168.614 414.648 168.614 415.523C168.614 416.398 168.753 417.21 169.031 417.96C169.31 418.71 169.739 419.315 170.318 419.776C170.898 420.236 171.636 420.466 172.534 420.466ZM187.366 408.909V410.614H180.309V408.909H187.366ZM182.423 422V407.102C182.423 406.352 182.599 405.727 182.951 405.227C183.303 404.727 183.761 404.352 184.323 404.102C184.886 403.852 185.479 403.727 186.104 403.727C186.599 403.727 187.002 403.767 187.315 403.847C187.627 403.926 187.86 404 188.013 404.068L187.434 405.807C187.332 405.773 187.19 405.73 187.008 405.679C186.832 405.628 186.599 405.602 186.309 405.602C185.644 405.602 185.164 405.77 184.869 406.105C184.579 406.44 184.434 406.932 184.434 407.58V422H182.423ZM205.185 416.648V408.909H207.196V422H205.185V419.784H205.048C204.741 420.449 204.264 421.014 203.616 421.48C202.969 421.94 202.151 422.17 201.162 422.17C200.344 422.17 199.616 421.991 198.98 421.634C198.344 421.27 197.844 420.724 197.48 419.997C197.116 419.264 196.935 418.341 196.935 417.227V408.909H198.946V417.091C198.946 418.045 199.213 418.807 199.747 419.375C200.287 419.943 200.974 420.227 201.81 420.227C202.31 420.227 202.818 420.099 203.335 419.844C203.858 419.588 204.295 419.196 204.648 418.668C205.006 418.139 205.185 417.466 205.185 416.648ZM220.153 411.841L218.346 412.352C218.232 412.051 218.065 411.759 217.843 411.474C217.627 411.185 217.332 410.946 216.957 410.759C216.582 410.571 216.102 410.477 215.516 410.477C214.715 410.477 214.048 410.662 213.513 411.031C212.985 411.395 212.721 411.858 212.721 412.42C212.721 412.92 212.903 413.315 213.266 413.605C213.63 413.895 214.198 414.136 214.971 414.33L216.914 414.807C218.085 415.091 218.957 415.526 219.531 416.111C220.104 416.69 220.391 417.437 220.391 418.352C220.391 419.102 220.175 419.773 219.744 420.364C219.317 420.955 218.721 421.42 217.954 421.761C217.187 422.102 216.295 422.273 215.278 422.273C213.942 422.273 212.837 421.983 211.962 421.403C211.087 420.824 210.533 419.977 210.3 418.864L212.21 418.386C212.391 419.091 212.735 419.619 213.241 419.972C213.752 420.324 214.42 420.5 215.244 420.5C216.181 420.5 216.925 420.301 217.477 419.903C218.033 419.5 218.312 419.017 218.312 418.455C218.312 418 218.153 417.619 217.835 417.312C217.516 417 217.028 416.767 216.369 416.614L214.187 416.102C212.988 415.818 212.107 415.378 211.545 414.781C210.988 414.179 210.71 413.426 210.71 412.523C210.71 411.784 210.917 411.131 211.332 410.562C211.752 409.994 212.323 409.548 213.045 409.224C213.772 408.901 214.596 408.739 215.516 408.739C216.812 408.739 217.829 409.023 218.567 409.591C219.312 410.159 219.84 410.909 220.153 411.841ZM228.908 422.273C227.646 422.273 226.558 421.994 225.643 421.438C224.734 420.875 224.033 420.091 223.538 419.085C223.05 418.074 222.805 416.898 222.805 415.557C222.805 414.216 223.05 413.034 223.538 412.011C224.033 410.983 224.72 410.182 225.601 409.608C226.487 409.028 227.521 408.739 228.703 408.739C229.385 408.739 230.058 408.852 230.723 409.08C231.388 409.307 231.993 409.676 232.538 410.188C233.084 410.693 233.518 411.364 233.842 412.199C234.166 413.034 234.328 414.062 234.328 415.284V416.136H224.237V414.398H232.283C232.283 413.659 232.135 413 231.839 412.42C231.55 411.841 231.135 411.384 230.595 411.048C230.061 410.713 229.43 410.545 228.703 410.545C227.902 410.545 227.209 410.744 226.624 411.142C226.044 411.534 225.598 412.045 225.286 412.676C224.973 413.307 224.817 413.983 224.817 414.705V415.864C224.817 416.852 224.987 417.69 225.328 418.378C225.675 419.06 226.155 419.58 226.768 419.938C227.382 420.29 228.095 420.466 228.908 420.466C229.436 420.466 229.913 420.392 230.339 420.244C230.771 420.091 231.143 419.864 231.456 419.562C231.768 419.256 232.01 418.875 232.18 418.42L234.124 418.966C233.919 419.625 233.575 420.205 233.092 420.705C232.609 421.199 232.013 421.585 231.303 421.864C230.592 422.136 229.794 422.273 228.908 422.273ZM237.388 422V408.909H239.331V410.886H239.467C239.706 410.239 240.138 409.713 240.763 409.31C241.388 408.906 242.092 408.705 242.876 408.705C243.024 408.705 243.209 408.707 243.43 408.713C243.652 408.719 243.82 408.727 243.933 408.739V410.784C243.865 410.767 243.709 410.741 243.464 410.707C243.226 410.668 242.973 410.648 242.706 410.648C242.07 410.648 241.501 410.781 241.001 411.048C240.507 411.31 240.115 411.673 239.825 412.139C239.541 412.599 239.399 413.125 239.399 413.716V422H237.388ZM256.92 422.307C256.09 422.307 255.337 422.151 254.661 421.838C253.985 421.52 253.448 421.062 253.05 420.466C252.653 419.864 252.454 419.136 252.454 418.284C252.454 417.534 252.602 416.926 252.897 416.46C253.192 415.989 253.587 415.619 254.082 415.352C254.576 415.085 255.121 414.886 255.718 414.756C256.32 414.619 256.925 414.511 257.533 414.432C258.329 414.33 258.974 414.253 259.468 414.202C259.968 414.145 260.332 414.051 260.559 413.92C260.792 413.79 260.908 413.562 260.908 413.239V413.17C260.908 412.33 260.678 411.676 260.218 411.21C259.763 410.744 259.073 410.511 258.147 410.511C257.187 410.511 256.434 410.722 255.888 411.142C255.343 411.562 254.96 412.011 254.738 412.489L252.829 411.807C253.17 411.011 253.624 410.392 254.192 409.949C254.766 409.5 255.391 409.187 256.067 409.011C256.749 408.83 257.42 408.739 258.079 408.739C258.499 408.739 258.982 408.79 259.528 408.892C260.079 408.989 260.61 409.19 261.121 409.497C261.638 409.804 262.067 410.267 262.408 410.886C262.749 411.506 262.92 412.335 262.92 413.375V422H260.908V420.227H260.806C260.67 420.511 260.442 420.815 260.124 421.139C259.806 421.463 259.383 421.739 258.854 421.966C258.326 422.193 257.681 422.307 256.92 422.307ZM257.227 420.5C258.022 420.5 258.692 420.344 259.238 420.031C259.789 419.719 260.204 419.315 260.482 418.821C260.766 418.327 260.908 417.807 260.908 417.261V415.42C260.823 415.523 260.636 415.616 260.346 415.702C260.062 415.781 259.732 415.852 259.357 415.915C258.988 415.972 258.627 416.023 258.275 416.068C257.928 416.108 257.647 416.142 257.431 416.17C256.908 416.239 256.42 416.349 255.965 416.503C255.516 416.651 255.153 416.875 254.874 417.176C254.602 417.472 254.465 417.875 254.465 418.386C254.465 419.085 254.724 419.614 255.241 419.972C255.763 420.324 256.425 420.5 257.227 420.5ZM266.591 422V408.909H268.534V410.886H268.67C268.909 410.239 269.341 409.713 269.966 409.31C270.591 408.906 271.295 408.705 272.08 408.705C272.227 408.705 272.412 408.707 272.634 408.713C272.855 408.719 273.023 408.727 273.136 408.739V410.784C273.068 410.767 272.912 410.741 272.668 410.707C272.429 410.668 272.176 410.648 271.909 410.648C271.273 410.648 270.705 410.781 270.205 411.048C269.71 411.31 269.318 411.673 269.028 412.139C268.744 412.599 268.602 413.125 268.602 413.716V422H266.591ZM280.611 422.273C279.349 422.273 278.261 421.994 277.347 421.438C276.438 420.875 275.736 420.091 275.241 419.085C274.753 418.074 274.509 416.898 274.509 415.557C274.509 414.216 274.753 413.034 275.241 412.011C275.736 410.983 276.423 410.182 277.304 409.608C278.19 409.028 279.224 408.739 280.406 408.739C281.088 408.739 281.761 408.852 282.426 409.08C283.091 409.307 283.696 409.676 284.241 410.188C284.787 410.693 285.222 411.364 285.545 412.199C285.869 413.034 286.031 414.062 286.031 415.284V416.136H275.94V414.398H283.986C283.986 413.659 283.838 413 283.543 412.42C283.253 411.841 282.838 411.384 282.298 411.048C281.764 410.713 281.134 410.545 280.406 410.545C279.605 410.545 278.912 410.744 278.327 411.142C277.747 411.534 277.301 412.045 276.989 412.676C276.676 413.307 276.52 413.983 276.52 414.705V415.864C276.52 416.852 276.69 417.69 277.031 418.378C277.378 419.06 277.858 419.58 278.472 419.938C279.085 420.29 279.798 420.466 280.611 420.466C281.139 420.466 281.616 420.392 282.043 420.244C282.474 420.091 282.847 419.864 283.159 419.562C283.472 419.256 283.713 418.875 283.884 418.42L285.827 418.966C285.622 419.625 285.278 420.205 284.795 420.705C284.313 421.199 283.716 421.585 283.006 421.864C282.295 422.136 281.497 422.273 280.611 422.273ZM297.136 426.909C296.795 426.909 296.491 426.881 296.224 426.824C295.957 426.773 295.773 426.722 295.67 426.67L296.182 424.898C296.67 425.023 297.102 425.068 297.477 425.034C297.852 425 298.185 424.832 298.474 424.531C298.77 424.236 299.04 423.756 299.284 423.091L299.659 422.068L294.818 408.909H297L300.614 419.341H300.75L304.364 408.909H306.545L300.989 423.909C300.739 424.585 300.429 425.145 300.06 425.588C299.69 426.037 299.261 426.369 298.773 426.585C298.29 426.801 297.744 426.909 297.136 426.909ZM314.05 422.273C312.868 422.273 311.831 421.991 310.939 421.429C310.053 420.866 309.359 420.08 308.859 419.068C308.365 418.057 308.118 416.875 308.118 415.523C308.118 414.159 308.365 412.969 308.859 411.952C309.359 410.935 310.053 410.145 310.939 409.582C311.831 409.02 312.868 408.739 314.05 408.739C315.232 408.739 316.266 409.02 317.152 409.582C318.044 410.145 318.737 410.935 319.232 411.952C319.732 412.969 319.982 414.159 319.982 415.523C319.982 416.875 319.732 418.057 319.232 419.068C318.737 420.08 318.044 420.866 317.152 421.429C316.266 421.991 315.232 422.273 314.05 422.273ZM314.05 420.466C314.947 420.466 315.686 420.236 316.266 419.776C316.845 419.315 317.274 418.71 317.553 417.96C317.831 417.21 317.97 416.398 317.97 415.523C317.97 414.648 317.831 413.832 317.553 413.077C317.274 412.321 316.845 411.71 316.266 411.244C315.686 410.778 314.947 410.545 314.05 410.545C313.152 410.545 312.413 410.778 311.834 411.244C311.254 411.71 310.825 412.321 310.547 413.077C310.268 413.832 310.129 414.648 310.129 415.523C310.129 416.398 310.268 417.21 310.547 417.96C310.825 418.71 311.254 419.315 311.834 419.776C312.413 420.236 313.152 420.466 314.05 420.466ZM331.302 416.648V408.909H333.313V422H331.302V419.784H331.165C330.859 420.449 330.381 421.014 329.734 421.48C329.086 421.94 328.268 422.17 327.279 422.17C326.461 422.17 325.734 421.991 325.097 421.634C324.461 421.27 323.961 420.724 323.597 419.997C323.234 419.264 323.052 418.341 323.052 417.227V408.909H325.063V417.091C325.063 418.045 325.33 418.807 325.864 419.375C326.404 419.943 327.092 420.227 327.927 420.227C328.427 420.227 328.935 420.099 329.452 419.844C329.975 419.588 330.413 419.196 330.765 418.668C331.123 418.139 331.302 417.466 331.302 416.648ZM339.622 417.091V416.989C339.634 415.903 339.747 415.04 339.963 414.398C340.179 413.756 340.486 413.236 340.884 412.838C341.281 412.44 341.759 412.074 342.315 411.739C342.651 411.534 342.952 411.293 343.219 411.014C343.486 410.73 343.696 410.403 343.849 410.034C344.009 409.665 344.088 409.256 344.088 408.807C344.088 408.25 343.957 407.767 343.696 407.358C343.435 406.949 343.085 406.634 342.648 406.412C342.21 406.19 341.724 406.08 341.19 406.08C340.724 406.08 340.276 406.176 339.844 406.369C339.412 406.562 339.051 406.866 338.761 407.281C338.472 407.696 338.304 408.239 338.259 408.909H336.111C336.156 407.943 336.406 407.116 336.861 406.429C337.321 405.741 337.926 405.216 338.676 404.852C339.432 404.489 340.27 404.307 341.19 404.307C342.19 404.307 343.06 404.506 343.798 404.903C344.543 405.301 345.116 405.847 345.52 406.54C345.929 407.233 346.134 408.023 346.134 408.909C346.134 409.534 346.037 410.099 345.844 410.605C345.656 411.111 345.384 411.562 345.026 411.96C344.673 412.358 344.247 412.71 343.747 413.017C343.247 413.33 342.847 413.659 342.545 414.006C342.244 414.347 342.026 414.753 341.889 415.224C341.753 415.696 341.679 416.284 341.668 416.989V417.091H339.622ZM340.713 422.136C340.293 422.136 339.932 421.986 339.631 421.685C339.33 421.384 339.179 421.023 339.179 420.602C339.179 420.182 339.33 419.821 339.631 419.52C339.932 419.219 340.293 419.068 340.713 419.068C341.134 419.068 341.494 419.219 341.795 419.52C342.097 419.821 342.247 420.182 342.247 420.602C342.247 420.881 342.176 421.136 342.034 421.369C341.898 421.602 341.713 421.79 341.48 421.932C341.253 422.068 340.997 422.136 340.713 422.136Z" fill="#383838"/>
<rect x="25" y="455" width="340" height="137" rx="15" fill="white"/>
<rect x="25" y="603" width="340" height="137" rx="15" fill="white"/>
<path d="M157.114 532V514.545H163.011C164.381 514.545 165.5 514.793 166.369 515.287C167.244 515.776 167.892 516.438 168.312 517.273C168.733 518.108 168.943 519.04 168.943 520.068C168.943 521.097 168.733 522.031 168.312 522.872C167.898 523.713 167.256 524.384 166.386 524.884C165.517 525.378 164.403 525.625 163.045 525.625H158.818V523.75H162.977C163.915 523.75 164.668 523.588 165.236 523.264C165.804 522.94 166.216 522.503 166.472 521.952C166.733 521.395 166.864 520.767 166.864 520.068C166.864 519.369 166.733 518.744 166.472 518.193C166.216 517.642 165.801 517.21 165.227 516.898C164.653 516.58 163.892 516.42 162.943 516.42H159.227V532H157.114ZM175.928 532.307C175.098 532.307 174.345 532.151 173.669 531.838C172.993 531.52 172.456 531.062 172.058 530.466C171.661 529.864 171.462 529.136 171.462 528.284C171.462 527.534 171.609 526.926 171.905 526.46C172.2 525.989 172.595 525.619 173.089 525.352C173.584 525.085 174.129 524.886 174.726 524.756C175.328 524.619 175.933 524.511 176.541 524.432C177.337 524.33 177.982 524.253 178.476 524.202C178.976 524.145 179.339 524.051 179.567 523.92C179.8 523.79 179.916 523.562 179.916 523.239V523.17C179.916 522.33 179.686 521.676 179.226 521.21C178.771 520.744 178.081 520.511 177.155 520.511C176.195 520.511 175.442 520.722 174.896 521.142C174.351 521.562 173.967 522.011 173.746 522.489L171.837 521.807C172.178 521.011 172.632 520.392 173.2 519.949C173.774 519.5 174.399 519.187 175.075 519.011C175.757 518.83 176.428 518.739 177.087 518.739C177.507 518.739 177.99 518.79 178.536 518.892C179.087 518.989 179.618 519.19 180.129 519.497C180.646 519.804 181.075 520.267 181.416 520.886C181.757 521.506 181.928 522.335 181.928 523.375V532H179.916V530.227H179.814C179.678 530.511 179.45 530.815 179.132 531.139C178.814 531.463 178.391 531.739 177.862 531.966C177.334 532.193 176.689 532.307 175.928 532.307ZM176.234 530.5C177.03 530.5 177.7 530.344 178.246 530.031C178.797 529.719 179.212 529.315 179.49 528.821C179.774 528.327 179.916 527.807 179.916 527.261V525.42C179.831 525.523 179.643 525.616 179.354 525.702C179.07 525.781 178.74 525.852 178.365 525.915C177.996 525.972 177.635 526.023 177.283 526.068C176.936 526.108 176.655 526.142 176.439 526.17C175.916 526.239 175.428 526.349 174.973 526.503C174.524 526.651 174.161 526.875 173.882 527.176C173.609 527.472 173.473 527.875 173.473 528.386C173.473 529.085 173.732 529.614 174.249 529.972C174.771 530.324 175.433 530.5 176.234 530.5ZM191.292 518.909V520.614H184.508V518.909H191.292ZM186.485 515.773H188.496V528.25C188.496 528.818 188.579 529.244 188.744 529.528C188.914 529.807 189.13 529.994 189.391 530.091C189.658 530.182 189.94 530.227 190.235 530.227C190.457 530.227 190.638 530.216 190.781 530.193C190.923 530.165 191.036 530.142 191.121 530.125L191.531 531.932C191.394 531.983 191.204 532.034 190.96 532.085C190.715 532.142 190.406 532.17 190.031 532.17C189.462 532.17 188.906 532.048 188.36 531.804C187.82 531.56 187.371 531.188 187.013 530.688C186.661 530.188 186.485 529.557 186.485 528.795V515.773ZM194.317 532V518.909H196.329V532H194.317ZM195.34 516.727C194.948 516.727 194.61 516.594 194.326 516.327C194.048 516.06 193.908 515.739 193.908 515.364C193.908 514.989 194.048 514.668 194.326 514.401C194.61 514.134 194.948 514 195.34 514C195.732 514 196.067 514.134 196.346 514.401C196.63 514.668 196.772 514.989 196.772 515.364C196.772 515.739 196.63 516.06 196.346 516.327C196.067 516.594 195.732 516.727 195.34 516.727ZM205.501 532.273C204.24 532.273 203.152 531.994 202.237 531.438C201.328 530.875 200.626 530.091 200.132 529.085C199.643 528.074 199.399 526.898 199.399 525.557C199.399 524.216 199.643 523.034 200.132 522.011C200.626 520.983 201.314 520.182 202.195 519.608C203.081 519.028 204.115 518.739 205.297 518.739C205.979 518.739 206.652 518.852 207.317 519.08C207.982 519.307 208.587 519.676 209.132 520.188C209.678 520.693 210.112 521.364 210.436 522.199C210.76 523.034 210.922 524.062 210.922 525.284V526.136H200.831V524.398H208.876C208.876 523.659 208.729 523 208.433 522.42C208.143 521.841 207.729 521.384 207.189 521.048C206.655 520.713 206.024 520.545 205.297 520.545C204.496 520.545 203.803 520.744 203.217 521.142C202.638 521.534 202.192 522.045 201.879 522.676C201.567 523.307 201.411 523.983 201.411 524.705V525.864C201.411 526.852 201.581 527.69 201.922 528.378C202.268 529.06 202.749 529.58 203.362 529.938C203.976 530.29 204.689 530.466 205.501 530.466C206.03 530.466 206.507 530.392 206.933 530.244C207.365 530.091 207.737 529.864 208.05 529.562C208.362 529.256 208.604 528.875 208.774 528.42L210.717 528.966C210.513 529.625 210.169 530.205 209.686 530.705C209.203 531.199 208.607 531.585 207.896 531.864C207.186 532.136 206.388 532.273 205.501 532.273ZM215.993 524.125V532H213.982V518.909H215.925V520.955H216.095C216.402 520.29 216.868 519.756 217.493 519.352C218.118 518.943 218.925 518.739 219.913 518.739C220.8 518.739 221.575 518.92 222.24 519.284C222.905 519.642 223.422 520.188 223.791 520.92C224.161 521.648 224.345 522.568 224.345 523.682V532H222.334V523.818C222.334 522.79 222.067 521.989 221.533 521.415C220.999 520.835 220.266 520.545 219.334 520.545C218.692 520.545 218.118 520.685 217.612 520.963C217.112 521.241 216.717 521.648 216.428 522.182C216.138 522.716 215.993 523.364 215.993 524.125ZM233.714 518.909V520.614H226.93V518.909H233.714ZM228.907 515.773H230.918V528.25C230.918 528.818 231.001 529.244 231.165 529.528C231.336 529.807 231.552 529.994 231.813 530.091C232.08 530.182 232.362 530.227 232.657 530.227C232.879 530.227 233.06 530.216 233.202 530.193C233.344 530.165 233.458 530.142 233.543 530.125L233.952 531.932C233.816 531.983 233.626 532.034 233.381 532.085C233.137 532.142 232.827 532.17 232.452 532.17C231.884 532.17 231.327 532.048 230.782 531.804C230.242 531.56 229.793 531.188 229.435 530.688C229.083 530.188 228.907 529.557 228.907 528.795V515.773Z" fill="#383838"/>
<path d="M93.1136 680V662.545H99.0114C100.381 662.545 101.5 662.793 102.369 663.287C103.244 663.776 103.892 664.438 104.312 665.273C104.733 666.108 104.943 667.04 104.943 668.068C104.943 669.097 104.733 670.031 104.312 670.872C103.898 671.713 103.256 672.384 102.386 672.884C101.517 673.378 100.403 673.625 99.0455 673.625H94.8182V671.75H98.9773C99.9148 671.75 100.668 671.588 101.236 671.264C101.804 670.94 102.216 670.503 102.472 669.952C102.733 669.395 102.864 668.767 102.864 668.068C102.864 667.369 102.733 666.744 102.472 666.193C102.216 665.642 101.801 665.21 101.227 664.898C100.653 664.58 99.892 664.42 98.9432 664.42H95.2273V680H93.1136ZM110.087 672.125V680H108.075V662.545H110.087V668.955H110.257C110.564 668.278 111.024 667.741 111.638 667.344C112.257 666.94 113.081 666.739 114.109 666.739C115.001 666.739 115.783 666.918 116.453 667.276C117.124 667.628 117.643 668.17 118.013 668.903C118.388 669.631 118.575 670.557 118.575 671.682V680H116.564V671.818C116.564 670.778 116.294 669.974 115.754 669.406C115.22 668.832 114.479 668.545 113.53 668.545C112.871 668.545 112.28 668.685 111.757 668.963C111.24 669.241 110.831 669.648 110.53 670.182C110.234 670.716 110.087 671.364 110.087 672.125ZM123.082 684.909C122.741 684.909 122.437 684.881 122.17 684.824C121.903 684.773 121.718 684.722 121.616 684.67L122.127 682.898C122.616 683.023 123.048 683.068 123.423 683.034C123.798 683 124.13 682.832 124.42 682.531C124.715 682.236 124.985 681.756 125.229 681.091L125.604 680.068L120.763 666.909H122.945L126.559 677.341H126.695L130.309 666.909H132.491L126.934 681.909C126.684 682.585 126.374 683.145 126.005 683.588C125.636 684.037 125.207 684.369 124.718 684.585C124.235 684.801 123.69 684.909 123.082 684.909ZM144.418 669.841L142.612 670.352C142.498 670.051 142.33 669.759 142.109 669.474C141.893 669.185 141.597 668.946 141.222 668.759C140.847 668.571 140.367 668.477 139.782 668.477C138.981 668.477 138.313 668.662 137.779 669.031C137.251 669.395 136.987 669.858 136.987 670.42C136.987 670.92 137.168 671.315 137.532 671.605C137.896 671.895 138.464 672.136 139.237 672.33L141.18 672.807C142.35 673.091 143.222 673.526 143.796 674.111C144.37 674.69 144.657 675.437 144.657 676.352C144.657 677.102 144.441 677.773 144.009 678.364C143.583 678.955 142.987 679.42 142.219 679.761C141.452 680.102 140.56 680.273 139.543 680.273C138.208 680.273 137.103 679.983 136.228 679.403C135.353 678.824 134.799 677.977 134.566 676.864L136.475 676.386C136.657 677.091 137.001 677.619 137.506 677.972C138.018 678.324 138.685 678.5 139.509 678.5C140.447 678.5 141.191 678.301 141.742 677.903C142.299 677.5 142.577 677.017 142.577 676.455C142.577 676 142.418 675.619 142.1 675.312C141.782 675 141.293 674.767 140.634 674.614L138.452 674.102C137.254 673.818 136.373 673.378 135.81 672.781C135.254 672.179 134.975 671.426 134.975 670.523C134.975 669.784 135.183 669.131 135.597 668.562C136.018 667.994 136.589 667.548 137.31 667.224C138.038 666.901 138.862 666.739 139.782 666.739C141.077 666.739 142.094 667.023 142.833 667.591C143.577 668.159 144.106 668.909 144.418 669.841ZM147.685 680V666.909H149.696V680H147.685ZM148.707 664.727C148.315 664.727 147.977 664.594 147.693 664.327C147.415 664.06 147.276 663.739 147.276 663.364C147.276 662.989 147.415 662.668 147.693 662.401C147.977 662.134 148.315 662 148.707 662C149.099 662 149.435 662.134 149.713 662.401C149.997 662.668 150.139 662.989 150.139 663.364C150.139 663.739 149.997 664.06 149.713 664.327C149.435 664.594 149.099 664.727 148.707 664.727ZM158.698 680.273C157.471 680.273 156.414 679.983 155.528 679.403C154.641 678.824 153.96 678.026 153.482 677.009C153.005 675.991 152.766 674.83 152.766 673.523C152.766 672.193 153.011 671.02 153.499 670.003C153.994 668.98 154.681 668.182 155.562 667.608C156.448 667.028 157.482 666.739 158.664 666.739C159.585 666.739 160.414 666.909 161.153 667.25C161.891 667.591 162.496 668.068 162.968 668.682C163.44 669.295 163.732 670.011 163.846 670.83H161.835C161.681 670.233 161.34 669.705 160.812 669.244C160.289 668.778 159.585 668.545 158.698 668.545C157.914 668.545 157.227 668.75 156.636 669.159C156.05 669.562 155.593 670.134 155.263 670.872C154.94 671.605 154.778 672.466 154.778 673.455C154.778 674.466 154.937 675.347 155.255 676.097C155.579 676.847 156.033 677.429 156.619 677.844C157.21 678.259 157.903 678.466 158.698 678.466C159.221 678.466 159.695 678.375 160.121 678.193C160.548 678.011 160.908 677.75 161.204 677.409C161.499 677.068 161.71 676.659 161.835 676.182H163.846C163.732 676.955 163.451 677.651 163.002 678.27C162.559 678.884 161.971 679.372 161.238 679.736C160.511 680.094 159.664 680.273 158.698 680.273ZM170.638 680.307C169.809 680.307 169.056 680.151 168.38 679.838C167.704 679.52 167.167 679.062 166.769 678.466C166.371 677.864 166.173 677.136 166.173 676.284C166.173 675.534 166.32 674.926 166.616 674.46C166.911 673.989 167.306 673.619 167.8 673.352C168.295 673.085 168.84 672.886 169.437 672.756C170.039 672.619 170.644 672.511 171.252 672.432C172.048 672.33 172.692 672.253 173.187 672.202C173.687 672.145 174.05 672.051 174.278 671.92C174.511 671.79 174.627 671.562 174.627 671.239V671.17C174.627 670.33 174.397 669.676 173.937 669.21C173.482 668.744 172.792 668.511 171.866 668.511C170.906 668.511 170.153 668.722 169.607 669.142C169.062 669.562 168.678 670.011 168.457 670.489L166.548 669.807C166.888 669.011 167.343 668.392 167.911 667.949C168.485 667.5 169.11 667.187 169.786 667.011C170.468 666.83 171.138 666.739 171.798 666.739C172.218 666.739 172.701 666.79 173.246 666.892C173.798 666.989 174.329 667.19 174.84 667.497C175.357 667.804 175.786 668.267 176.127 668.886C176.468 669.506 176.638 670.335 176.638 671.375V680H174.627V678.227H174.525C174.388 678.511 174.161 678.815 173.843 679.139C173.525 679.463 173.102 679.739 172.573 679.966C172.045 680.193 171.4 680.307 170.638 680.307ZM170.945 678.5C171.741 678.5 172.411 678.344 172.957 678.031C173.508 677.719 173.923 677.315 174.201 676.821C174.485 676.327 174.627 675.807 174.627 675.261V673.42C174.542 673.523 174.354 673.616 174.065 673.702C173.781 673.781 173.451 673.852 173.076 673.915C172.707 673.972 172.346 674.023 171.994 674.068C171.647 674.108 171.366 674.142 171.15 674.17C170.627 674.239 170.138 674.349 169.684 674.503C169.235 674.651 168.871 674.875 168.593 675.176C168.32 675.472 168.184 675.875 168.184 676.386C168.184 677.085 168.442 677.614 168.96 677.972C169.482 678.324 170.144 678.5 170.945 678.5ZM182.321 662.545V680H180.31V662.545H182.321ZM192.073 664.42V662.545H205.164V664.42H199.675V680H197.562V664.42H192.073ZM210.165 672.125V680H208.153V662.545H210.165V668.955H210.335C210.642 668.278 211.102 667.741 211.716 667.344C212.335 666.94 213.159 666.739 214.188 666.739C215.08 666.739 215.861 666.918 216.531 667.276C217.202 667.628 217.722 668.17 218.091 668.903C218.466 669.631 218.653 670.557 218.653 671.682V680H216.642V671.818C216.642 670.778 216.372 669.974 215.832 669.406C215.298 668.832 214.557 668.545 213.608 668.545C212.949 668.545 212.358 668.685 211.835 668.963C211.318 669.241 210.909 669.648 210.608 670.182C210.313 670.716 210.165 671.364 210.165 672.125ZM227.822 680.273C226.56 680.273 225.472 679.994 224.558 679.438C223.648 678.875 222.947 678.091 222.452 677.085C221.964 676.074 221.719 674.898 221.719 673.557C221.719 672.216 221.964 671.034 222.452 670.011C222.947 668.983 223.634 668.182 224.515 667.608C225.401 667.028 226.435 666.739 227.617 666.739C228.299 666.739 228.972 666.852 229.637 667.08C230.302 667.307 230.907 667.676 231.452 668.188C231.998 668.693 232.433 669.364 232.756 670.199C233.08 671.034 233.242 672.062 233.242 673.284V674.136H223.151V672.398H231.197C231.197 671.659 231.049 671 230.754 670.42C230.464 669.841 230.049 669.384 229.509 669.048C228.975 668.713 228.344 668.545 227.617 668.545C226.816 668.545 226.123 668.744 225.538 669.142C224.958 669.534 224.512 670.045 224.2 670.676C223.887 671.307 223.731 671.983 223.731 672.705V673.864C223.731 674.852 223.901 675.69 224.242 676.378C224.589 677.06 225.069 677.58 225.683 677.938C226.296 678.29 227.009 678.466 227.822 678.466C228.35 678.466 228.827 678.392 229.254 678.244C229.685 678.091 230.058 677.864 230.37 677.562C230.683 677.256 230.924 676.875 231.094 676.42L233.038 676.966C232.833 677.625 232.489 678.205 232.006 678.705C231.523 679.199 230.927 679.585 230.217 679.864C229.506 680.136 228.708 680.273 227.822 680.273ZM236.302 680V666.909H238.245V668.886H238.381C238.62 668.239 239.052 667.713 239.677 667.31C240.302 666.906 241.006 666.705 241.79 666.705C241.938 666.705 242.123 666.707 242.344 666.713C242.566 666.719 242.734 666.727 242.847 666.739V668.784C242.779 668.767 242.623 668.741 242.379 668.707C242.14 668.668 241.887 668.648 241.62 668.648C240.984 668.648 240.415 668.781 239.915 669.048C239.421 669.31 239.029 669.673 238.739 670.139C238.455 670.599 238.313 671.125 238.313 671.716V680H236.302ZM249.084 680.307C248.254 680.307 247.501 680.151 246.825 679.838C246.149 679.52 245.612 679.062 245.214 678.466C244.817 677.864 244.618 677.136 244.618 676.284C244.618 675.534 244.766 674.926 245.061 674.46C245.357 673.989 245.751 673.619 246.246 673.352C246.74 673.085 247.286 672.886 247.882 672.756C248.484 672.619 249.089 672.511 249.697 672.432C250.493 672.33 251.138 672.253 251.632 672.202C252.132 672.145 252.496 672.051 252.723 671.92C252.956 671.79 253.072 671.562 253.072 671.239V671.17C253.072 670.33 252.842 669.676 252.382 669.21C251.928 668.744 251.237 668.511 250.311 668.511C249.351 668.511 248.598 668.722 248.053 669.142C247.507 669.562 247.124 670.011 246.902 670.489L244.993 669.807C245.334 669.011 245.788 668.392 246.357 667.949C246.93 667.5 247.555 667.187 248.232 667.011C248.913 666.83 249.584 666.739 250.243 666.739C250.663 666.739 251.146 666.79 251.692 666.892C252.243 666.989 252.774 667.19 253.286 667.497C253.803 667.804 254.232 668.267 254.572 668.886C254.913 669.506 255.084 670.335 255.084 671.375V680H253.072V678.227H252.97C252.834 678.511 252.607 678.815 252.288 679.139C251.97 679.463 251.547 679.739 251.018 679.966C250.49 680.193 249.845 680.307 249.084 680.307ZM249.391 678.5C250.186 678.5 250.857 678.344 251.402 678.031C251.953 677.719 252.368 677.315 252.646 676.821C252.93 676.327 253.072 675.807 253.072 675.261V673.42C252.987 673.523 252.8 673.616 252.51 673.702C252.226 673.781 251.896 673.852 251.521 673.915C251.152 673.972 250.791 674.023 250.439 674.068C250.092 674.108 249.811 674.142 249.595 674.17C249.072 674.239 248.584 674.349 248.129 674.503C247.68 674.651 247.317 674.875 247.038 675.176C246.766 675.472 246.629 675.875 246.629 676.386C246.629 677.085 246.888 677.614 247.405 677.972C247.928 678.324 248.589 678.5 249.391 678.5ZM258.755 684.909V666.909H260.698V668.989H260.937C261.085 668.761 261.289 668.472 261.55 668.119C261.817 667.761 262.198 667.443 262.692 667.165C263.192 666.881 263.869 666.739 264.721 666.739C265.823 666.739 266.795 667.014 267.636 667.565C268.477 668.116 269.133 668.898 269.604 669.909C270.076 670.92 270.312 672.114 270.312 673.489C270.312 674.875 270.076 676.077 269.604 677.094C269.133 678.105 268.479 678.889 267.644 679.446C266.809 679.997 265.846 680.273 264.755 680.273C263.914 680.273 263.241 680.134 262.735 679.855C262.229 679.571 261.84 679.25 261.567 678.892C261.295 678.528 261.085 678.227 260.937 677.989H260.766V684.909H258.755ZM260.732 673.455C260.732 674.443 260.877 675.315 261.167 676.071C261.457 676.821 261.88 677.409 262.437 677.835C262.994 678.256 263.675 678.466 264.482 678.466C265.323 678.466 266.025 678.244 266.587 677.801C267.156 677.352 267.582 676.75 267.866 675.994C268.156 675.233 268.3 674.386 268.3 673.455C268.3 672.534 268.158 671.705 267.874 670.966C267.596 670.222 267.173 669.634 266.604 669.202C266.042 668.764 265.335 668.545 264.482 668.545C263.664 668.545 262.977 668.753 262.42 669.168C261.863 669.577 261.442 670.151 261.158 670.889C260.874 671.622 260.732 672.477 260.732 673.455ZM273.38 680V666.909H275.391V680H273.38ZM274.403 664.727C274.011 664.727 273.673 664.594 273.388 664.327C273.11 664.06 272.971 663.739 272.971 663.364C272.971 662.989 273.11 662.668 273.388 662.401C273.673 662.134 274.011 662 274.403 662C274.795 662 275.13 662.134 275.408 662.401C275.692 662.668 275.835 662.989 275.835 663.364C275.835 663.739 275.692 664.06 275.408 664.327C275.13 664.594 274.795 664.727 274.403 664.727ZM288.348 669.841L286.541 670.352C286.428 670.051 286.26 669.759 286.038 669.474C285.822 669.185 285.527 668.946 285.152 668.759C284.777 668.571 284.297 668.477 283.712 668.477C282.911 668.477 282.243 668.662 281.709 669.031C281.18 669.395 280.916 669.858 280.916 670.42C280.916 670.92 281.098 671.315 281.462 671.605C281.825 671.895 282.393 672.136 283.166 672.33L285.109 672.807C286.28 673.091 287.152 673.526 287.726 674.111C288.3 674.69 288.587 675.437 288.587 676.352C288.587 677.102 288.371 677.773 287.939 678.364C287.513 678.955 286.916 679.42 286.149 679.761C285.382 680.102 284.49 680.273 283.473 680.273C282.138 680.273 281.033 679.983 280.158 679.403C279.283 678.824 278.729 677.977 278.496 676.864L280.405 676.386C280.587 677.091 280.93 677.619 281.436 677.972C281.947 678.324 282.615 678.5 283.439 678.5C284.376 678.5 285.121 678.301 285.672 677.903C286.229 677.5 286.507 677.017 286.507 676.455C286.507 676 286.348 675.619 286.03 675.312C285.712 675 285.223 674.767 284.564 674.614L282.382 674.102C281.183 673.818 280.303 673.378 279.74 672.781C279.183 672.179 278.905 671.426 278.905 670.523C278.905 669.784 279.112 669.131 279.527 668.562C279.947 667.994 280.518 667.548 281.24 667.224C281.967 666.901 282.791 666.739 283.712 666.739C285.007 666.739 286.024 667.023 286.763 667.591C287.507 668.159 288.036 668.909 288.348 669.841ZM297.308 666.909V668.614H290.523V666.909H297.308ZM292.501 663.773H294.512V676.25C294.512 676.818 294.594 677.244 294.759 677.528C294.93 677.807 295.146 677.994 295.407 678.091C295.674 678.182 295.955 678.227 296.251 678.227C296.472 678.227 296.654 678.216 296.796 678.193C296.938 678.165 297.052 678.142 297.137 678.125L297.546 679.932C297.41 679.983 297.219 680.034 296.975 680.085C296.731 680.142 296.421 680.17 296.046 680.17C295.478 680.17 294.921 680.048 294.376 679.804C293.836 679.56 293.387 679.188 293.029 678.688C292.677 678.188 292.501 677.557 292.501 676.795V663.773Z" fill="#383838"/>
<rect x="25" y="760" width="340" height="40" rx="15" fill="#35DB9F"/>
<path d="M182.416 775.636V788H180.158L174.779 780.218H174.689V788H172.075V775.636H174.369L179.705 783.412H179.814V775.636H182.416ZM184.576 788V775.636H192.907V777.792H187.19V780.738H192.478V782.893H187.19V785.845H192.931V788H184.576ZM197.436 775.636L199.929 779.85H200.026L202.531 775.636H205.483L201.71 781.818L205.567 788H202.561L200.026 783.78H199.929L197.393 788H194.399L198.269 781.818L194.472 775.636H197.436ZM206.666 777.792V775.636H216.82V777.792H213.035V788H210.451V777.792H206.666Z" fill="white"/>
<path d="M46 56.9444H26.3194L31.2917 51.9583L29.3333 50L21 58.3333L29.3333 66.6667L31.2917 64.7083L26.3194 59.7222H46V56.9444Z" fill="#383838"/>
<path fill-rule="evenodd" clip-rule="evenodd" d="M230.767 87.1318C230.54 68.3183 214.691 54.5383 206.796 50C212.895 54.8592 224.611 69.281 222.682 88.0945C221.212 102.429 212.911 110.997 205.291 118.862C200.41 123.9 195.809 128.649 193.462 134.44C188.038 147.826 193.405 155.383 197.562 157.674C198.036 158.018 198.487 158.188 198.852 158.232C198.446 158.107 198.011 157.921 197.562 157.674C196.074 156.591 194.369 153.79 194.455 147.78C194.559 140.555 201.908 133.009 205.89 128.921C206.274 128.527 206.626 128.165 206.937 127.839C207.41 127.345 208.043 126.717 208.799 125.968C215.325 119.5 230.971 103.993 230.767 87.1318ZM205.496 85.4815C209.962 85.4815 213.582 81.9719 213.582 77.6425C213.582 73.3132 209.962 69.8036 205.496 69.8036C201.031 69.8036 197.411 73.3132 197.411 77.6425C197.411 81.9719 201.031 85.4815 205.496 85.4815Z" fill="#2FE9D2"/>
<path fill-rule="evenodd" clip-rule="evenodd" d="M169.184 121.513C173.65 121.513 177.27 118.003 177.27 113.674C177.27 109.345 173.65 105.835 169.184 105.835C164.719 105.835 161.099 109.345 161.099 113.674C161.099 118.003 164.719 121.513 169.184 121.513ZM191.748 114.924C178.951 129.043 155.799 154.589 173.896 179.686C175.212 181.893 178.113 185.61 182.863 190.413L177.685 198.802C169.88 192.071 163.495 183.845 160.562 174.048C152.165 145.993 182.312 117.617 198.435 106.935C197.261 108.842 194.799 111.558 191.748 114.924ZM189.083 196.327C197.006 203.451 208.12 212.09 222.974 221.356C213.363 219.09 198.336 212.755 184.929 203.34L189.083 196.327Z" fill="#59BAAE"/>
<path fill-rule="evenodd" clip-rule="evenodd" d="M209.185 110.649C198.339 94.7463 176.047 80.5749 163.936 74.4795C176.289 77.456 199.225 86.6205 213.582 104.597L209.185 110.649ZM223.794 123.163C228.674 141.757 219.114 159.523 215.993 163.321C213.678 166.138 209.695 170.471 205.271 175.283L205.269 175.286L205.268 175.286L205.268 175.287C195.656 185.743 183.967 198.458 182.802 202.79C181.903 204.899 180.078 209.859 179.965 212.83C179.823 216.543 182.66 221.769 185.922 224.932C182.66 223.603 176.39 218.083 177.411 206.641C178.373 195.872 195.242 177.11 205.028 166.226C205.639 165.547 206.223 164.898 206.773 164.283C212.039 157.969 219.849 142.442 215.341 123.163L221.238 116.7C222.218 118.773 223.077 120.927 223.794 123.163ZM185.355 173.773C189.82 173.773 193.44 170.263 193.44 165.934C193.44 161.604 189.82 158.095 185.355 158.095C180.889 158.095 177.27 161.604 177.27 165.934C177.27 170.263 180.889 173.773 185.355 173.773Z" fill="#37DCA0"/>
<path d="M136.874 252.437V237.434H142.102C143.316 237.434 144.308 237.647 145.079 238.072C145.855 238.492 146.429 239.06 146.802 239.778C147.175 240.496 147.361 241.297 147.361 242.181C147.361 243.065 147.175 243.868 146.802 244.591C146.434 245.314 145.865 245.89 145.094 246.32C144.324 246.745 143.336 246.957 142.132 246.957H138.385V245.346H142.072C142.903 245.346 143.571 245.207 144.074 244.928C144.578 244.65 144.943 244.274 145.17 243.8C145.402 243.322 145.517 242.782 145.517 242.181C145.517 241.58 145.402 241.043 145.17 240.57C144.943 240.096 144.575 239.725 144.067 239.456C143.558 239.183 142.883 239.046 142.042 239.046H138.748V252.437H136.874Z" fill="#59BAAE"/>
<path d="M151.921 245.668V252.437H150.138V237.434H151.921V242.943H152.072C152.344 242.362 152.752 241.9 153.296 241.559C153.845 241.212 154.575 241.038 155.487 241.038C156.278 241.038 156.97 241.192 157.565 241.5C158.159 241.803 158.62 242.269 158.947 242.899C159.28 243.524 159.446 244.32 159.446 245.287V252.437H157.663V245.404C157.663 244.511 157.424 243.82 156.945 243.331C156.472 242.838 155.814 242.591 154.973 242.591C154.389 242.591 153.865 242.711 153.402 242.95C152.943 243.19 152.581 243.539 152.314 243.998C152.052 244.457 151.921 245.014 151.921 245.668Z" fill="#59BAAE"/>
<path d="M163.441 256.656C163.139 256.656 162.869 256.632 162.633 256.583C162.396 256.539 162.232 256.495 162.142 256.451L162.595 254.928C163.028 255.035 163.411 255.074 163.743 255.045C164.076 255.016 164.371 254.871 164.627 254.613C164.889 254.359 165.129 253.946 165.345 253.375L165.678 252.496L161.386 241.185H163.32L166.524 250.151H166.645L169.848 241.185H171.783L166.856 254.078C166.635 254.659 166.36 255.14 166.033 255.521C165.705 255.907 165.325 256.193 164.892 256.378C164.464 256.564 163.98 256.656 163.441 256.656Z" fill="#59BAAE"/>
<path d="M182.357 243.705L180.755 244.144C180.654 243.886 180.506 243.634 180.309 243.39C180.118 243.141 179.856 242.936 179.523 242.775C179.191 242.613 178.765 242.533 178.246 242.533C177.536 242.533 176.944 242.692 176.471 243.009C176.002 243.322 175.768 243.72 175.768 244.203C175.768 244.633 175.929 244.972 176.252 245.221C176.574 245.47 177.078 245.678 177.763 245.844L179.486 246.254C180.523 246.498 181.296 246.872 181.805 247.375C182.314 247.873 182.568 248.515 182.568 249.302C182.568 249.946 182.377 250.523 181.994 251.03C181.616 251.538 181.087 251.939 180.407 252.232C179.727 252.525 178.936 252.671 178.035 252.671C176.851 252.671 175.871 252.422 175.096 251.924C174.32 251.426 173.829 250.698 173.622 249.741L175.315 249.331C175.476 249.936 175.781 250.391 176.229 250.693C176.682 250.996 177.274 251.148 178.005 251.148C178.836 251.148 179.496 250.977 179.984 250.635C180.478 250.288 180.725 249.873 180.725 249.39C180.725 248.999 180.584 248.672 180.302 248.408C180.019 248.139 179.586 247.939 179.002 247.807L177.068 247.368C176.005 247.123 175.224 246.745 174.725 246.232C174.232 245.715 173.985 245.067 173.985 244.291C173.985 243.656 174.169 243.094 174.537 242.606C174.909 242.118 175.416 241.734 176.055 241.456C176.7 241.178 177.43 241.038 178.246 241.038C179.395 241.038 180.296 241.283 180.951 241.771C181.611 242.259 182.08 242.904 182.357 243.705Z" fill="#59BAAE"/>
<path d="M185.252 252.437V241.185H187.035V252.437H185.252ZM186.159 239.31C185.811 239.31 185.512 239.195 185.26 238.965C185.013 238.736 184.89 238.46 184.89 238.137C184.89 237.815 185.013 237.539 185.26 237.31C185.512 237.08 185.811 236.965 186.159 236.965C186.507 236.965 186.804 237.08 187.051 237.31C187.302 237.539 187.428 237.815 187.428 238.137C187.428 238.46 187.302 238.736 187.051 238.965C186.804 239.195 186.507 239.31 186.159 239.31Z" fill="#59BAAE"/>
<path d="M195.016 252.671C193.968 252.671 193.049 252.43 192.258 251.946C191.472 251.463 190.858 250.786 190.415 249.917C189.976 249.048 189.757 248.032 189.757 246.87C189.757 245.697 189.976 244.674 190.415 243.8C190.858 242.926 191.472 242.247 192.258 241.764C193.049 241.28 193.968 241.038 195.016 241.038C196.064 241.038 196.981 241.28 197.766 241.764C198.557 242.247 199.172 242.926 199.61 243.8C200.053 244.674 200.275 245.697 200.275 246.87C200.275 248.032 200.053 249.048 199.61 249.917C199.172 250.786 198.557 251.463 197.766 251.946C196.981 252.43 196.064 252.671 195.016 252.671ZM195.016 251.118C195.812 251.118 196.467 250.921 196.981 250.525C197.494 250.129 197.875 249.609 198.121 248.965C198.368 248.32 198.492 247.622 198.492 246.87C198.492 246.117 198.368 245.417 198.121 244.767C197.875 244.118 197.494 243.593 196.981 243.192C196.467 242.792 195.812 242.591 195.016 242.591C194.22 242.591 193.565 242.792 193.052 243.192C192.538 243.593 192.158 244.118 191.911 244.767C191.664 245.417 191.541 246.117 191.541 246.87C191.541 247.622 191.664 248.32 191.911 248.965C192.158 249.609 192.538 250.129 193.052 250.525C193.565 250.921 194.22 251.118 195.016 251.118Z" fill="#59BAAE"/>
<path d="M221.674 242.123H219.8C219.69 241.6 219.496 241.141 219.219 240.745C218.947 240.35 218.614 240.018 218.221 239.749C217.833 239.476 217.403 239.27 216.929 239.134C216.456 238.997 215.962 238.929 215.448 238.929C214.511 238.929 213.663 239.158 212.902 239.617C212.147 240.076 211.545 240.753 211.096 241.646C210.653 242.54 210.431 243.637 210.431 244.936C210.431 246.235 210.653 247.331 211.096 248.225C211.545 249.118 212.147 249.795 212.902 250.254C213.663 250.713 214.511 250.943 215.448 250.943C215.962 250.943 216.456 250.874 216.929 250.737C217.403 250.601 217.833 250.398 218.221 250.129C218.614 249.856 218.947 249.521 219.219 249.126C219.496 248.725 219.69 248.266 219.8 247.749H221.674C221.533 248.515 221.276 249.202 220.903 249.807C220.531 250.413 220.067 250.928 219.513 251.353C218.959 251.773 218.337 252.093 217.647 252.312C216.962 252.532 216.229 252.642 215.448 252.642C214.129 252.642 212.955 252.33 211.927 251.704C210.9 251.079 210.091 250.19 209.502 249.038C208.913 247.885 208.618 246.518 208.618 244.936C208.618 243.353 208.913 241.986 209.502 240.833C210.091 239.681 210.9 238.792 211.927 238.167C212.955 237.542 214.129 237.229 215.448 237.229C216.229 237.229 216.962 237.339 217.647 237.559C218.337 237.779 218.959 238.101 219.513 238.526C220.067 238.946 220.531 239.459 220.903 240.064C221.276 240.665 221.533 241.351 221.674 242.123Z" fill="#59BAAE"/>
<path d="M227.875 252.701C227.14 252.701 226.473 252.566 225.873 252.298C225.274 252.024 224.798 251.631 224.445 251.118C224.093 250.601 223.916 249.976 223.916 249.243C223.916 248.598 224.047 248.076 224.309 247.675C224.571 247.27 224.921 246.953 225.359 246.723C225.798 246.493 226.281 246.323 226.81 246.21C227.344 246.093 227.88 246 228.419 245.932C229.125 245.844 229.696 245.778 230.135 245.734C230.578 245.685 230.9 245.605 231.102 245.492C231.308 245.38 231.411 245.185 231.411 244.906V244.848C231.411 244.125 231.207 243.563 230.799 243.163C230.396 242.762 229.784 242.562 228.963 242.562C228.112 242.562 227.445 242.743 226.961 243.104C226.478 243.466 226.138 243.851 225.941 244.262L224.249 243.676C224.551 242.992 224.954 242.46 225.458 242.079C225.966 241.693 226.52 241.424 227.12 241.273C227.724 241.117 228.319 241.038 228.903 241.038C229.276 241.038 229.704 241.082 230.187 241.17C230.676 241.253 231.147 241.427 231.6 241.69C232.059 241.954 232.439 242.352 232.741 242.884C233.043 243.417 233.195 244.13 233.195 245.023V252.437H231.411V250.913H231.321C231.2 251.157 230.998 251.419 230.716 251.697C230.434 251.975 230.059 252.212 229.591 252.408C229.122 252.603 228.55 252.701 227.875 252.701ZM228.147 251.148C228.853 251.148 229.447 251.013 229.931 250.745C230.419 250.476 230.787 250.129 231.034 249.705C231.286 249.28 231.411 248.833 231.411 248.364V246.782C231.336 246.87 231.17 246.95 230.913 247.023C230.661 247.092 230.369 247.153 230.036 247.207C229.709 247.255 229.389 247.299 229.077 247.338C228.77 247.373 228.52 247.402 228.329 247.426C227.865 247.485 227.432 247.58 227.029 247.712C226.631 247.839 226.309 248.032 226.062 248.291C225.82 248.545 225.699 248.891 225.699 249.331C225.699 249.932 225.929 250.386 226.387 250.693C226.85 250.996 227.437 251.148 228.147 251.148Z" fill="#59BAAE"/>
<path d="M236.449 252.437V241.185H238.172V242.884H238.293C238.504 242.328 238.887 241.876 239.441 241.529C239.995 241.182 240.62 241.009 241.315 241.009C241.446 241.009 241.61 241.012 241.806 241.016C242.003 241.021 242.151 241.029 242.252 241.038V242.797C242.191 242.782 242.053 242.76 241.836 242.731C241.625 242.696 241.401 242.679 241.164 242.679C240.6 242.679 240.096 242.794 239.653 243.024C239.215 243.248 238.867 243.561 238.61 243.961C238.358 244.357 238.232 244.809 238.232 245.317V252.437H236.449Z" fill="#59BAAE"/>
<path d="M248.878 252.671C247.76 252.671 246.795 252.432 245.984 251.953C245.178 251.47 244.556 250.796 244.118 249.932C243.685 249.062 243.468 248.051 243.468 246.899C243.468 245.746 243.685 244.73 244.118 243.851C244.556 242.967 245.166 242.279 245.947 241.786C246.732 241.287 247.649 241.038 248.697 241.038C249.301 241.038 249.898 241.136 250.487 241.331C251.077 241.527 251.613 241.844 252.097 242.284C252.58 242.718 252.966 243.295 253.253 244.013C253.54 244.73 253.684 245.614 253.684 246.664V247.397H244.738V245.903H251.87C251.87 245.268 251.739 244.701 251.477 244.203C251.22 243.705 250.853 243.312 250.374 243.024C249.901 242.735 249.342 242.591 248.697 242.591C247.987 242.591 247.372 242.762 246.853 243.104C246.339 243.441 245.944 243.881 245.667 244.423C245.39 244.965 245.251 245.546 245.251 246.166V247.163C245.251 248.012 245.403 248.733 245.705 249.324C246.012 249.91 246.438 250.356 246.982 250.664C247.526 250.967 248.158 251.118 248.878 251.118C249.347 251.118 249.77 251.055 250.147 250.928C250.53 250.796 250.86 250.601 251.137 250.342C251.414 250.078 251.628 249.751 251.779 249.36L253.502 249.829C253.321 250.396 253.016 250.894 252.588 251.323C252.16 251.748 251.631 252.08 251.001 252.32C250.372 252.554 249.664 252.671 248.878 252.671Z" fill="#59BAAE"/>
</svg>
